<svg width="42" height="42" viewBox="0 0 42 42" fill="none" xmlns="http://www.w3.org/2000/svg">
<path d="M0 21C0 3.7065 3.7065 0 21 0C38.2935 0 42 3.7065 42 21C42 38.2935 38.2935 42 21 42C3.7065 42 0 38.2935 0 21Z" fill="#104584"/>
<path d="M20.0278 11.5938C15.37 11.5938 11.5938 15.3687 11.5938 20.0258C11.5938 21.5912 12.0211 23.0588 12.7658 24.3163C13.0526 24.8005 13.2383 25.1382 13.3592 25.4767C13.4748 25.8005 13.5382 26.1472 13.5382 26.6394V29.7455C13.5382 30.1079 13.832 30.4017 14.1944 30.4017C14.5569 30.4017 14.8507 30.1079 14.8507 29.7455V26.6394C14.8507 26.0192 14.7685 25.5205 14.5952 25.0354C14.4273 24.565 14.181 24.1301 13.8951 23.6474C13.267 22.5869 12.9062 21.3494 12.9062 20.0258C12.9062 16.0939 16.0945 12.9063 20.0278 12.9063C23.9611 12.9063 27.1493 16.0939 27.1493 20.0258L27.1493 20.1115C27.1492 20.5376 27.1491 20.8338 27.1776 21.0255C27.2422 21.4593 27.4349 21.8301 27.5755 22.1006L27.6087 22.1646L28.8622 24.5957L28.2321 24.9107L28.1645 24.9443C27.8786 25.086 27.5654 25.2413 27.3459 25.532C27.1267 25.8224 27.0652 26.1545 27.0094 26.4555L26.9967 26.5239L26.9899 26.56C26.9089 26.99 26.8311 27.3992 26.7176 27.7719C26.6036 28.1459 26.4681 28.4316 26.3014 28.6299C26.1855 28.7678 26.042 28.8798 25.88 28.9588C25.7795 29.0078 25.6441 29.0458 25.3886 29.0668C25.1232 29.0887 24.7826 29.0892 24.2757 29.0892C24.1145 29.0892 23.9587 29.0904 23.8058 29.0916C23.5031 29.0939 23.2117 29.0961 22.9131 29.0888C22.212 29.0718 21.6562 28.479 21.6562 27.7414C21.6562 27.3789 21.3624 27.0851 21 27.0851C20.6376 27.0851 20.3438 27.3789 20.3438 27.7414C20.3438 29.1282 21.4063 30.3651 22.8812 30.4009C23.2003 30.4087 23.5283 30.4063 23.8435 30.4039C23.9912 30.4028 24.136 30.4017 24.2757 30.4017H24.3022C24.7758 30.4017 25.1708 30.4017 25.4964 30.3749C25.8379 30.3467 26.1523 30.2863 26.4554 30.1385C26.7823 29.9791 27.0721 29.7528 27.3062 29.4744C27.6351 29.083 27.8353 28.6067 27.9731 28.1544C28.1095 27.7067 28.1989 27.2318 28.2767 26.8191L28.2797 26.8029L28.2865 26.767C28.3235 26.5705 28.3435 26.468 28.3654 26.3927C28.3816 26.3373 28.3908 26.326 28.393 26.3233C28.3929 26.3234 28.3932 26.3232 28.393 26.3233C28.3945 26.3214 28.3967 26.3185 28.4029 26.3132C28.4103 26.3068 28.4259 26.2946 28.4575 26.2749C28.5298 26.2299 28.6311 26.1786 28.819 26.0847L30.0434 25.4726C30.2004 25.3942 30.3194 25.2561 30.3738 25.0893C30.4283 24.9225 30.4137 24.7408 30.3333 24.5849L28.7753 21.5631C28.6048 21.2325 28.5072 21.043 28.4758 20.8323C28.4639 20.7522 28.4618 20.5677 28.4618 20.0258C28.4618 15.3687 24.6856 11.5938 20.0278 11.5938Z" fill="white"/>
<path d="M21.9466 16.8392C21.9763 16.1336 21.5059 15.6749 20.8946 15.5579C20.4153 15.4662 19.9418 15.6018 19.6487 15.9785C20.082 16.445 20.3475 17.0718 20.3475 17.7601C20.3475 18.1226 20.0537 18.4164 19.6912 18.4164C19.3288 18.4164 19.035 18.1226 19.035 17.7601C19.035 17.3088 18.8079 16.9124 18.4622 16.6791C17.9585 16.3391 17.3486 16.4468 16.9075 16.8581C16.4721 17.2641 16.3142 17.8624 16.6425 18.4213C16.7528 18.6093 16.7627 18.8398 16.6688 19.0364C16.5749 19.2331 16.3894 19.3704 16.1739 19.4027C15.7292 19.4693 15.5022 19.8215 15.5339 20.2618C15.5653 20.6995 15.8373 21.0138 16.2929 21.0138C16.5611 21.0138 16.8001 20.8807 16.9468 20.6709C17.1545 20.3739 17.5637 20.3016 17.8607 20.5093C18.1577 20.717 18.23 21.1262 18.0223 21.4232C17.6419 21.967 17.0099 22.3263 16.2929 22.3263C14.992 22.3263 14.2935 21.3117 14.2248 20.3559C14.1718 19.6198 14.4836 18.7927 15.2176 18.3656C14.9908 17.4112 15.3788 16.4891 16.0124 15.8982C16.6477 15.3058 17.6043 14.9787 18.5368 15.2709C19.154 14.3828 20.2194 14.0924 21.1412 14.2688C22.0532 14.4433 22.9251 15.0933 23.1836 16.1282C23.7981 16.1521 24.3008 16.4105 24.6461 16.8144C24.997 17.2247 25.1562 17.7492 25.1562 18.2489C25.1562 18.7485 24.997 19.273 24.6461 19.6834C24.402 19.9689 24.0791 20.1817 23.6937 20.2904C23.6152 20.7163 23.4465 21.1283 23.1757 21.4735C22.7707 21.9899 22.1582 22.3263 21.3904 22.3263C21.0399 22.3263 20.8029 22.4661 20.6378 22.6765C20.4597 22.9036 20.3475 23.2418 20.3475 23.625C20.3475 23.9874 20.0537 24.2812 19.6912 24.2812C19.3288 24.2812 19.035 23.9874 19.035 23.625C19.035 23.0056 19.2132 22.3662 19.6051 21.8665C20.01 21.3502 20.6226 21.0138 21.3904 21.0138C21.7408 21.0138 21.9779 20.874 22.1429 20.6636C22.2334 20.5482 22.3069 20.4042 22.3573 20.2402C22.1049 20.1465 21.8753 20.0058 21.6793 19.8293C21.41 19.5867 21.3884 19.1717 21.6311 18.9025C21.8737 18.6332 22.2886 18.6116 22.5579 18.8542C22.7001 18.9824 22.8855 19.0588 23.0895 19.0588C23.3725 19.0588 23.5412 18.956 23.6486 18.8304C23.7679 18.6909 23.8438 18.4823 23.8438 18.2489C23.8438 18.0154 23.7679 17.8068 23.6486 17.6673C23.5412 17.5418 23.3725 17.4389 23.0895 17.4389C22.995 17.4389 22.9056 17.4552 22.8231 17.4847C22.6175 17.5581 22.3889 17.5246 22.2131 17.3951C22.0373 17.2656 21.9375 17.0573 21.9466 16.8392Z" fill="white"/>
</svg>
