<svg width="42" height="42" viewBox="0 0 42 42" fill="none" xmlns="http://www.w3.org/2000/svg">
<path d="M0 21C0 3.7065 3.7065 0 21 0C38.2935 0 42 3.7065 42 21C42 38.2935 38.2935 42 21 42C3.7065 42 0 38.2935 0 21Z" fill="#1FA2B8"/>
<path d="M14.125 13.5C14.125 13.1548 13.8452 12.875 13.5 12.875C13.1548 12.875 12.875 13.1548 12.875 13.5V22.7131C12.875 24.0486 12.875 25.1144 12.9874 25.9503C13.1035 26.8139 13.3497 27.5251 13.9123 28.0877C14.4749 28.6503 15.1861 28.8965 16.0497 29.0126C16.8856 29.125 17.9514 29.125 19.2869 29.125H28.5C28.8452 29.125 29.125 28.8452 29.125 28.5C29.125 28.1548 28.8452 27.875 28.5 27.875H19.3333C17.9407 27.875 16.9592 27.8737 16.2162 27.7738C16.0612 27.7529 15.9209 27.7283 15.7933 27.6996C15.9773 26.4221 16.5181 24.1661 17.2867 22.2293C17.6772 21.2454 18.1127 20.3796 18.5679 19.7711C19.0453 19.133 19.4291 18.9286 19.6902 18.9286C19.8475 18.9286 20.0173 19.0005 20.2405 19.2368C20.4731 19.4831 20.6878 19.8264 20.9436 20.2434L20.9669 20.2812C21.1998 20.661 21.4723 21.1054 21.7945 21.4513C22.1362 21.8182 22.6069 22.1544 23.2387 22.1544C24.2487 22.1544 24.8892 21.4545 25.312 20.7154C25.7088 20.022 26.0109 19.1274 26.2913 18.2972L26.3472 18.1318C26.657 17.2172 26.9495 16.3913 27.3272 15.7903C27.6971 15.2017 28.0639 14.9583 28.5 14.9583C28.8452 14.9583 29.125 14.6785 29.125 14.3333C29.125 13.9882 28.8452 13.7083 28.5 13.7083C27.4479 13.7083 26.7469 14.3645 26.2689 15.1251C25.7986 15.8734 25.4628 16.8465 25.1633 17.7309L25.1236 17.8483C24.8269 18.725 24.561 19.511 24.2271 20.0947C23.878 20.7049 23.5649 20.9044 23.2387 20.9044C23.094 20.9044 22.9309 20.8374 22.7093 20.5994C22.4789 20.3521 22.266 20.0083 22.0091 19.5896L21.9974 19.5707C21.7609 19.1852 21.4824 18.7312 21.1492 18.3785C20.8011 18.0099 20.3253 17.6786 19.6902 17.6786C18.8047 17.6786 18.0955 18.3158 17.567 19.0223C17.0163 19.7584 16.5329 20.7402 16.1249 21.7683C15.4106 23.5682 14.8852 25.6196 14.6374 27.018C14.4369 26.7418 14.3046 26.3668 14.2262 25.7838C14.1263 25.0408 14.125 24.0593 14.125 22.6667V13.5Z" fill="white"/>
</svg>
