<svg width="42" height="42" viewBox="0 0 42 42" fill="none" xmlns="http://www.w3.org/2000/svg">
<path d="M0 21C0 3.7065 3.7065 0 21 0C38.2935 0 42 3.7065 42 21C42 38.2935 38.2935 42 21 42C3.7065 42 0 38.2935 0 21Z" fill="#3AB5FE"/>
<path d="M17.9544 13.3032C17.4392 12.7739 16.6858 12.7739 16.1706 13.3032C15.4792 14.0136 14.6532 14.9721 14.0036 16.05C13.3503 17.1342 12.9062 18.2882 12.9062 19.4028C12.9062 21.1402 13.8964 22.7903 15.5559 23.4531C15.8925 23.5875 16.0564 23.9693 15.9219 24.3059C15.7875 24.6425 15.4057 24.8064 15.0691 24.6719C12.8575 23.7887 11.5938 21.6172 11.5938 19.4028C11.5938 17.9546 12.1634 16.5609 12.8795 15.3726C13.5993 14.1781 14.4986 13.1393 15.2301 12.3878C16.2606 11.3291 17.8644 11.3291 18.8949 12.3878C19.2401 12.7424 19.5563 13.1672 19.8733 13.5929C19.9843 13.742 20.0954 13.8913 20.2079 14.0377C20.4287 14.3251 20.3747 14.7371 20.0873 14.9579C19.7999 15.1787 19.3879 15.1247 19.1671 14.8373C19.0211 14.6473 18.891 14.4726 18.7702 14.3104C18.4746 13.9134 18.2347 13.5912 17.9544 13.3032Z" fill="white"/>
<path d="M27.3438 24.0625C27.3438 23.7001 27.0499 23.4062 26.6875 23.4062C26.3251 23.4062 26.0312 23.7001 26.0312 24.0625C26.0312 24.8678 25.7655 25.3274 25.4444 25.598C25.1039 25.8848 24.6141 26.0312 24.0625 26.0312C23.7001 26.0312 23.4062 26.3251 23.4062 26.6875C23.4062 27.0499 23.7001 27.3438 24.0625 27.3438C24.8234 27.3438 25.6461 27.1442 26.29 26.6018C26.9532 26.043 27.3438 25.1902 27.3438 24.0625Z" fill="white"/>
<path fill-rule="evenodd" clip-rule="evenodd" d="M21.432 15.1294C22.6708 13.9152 24.5792 13.9152 25.818 15.1294C26.7438 16.0369 27.8799 17.2894 28.7883 18.7276C29.6923 20.1588 30.4062 21.8297 30.4062 23.5605C30.4062 26.9112 27.8529 30.4062 23.625 30.4062C19.3971 30.4062 16.8438 26.9112 16.8438 23.5605C16.8438 21.8297 17.5577 20.1588 18.4617 18.7276C19.3701 17.2894 20.5062 16.0369 21.432 15.1294ZM24.8993 16.0667C24.1708 15.3528 23.0792 15.3528 22.3507 16.0667C21.4655 16.9345 20.4059 18.1073 19.5714 19.4285C18.7325 20.7567 18.1562 22.1794 18.1562 23.5605C18.1562 26.3122 20.2418 29.0938 23.625 29.0938C27.0082 29.0938 29.0938 26.3122 29.0938 23.5605C29.0938 22.1794 28.5175 20.7567 27.6786 19.4285C26.8441 18.1073 25.7845 16.9345 24.8993 16.0667Z" fill="white"/>
</svg>
