<svg width="26" height="21" viewBox="0 0 26 21" fill="none" xmlns="http://www.w3.org/2000/svg">
<path d="M1.64062 0.351562L6.01562 3.75C7.77344 2.42188 9.96094 1.36719 12.6562 1.36719C15.7812 1.36719 18.3203 2.8125 20.1562 4.53125C21.9922 6.21094 23.2031 8.24219 23.7891 9.64844C23.9062 9.96094 23.9062 10.3125 23.7891 10.625C23.2812 11.875 22.2266 13.6719 20.6641 15.2344L24.7656 18.4766C25.1953 18.7891 25.2734 19.375 24.9219 19.7656C24.6094 20.1953 24.0234 20.2734 23.6328 19.9219L0.507812 1.79688C0.078125 1.48438 0 0.898438 0.351562 0.507812C0.664062 0.078125 1.25 0 1.64062 0.351562ZM7.53906 4.96094L9.33594 6.36719C10.2344 5.58594 11.3672 5.11719 12.6562 5.11719C15.3906 5.11719 17.6562 7.38281 17.6562 10.1172C17.6562 10.9766 17.4609 11.7578 17.0703 12.4219L19.1797 14.0625C20.5469 12.7344 21.4844 11.2109 21.9531 10.1172C21.4453 8.94531 20.3906 7.30469 18.8672 5.89844C17.2656 4.41406 15.1953 3.24219 12.6562 3.24219C10.6641 3.24219 8.98438 3.94531 7.53906 4.96094ZM15.5469 11.25C15.7031 10.8984 15.7812 10.5078 15.7812 10.1172C15.7812 8.39844 14.375 6.99219 12.6562 6.99219C12.6172 6.99219 12.5781 6.99219 12.5781 6.99219C12.6172 7.22656 12.6562 7.42188 12.6562 7.61719C12.6562 8.04688 12.5391 8.39844 12.3828 8.75L15.5469 11.25ZM15.9375 16.3281L17.5781 17.6172C16.1328 18.3984 14.4922 18.8672 12.6562 18.8672C9.49219 18.8672 6.95312 17.4609 5.11719 15.7422C3.28125 14.0234 2.07031 11.9922 1.48438 10.625C1.36719 10.3125 1.36719 9.96094 1.48438 9.64844C1.875 8.75 2.5 7.61719 3.39844 6.44531L4.84375 7.61719C4.14062 8.51562 3.63281 9.41406 3.32031 10.1172C3.86719 11.2891 4.88281 12.9688 6.40625 14.375C8.00781 15.8594 10.0781 16.9922 12.6562 16.9922C13.8281 16.9922 14.9219 16.7578 15.9375 16.3281ZM7.65625 10.1172H7.61719C7.61719 10.0391 7.65625 9.92188 7.65625 9.80469L9.84375 11.5234C10.2344 12.3438 11.0156 12.9688 11.9531 13.1641L14.1406 14.9219C13.6719 15.0391 13.1641 15.1172 12.6562 15.1172C9.88281 15.1172 7.65625 12.8906 7.65625 10.1172Z" fill="#4B5563"/>
</svg>
