<svg width="23" height="18" viewBox="0 0 23 18" fill="none" xmlns="http://www.w3.org/2000/svg">
<path d="M11.2891 1.875C8.71094 1.875 6.64062 3.04688 5.03906 4.53125C3.51562 5.9375 2.5 7.57812 1.95312 8.75C2.5 9.92188 3.51562 11.6016 5.03906 13.0078C6.64062 14.4922 8.71094 15.625 11.2891 15.625C13.8281 15.625 15.8984 14.4922 17.5 13.0078C19.0234 11.6016 20.0781 9.92188 20.5859 8.75C20.0781 7.57812 19.0234 5.9375 17.5391 4.53125C15.8984 3.04688 13.8281 1.875 11.2891 1.875ZM3.75 3.16406C5.58594 1.44531 8.125 0 11.2891 0C14.4141 0 16.9531 1.44531 18.7891 3.16406C20.625 4.88281 21.8359 6.875 22.4219 8.28125C22.5391 8.59375 22.5391 8.94531 22.4219 9.25781C21.8359 10.625 20.625 12.6562 18.7891 14.375C16.9531 16.0938 14.4141 17.5 11.2891 17.5C8.125 17.5 5.58594 16.0938 3.75 14.375C1.91406 12.6562 0.703125 10.625 0.117188 9.25781C0 8.94531 0 8.59375 0.117188 8.28125C0.703125 6.875 1.91406 4.84375 3.75 3.16406ZM11.2891 11.875C13.0078 11.875 14.4141 10.5078 14.4141 8.75C14.4141 7.03125 13.0078 5.625 11.2891 5.625C11.25 5.625 11.2109 5.625 11.2109 5.625C11.25 5.85938 11.2891 6.05469 11.2891 6.25C11.2891 7.65625 10.1562 8.75 8.78906 8.75C8.55469 8.75 8.35938 8.75 8.16406 8.67188C8.16406 8.71094 8.16406 8.75 8.16406 8.75C8.16406 10.5078 9.53125 11.875 11.2891 11.875ZM11.2891 3.75C13.0469 3.75 14.6875 4.72656 15.5859 6.25C16.4844 7.8125 16.4844 9.72656 15.5859 11.25C14.6875 12.8125 13.0469 13.75 11.2891 13.75C9.49219 13.75 7.85156 12.8125 6.95312 11.25C6.05469 9.72656 6.05469 7.8125 6.95312 6.25C7.85156 4.72656 9.49219 3.75 11.2891 3.75Z" fill="#4B5563"/>
</svg>
