<svg width="1280" height="144" viewBox="0 0 1280 144" fill="none" xmlns="http://www.w3.org/2000/svg">
<g clip-path="url(#clip0_793_7428)">
<path fill-rule="evenodd" clip-rule="evenodd" d="M121.306 0C121.781 0 122.256 0.00595123 122.73 0.017777L123.395 0.0383608C137.376 0.552248 150.444 6.21845 160.39 16.1265C181.94 37.5948 181.94 72.5287 160.39 93.997C153.647 100.715 142.197 112.045 126.36 127.669C116.162 137.728 102.642 143.269 88.2896 143.269C73.937 143.269 60.4179 137.728 50.2199 127.669C34.3691 112.033 22.9191 100.702 16.1883 93.997C5.74839 83.5968 1.8109e-05 69.7699 0 55.0618C1.02989e-05 40.3536 5.74842 26.5267 16.1883 16.1265C26.6281 5.72644 40.508 0 55.2722 0C67.1491 2.92949e-05 78.4558 3.70733 87.8583 10.5726C88.0024 10.6778 88.1465 10.784 88.2896 10.8907C97.7763 3.82223 109.247 0.000111132 121.306 0ZM121.306 17.0902C111.485 17.0903 102.228 20.7686 95.1236 27.4691C94.867 27.711 94.6137 27.9576 94.3628 28.2073L78.2083 44.3011L65.48 56.9292C62.9966 59.4032 62.9967 63.429 65.48 65.9029C67.9634 68.3766 72.0049 68.3767 74.4882 65.9029L87.2053 53.2475L87.1968 53.2392L100.499 39.9878C100.853 39.6348 101.216 39.2938 101.586 38.9661C111.508 30.1753 126.762 30.5179 136.27 39.9878C146.133 49.813 146.133 65.798 136.27 75.6231L103.1 108.667C95.292 116.446 84.6539 121.57 73.4226 123.071C78.0505 125.098 83.0889 126.173 88.2896 126.173C98.0905 126.173 107.324 122.392 114.285 115.522C130.104 99.9176 141.534 88.6094 148.258 81.9105C163.118 67.1074 163.118 43.0154 148.258 28.212C141.058 21.0397 131.483 17.0902 121.306 17.0902ZM55.2722 17.093C45.0914 17.093 35.5211 21.0438 28.3214 28.2138C21.122 35.3862 17.1576 44.9197 17.1576 55.0618C17.1576 65.2038 21.1238 74.7393 28.3234 81.9115C31.9815 85.5536 37.0509 90.5827 43.4591 96.9198L43.5694 96.8105C52.1378 105.346 61.7654 106.731 68.3327 106.394C76.9032 105.953 85.1559 102.376 90.9721 96.5825L124.141 63.5386C127.313 60.3783 127.313 55.2355 124.141 52.0752C120.969 48.9153 115.807 48.9152 112.634 52.0752L99.3418 65.3162L99.3111 65.2854C95.2377 69.3405 91.3196 73.6577 87.0135 77.4701C77.8092 85.6257 63.6563 85.3085 54.8354 76.5232C45.6854 67.4078 45.6854 52.5781 54.8354 43.4628L75.4753 22.8611C69.4746 19.1092 62.5313 17.093 55.2722 17.093Z" fill="white"/>
<path d="M287.564 24.8359C299.989 24.8359 309.308 31.2968 310.551 32.1665C311.544 32.7877 312.538 34.5273 311.296 36.3909C310.303 37.8819 309.183 39.622 308.19 41.113C307.195 42.7281 305.58 43.4734 303.841 42.3556C302.971 41.8585 294.274 36.143 287.067 36.143C276.631 36.143 273.027 42.7275 273.027 47.3247C273.027 54.4068 278.494 58.7561 288.806 62.9805C303.219 68.8202 315.52 75.6537 315.52 90.8118C315.52 103.733 303.965 114.295 287.812 114.295C272.655 114.295 263.086 106.343 261.098 104.48C259.98 103.485 259.111 102.616 260.354 100.504C261.472 98.8892 262.465 97.0248 263.583 95.4095C264.702 93.7942 266.441 93.2976 267.808 94.4158C268.554 95.037 278.121 102.989 287.688 102.989C296.262 102.989 301.729 97.7702 301.729 91.433C301.728 83.9784 295.267 79.2572 282.967 74.1632C270.294 68.8205 260.354 62.235 260.354 47.8224C260.354 38.1311 267.809 24.836 287.564 24.8359Z" fill="white"/>
<path d="M368.448 26.0781C370.063 26.0781 371.431 27.4448 371.431 29.06V63.4771L406.469 27.3207C406.966 26.6994 407.835 26.0782 408.829 26.0781H418.148C420.385 26.0781 421.626 28.6877 419.888 30.5514L383.98 67.0802L422 108.953C422.994 110.195 422.372 113.052 419.763 113.052H409.824C408.581 113.052 407.835 112.556 407.587 112.183L371.431 71.429V110.071C371.431 111.686 370.063 113.052 368.448 113.052H361.242C359.502 113.052 358.261 111.686 358.261 110.071V29.06C358.261 27.4448 359.502 26.0781 361.242 26.0781H368.448Z" fill="white"/>
<path d="M461.962 26.0781C462.956 26.0783 463.577 26.6993 463.949 27.1962L486.439 58.8803L508.927 27.1962C509.3 26.6993 510.046 26.0781 510.916 26.0781H520.235C522.223 26.0785 523.216 28.0661 522.222 29.6813L492.775 71.0566V110.692C492.775 111.934 491.657 113.052 490.414 113.052H482.215C480.848 113.052 479.853 111.934 479.853 110.692V71.1811L450.779 29.6813C449.786 28.0661 450.779 26.0781 452.767 26.0781H461.962Z" fill="white"/>
<path d="M611.819 26.0781C613.185 26.0784 614.18 27.1965 614.18 28.4387V35.397C614.18 36.6394 613.185 37.7574 611.819 37.7576H572.556V63.1047H605.73C606.972 63.1047 608.091 64.2228 608.091 65.4653V72.4236C608.091 73.7901 606.972 74.7841 605.73 74.7841H572.556V101.497H611.819C613.185 101.498 614.18 102.616 614.18 103.858V110.692C614.18 111.934 613.185 113.052 611.819 113.052H562.119C560.752 113.052 559.758 111.934 559.758 110.692V28.4387C559.758 27.1964 560.752 26.0781 562.119 26.0781H611.819Z" fill="white"/>
<path d="M721.947 26.0781C723.314 26.0781 724.308 27.1964 724.308 28.4387V63.1047H769.783V28.4387C769.783 27.1964 770.777 26.0781 772.145 26.0781H780.344C781.586 26.0781 782.705 27.1964 782.705 28.4387V110.692C782.705 111.934 781.586 113.052 780.344 113.052H772.145C770.777 113.052 769.783 111.934 769.783 110.692V74.7841H724.308V110.692C724.308 111.934 723.314 113.052 721.947 113.052H713.747C712.505 113.052 711.387 111.934 711.387 110.692V28.4387C711.387 27.1964 712.505 26.0781 713.747 26.0781H721.947Z" fill="white"/>
<path d="M884.398 26.0781C885.764 26.0784 886.759 27.1965 886.759 28.4387V35.397C886.759 36.6394 885.764 37.7574 884.398 37.7576H845.135V63.1047H878.31C879.552 63.105 880.67 64.223 880.67 65.4653V72.4236C880.67 73.7899 879.552 74.784 878.31 74.7841H845.135V101.497H884.398C885.764 101.498 886.759 102.616 886.759 103.858V110.692C886.759 111.934 885.764 113.052 884.398 113.052H834.699C833.331 113.052 832.338 111.934 832.338 110.692V28.4387C832.338 27.1964 833.331 26.0781 834.699 26.0781H884.398Z" fill="white"/>
<path fill-rule="evenodd" clip-rule="evenodd" d="M960.901 24.8359C961.523 24.8359 962.644 25.4574 963.018 26.2028L1000.91 109.822C1001.66 111.437 1000.66 113.053 998.802 113.053H990.975C989.48 113.053 988.608 112.307 988.11 111.189L980.407 94.1669H939.782C937.297 99.8827 934.687 105.473 932.202 111.189C931.83 112.058 930.836 113.053 929.345 113.053H921.518C919.654 113.053 918.66 111.437 919.405 109.822L957.549 26.2028C957.922 25.4575 959.042 24.8361 959.665 24.8359H960.901ZM944.628 83.4811H975.693L960.402 49.4373H959.789L944.628 83.4811Z" fill="white"/>
<path d="M1049.49 26.0781C1050.73 26.0783 1051.85 27.1964 1051.85 28.4387V101.497H1085.53C1086.89 101.498 1087.88 102.616 1087.88 103.858V110.692C1087.88 111.934 1086.89 113.052 1085.53 113.052H1041.29C1039.92 113.052 1038.93 111.934 1038.93 110.692V28.4387C1038.93 27.1964 1039.92 26.0782 1041.29 26.0781H1049.49Z" fill="white"/>
<path d="M1166.4 26.0781C1167.77 26.0784 1168.76 27.1965 1168.76 28.4387V35.397C1168.76 36.6394 1167.77 37.7574 1166.4 37.7576H1146.15V110.692C1146.15 111.934 1145.02 113.052 1143.79 113.052H1135.59C1134.34 113.052 1133.22 111.934 1133.22 110.692V37.7576H1112.98C1111.61 37.7576 1110.61 36.6395 1110.61 35.397V28.4387C1110.61 27.1964 1111.61 26.0781 1112.98 26.0781H1166.4Z" fill="white"/>
<path d="M1218.35 26.0781C1219.72 26.0781 1220.71 27.1964 1220.71 28.4387V63.1047H1266.18V28.4387C1266.18 27.1965 1267.18 26.0783 1268.55 26.0781H1276.75C1277.99 26.0781 1279.11 27.1964 1279.11 28.4387V110.692C1279.11 111.934 1277.99 113.052 1276.75 113.052H1268.55C1267.18 113.052 1266.18 111.934 1266.18 110.692V74.7841H1220.71V110.692C1220.71 111.934 1219.72 113.052 1218.35 113.052H1210.15C1208.91 113.052 1207.79 111.934 1207.79 110.692V28.4387C1207.79 27.1964 1208.91 26.0781 1210.15 26.0781H1218.35Z" fill="white"/>
</g>
<defs>
<clipPath id="clip0_793_7428">
<rect width="1280" height="143.713" fill="white"/>
</clipPath>
</defs>
</svg>
