<svg width="259" height="29" viewBox="0 0 259 29" fill="none" xmlns="http://www.w3.org/2000/svg">
<g clip-path="url(#clip0_793_6884)">
<path fill-rule="evenodd" clip-rule="evenodd" d="M24.4785 0C24.5744 0 24.6703 0.00120091 24.7658 0.00358724L24.9002 0.00774089C27.7213 0.111439 30.3584 1.25483 32.3654 3.25419C36.714 7.58632 36.714 14.6357 32.3654 18.9678C31.0047 20.3234 28.6941 22.6098 25.4983 25.7624C23.4405 27.7924 20.7124 28.9105 17.8161 28.9105C14.9199 28.9105 12.1918 27.7924 10.134 25.7624C6.93541 22.6072 4.62488 20.3209 3.26666 18.9678C1.15998 16.8691 3.65425e-06 14.079 0 11.111C2.07824e-06 8.14303 1.15998 5.35286 3.26666 3.25419C5.37333 1.15555 8.17417 0 11.1535 0C13.5501 5.91146e-06 15.8317 0.748109 17.7291 2.13347C17.7582 2.1547 17.7872 2.17612 17.8161 2.19766C19.7304 0.771294 22.0452 2.24255e-05 24.4785 0ZM24.4785 3.44866C22.4967 3.44868 20.6287 4.19093 19.1951 5.54304C19.1434 5.59186 19.0922 5.6416 19.0416 5.692L15.7818 8.9396L13.2133 11.4878C12.7122 11.9871 12.7122 12.7994 13.2133 13.2986C13.7144 13.7978 14.53 13.7979 15.0311 13.2986L17.5973 10.7449L17.5956 10.7432L20.2799 8.06921C20.3512 7.99797 20.4245 7.92916 20.4991 7.86304C22.5013 6.08913 25.5795 6.15827 27.4982 8.06921C29.4884 10.0518 29.4884 13.2775 27.4982 15.2601L20.8048 21.9281C19.2291 23.4977 17.0825 24.5319 14.8161 24.8346C15.7499 25.2437 16.7666 25.4606 17.8161 25.4606C19.7939 25.4606 21.657 24.6978 23.0618 23.3114C26.2539 20.1625 28.5604 17.8806 29.9172 16.5289C32.9158 13.5417 32.9158 8.68015 29.9172 5.69295C28.4643 4.24564 26.5321 3.44866 24.4785 3.44866ZM11.1535 3.44922C9.09906 3.44922 7.16787 4.24647 5.71503 5.69332C4.26225 7.14063 3.46225 9.06441 3.46225 11.111C3.46225 13.1576 4.26261 15.0818 5.71542 16.5291C6.4536 17.264 7.47657 18.2788 8.76968 19.5576L8.79195 19.5356C10.521 21.258 12.4637 21.5373 13.789 21.4695C15.5184 21.3803 17.1838 20.6586 18.3574 19.4895L25.0506 12.8216C25.6907 12.1838 25.6907 11.1461 25.0506 10.5083C24.4105 9.87069 23.369 9.87067 22.7287 10.5083L20.0463 13.1803L20.0402 13.174C19.2182 13.9923 18.4275 14.8635 17.5586 15.6328C15.7013 17.2785 12.8453 17.2145 11.0653 15.4417C9.21893 13.6023 9.21893 10.6098 11.0653 8.77043L15.2303 4.61318C14.0194 3.85607 12.6183 3.44922 11.1535 3.44922Z" fill="white"/>
<path d="M58.0277 5.01172C60.5349 5.01172 62.4154 6.31546 62.6662 6.49097C62.8667 6.61633 63.0672 6.96736 62.8166 7.34342C62.6161 7.64428 62.3903 7.99543 62.1898 8.2963C61.9891 8.6222 61.6632 8.77259 61.3123 8.54703C61.1367 8.44673 59.3817 7.29338 57.9274 7.29338C55.8214 7.29338 55.0943 8.62208 55.0943 9.54976C55.0943 10.9789 56.1975 11.8565 58.2783 12.709C61.1868 13.8874 63.669 15.2663 63.669 18.3251C63.669 20.9325 61.3372 23.0639 58.0778 23.0639C55.0191 23.0639 53.0883 21.4592 52.6871 21.0832C52.4615 20.8825 52.2861 20.7071 52.5369 20.2808C52.7625 19.9551 52.963 19.5788 53.1886 19.2529C53.4142 18.9269 53.7653 18.8267 54.041 19.0524C54.1916 19.1777 56.1222 20.7823 58.0527 20.7823C59.7828 20.7823 60.886 19.7292 60.886 18.4505C60.8858 16.9462 59.5821 15.9935 57.1001 14.9655C54.5427 13.8874 52.5369 12.5585 52.5369 9.65019C52.5369 7.69457 54.0412 5.01174 58.0277 5.01172Z" fill="white"/>
<path d="M74.3497 5.2627C74.6756 5.2627 74.9515 5.53849 74.9515 5.86441V12.8095L82.0219 5.51343C82.1222 5.38807 82.2976 5.26271 82.4983 5.2627H84.3786C84.8301 5.2627 85.0806 5.78928 84.7297 6.16537L77.4838 13.5366L85.156 21.9861C85.3565 22.2368 85.231 22.8134 84.7046 22.8134H82.699C82.4482 22.8134 82.2976 22.7132 82.2475 22.638L74.9515 14.4141V22.2117C74.9515 22.5377 74.6756 22.8134 74.3497 22.8134H72.8956C72.5445 22.8134 72.2939 22.5377 72.2939 22.2117V5.86441C72.2939 5.53849 72.5445 5.2627 72.8956 5.2627H74.3497Z" fill="white"/>
<path d="M93.22 5.2627C93.4205 5.26273 93.5458 5.38805 93.621 5.48832L98.1593 11.8819L102.697 5.48832C102.772 5.38803 102.923 5.2627 103.099 5.2627H104.979C105.38 5.26277 105.581 5.66386 105.38 5.98978L99.4378 14.339V22.337C99.4378 22.5877 99.2122 22.8134 98.9614 22.8134H97.3069C97.031 22.8134 96.8303 22.5877 96.8303 22.337V14.3641L90.9634 5.98978C90.7629 5.66384 90.9634 5.2627 91.3646 5.2627H93.22Z" fill="white"/>
<path d="M123.46 5.2627C123.735 5.26275 123.936 5.48837 123.936 5.73905V7.14317C123.936 7.39387 123.735 7.61947 123.46 7.61953H115.537V12.7344H122.231C122.482 12.7344 122.707 12.96 122.707 13.2107V14.6148C122.707 14.8906 122.482 15.0912 122.231 15.0912H115.537V20.4816H123.46C123.735 20.4818 123.936 20.7074 123.936 20.9579V22.337C123.936 22.5877 123.735 22.8134 123.46 22.8134H113.431C113.155 22.8134 112.954 22.5877 112.954 22.337V5.73905C112.954 5.48835 113.155 5.2627 113.431 5.2627H123.46Z" fill="white"/>
<path d="M145.683 5.2627C145.959 5.2627 146.159 5.48835 146.159 5.73905V12.7344H155.336V5.73905C155.336 5.48835 155.536 5.2627 155.812 5.2627H157.467C157.717 5.2627 157.943 5.48835 157.943 5.73905V22.337C157.943 22.5877 157.717 22.8134 157.467 22.8134H155.812C155.536 22.8134 155.336 22.5877 155.336 22.337V15.0912H146.159V22.337C146.159 22.5877 145.959 22.8134 145.683 22.8134H144.028C143.777 22.8134 143.552 22.5877 143.552 22.337V5.73905C143.552 5.48835 143.777 5.2627 144.028 5.2627H145.683Z" fill="white"/>
<path d="M178.464 5.2627C178.74 5.26275 178.941 5.48837 178.941 5.73905V7.14317C178.941 7.39387 178.74 7.61947 178.464 7.61953H170.541V12.7344H177.236C177.486 12.7344 177.712 12.96 177.712 13.2107V14.6148C177.712 14.8905 177.486 15.0911 177.236 15.0912H170.541V20.4816H178.464C178.74 20.4818 178.941 20.7074 178.941 20.9579V22.337C178.941 22.5877 178.74 22.8134 178.464 22.8134H168.435C168.159 22.8134 167.959 22.5877 167.959 22.337V5.73905C167.959 5.48835 168.159 5.2627 168.435 5.2627H178.464Z" fill="white"/>
<path fill-rule="evenodd" clip-rule="evenodd" d="M193.902 5.01172C194.028 5.01172 194.254 5.13711 194.329 5.28755L201.976 22.1612C202.127 22.4871 201.926 22.8131 201.55 22.8131H199.971C199.669 22.8131 199.493 22.6627 199.393 22.4371L197.838 19.0021H189.641C189.139 20.1555 188.613 21.2836 188.111 22.4371C188.036 22.6124 187.835 22.8131 187.535 22.8131H185.955C185.579 22.8131 185.378 22.4871 185.529 22.1612L193.226 5.28755C193.301 5.13715 193.527 5.01176 193.653 5.01172H193.902ZM190.618 16.8458H196.887L193.802 9.97607H193.678L190.618 16.8458Z" fill="white"/>
<path d="M211.779 5.2627C212.028 5.26273 212.255 5.48835 212.255 5.73905V20.4816H219.05C219.325 20.4818 219.526 20.7074 219.526 20.9579V22.337C219.526 22.5877 219.325 22.8134 219.05 22.8134H210.124C209.848 22.8134 209.646 22.5877 209.646 22.337V5.73905C209.646 5.48835 209.848 5.26271 210.124 5.2627H211.779Z" fill="white"/>
<path d="M235.37 5.2627C235.647 5.26275 235.846 5.48837 235.846 5.73905V7.14317C235.846 7.39387 235.647 7.61947 235.37 7.61953H231.283V22.337C231.283 22.5877 231.057 22.8134 230.807 22.8134H229.153C228.901 22.8134 228.675 22.5877 228.675 22.337V7.61953H224.59C224.313 7.61953 224.112 7.39389 224.112 7.14317V5.73905C224.112 5.48835 224.313 5.2627 224.59 5.2627H235.37Z" fill="white"/>
<path d="M245.852 5.2627C246.129 5.2627 246.33 5.48835 246.33 5.73905V12.7344H255.505V5.73905C255.505 5.48837 255.706 5.26273 255.983 5.2627H257.638C257.887 5.2627 258.113 5.48835 258.113 5.73905V22.337C258.113 22.5877 257.887 22.8134 257.638 22.8134H255.983C255.706 22.8134 255.505 22.5877 255.505 22.337V15.0912H246.33V22.337C246.33 22.5877 246.129 22.8134 245.852 22.8134H244.197C243.948 22.8134 243.722 22.5877 243.722 22.337V5.73905C243.722 5.48835 243.948 5.2627 244.197 5.2627H245.852Z" fill="white"/>
</g>
<defs>
<clipPath id="clip0_793_6884">
<rect width="258.293" height="29" fill="white"/>
</clipPath>
</defs>
</svg>
