<svg width="126" height="40" viewBox="0 0 126 40" fill="none" xmlns="http://www.w3.org/2000/svg">
<g clip-path="url(#clip0_50759_25659)">
<path d="M24.0965 4.51349H27.7023V18.5037H24.0965V16.852C23.0171 18.2175 21.4963 18.8962 19.5339 18.8962C17.5715 18.8962 16.067 18.1848 14.7342 16.7539C13.4014 15.3312 12.731 13.5814 12.731 11.5045C12.731 9.42764 13.4014 7.68602 14.7342 6.25511C16.067 4.83238 17.6696 4.11284 19.5339 4.11284C21.4963 4.11284 23.009 4.7915 24.0965 6.15699V4.50532V4.51349ZM17.4325 14.35C18.1602 15.0859 19.0842 15.4538 20.2044 15.4538C21.3246 15.4538 22.2485 15.0859 22.9844 14.35C23.7203 13.6141 24.0883 12.6656 24.0883 11.5127C24.0883 10.3598 23.7203 9.41128 22.9844 8.67539C22.2485 7.93949 21.3164 7.57155 20.2044 7.57155C19.0924 7.57155 18.1602 7.93949 17.4325 8.67539C16.7048 9.41128 16.345 10.3598 16.345 11.5127C16.345 12.6656 16.7048 13.6141 17.4325 14.35Z" fill="#104584"/>
<path d="M32.3386 6.91742C32.6738 6.02617 33.2298 5.35568 34.0066 4.90597C34.7834 4.45626 35.6419 4.23549 36.5904 4.23549V8.26656C35.4866 8.13573 34.5054 8.3565 33.6386 8.93704C32.7719 9.51758 32.3386 10.4742 32.3386 11.8152V18.5037H28.7327V4.51349H32.3386V6.91742Z" fill="#104584"/>
<path d="M48.2256 4.51349H51.8315V18.5037H48.2256V16.852C47.1463 18.2175 45.6254 18.8962 43.6631 18.8962C41.7007 18.8962 40.1962 18.1848 38.8634 16.7539C37.5306 15.3312 36.8601 13.5814 36.8601 11.5045C36.8601 9.42764 37.5306 7.68602 38.8634 6.25511C40.1962 4.83238 41.7988 4.11284 43.6631 4.11284C45.6254 4.11284 47.1381 4.7915 48.2256 6.15699V4.50532V4.51349ZM41.5698 14.35C42.2976 15.0859 43.2215 15.4538 44.3417 15.4538C45.4619 15.4538 46.3859 15.0859 47.1218 14.35C47.8577 13.6141 48.2256 12.6656 48.2256 11.5127C48.2256 10.3598 47.8577 9.41128 47.1218 8.67539C46.3859 7.93949 45.4537 7.57155 44.3417 7.57155C43.2297 7.57155 42.2976 7.93949 41.5698 8.67539C40.8421 9.41128 40.4823 10.3598 40.4823 11.5127C40.4823 12.6656 40.8421 13.6141 41.5698 14.35Z" fill="#104584"/>
<path d="M68.332 4.12101C69.9346 4.12101 71.2183 4.64432 72.175 5.69092C73.1316 6.73753 73.6141 8.13573 73.6141 9.88553V18.5037H70.0082V10.139C70.0082 9.29681 69.8038 8.65086 69.3949 8.18479C68.9861 7.71872 68.4056 7.4816 67.6615 7.4816C66.8438 7.4816 66.1979 7.75143 65.7482 8.29109C65.2903 8.83074 65.0613 9.6157 65.0613 10.6378V18.4955H61.4554V10.1308C61.4554 9.28864 61.251 8.64268 60.8422 8.17662C60.4334 7.71055 59.8528 7.47343 59.1088 7.47343C58.3074 7.47343 57.6697 7.74325 57.1954 8.28291C56.7212 8.82257 56.4841 9.60752 56.4841 10.6296V18.4873H52.8782V4.51349H56.4841V5.99346C57.3263 4.74244 58.6182 4.12101 60.3761 4.12101C62.1341 4.12101 63.3606 4.7915 64.1783 6.13246C65.1104 4.7915 66.5004 4.12101 68.3483 4.12101H68.332Z" fill="#104584"/>
<path d="M87.2117 16.7539C85.7726 18.1848 84.0228 18.8962 81.9542 18.8962C79.8855 18.8962 78.1357 18.1848 76.7048 16.7539C75.282 15.3312 74.5625 13.5814 74.5625 11.5045C74.5625 9.42764 75.2739 7.68602 76.7048 6.25511C78.1357 4.83238 79.8773 4.11284 81.9542 4.11284C84.031 4.11284 85.7808 4.8242 87.2117 6.25511C88.6508 7.68602 89.3622 9.42764 89.3622 11.5045C89.3622 13.5814 88.6426 15.323 87.2117 16.7539ZM79.2477 14.2764C79.9672 15.0041 80.8667 15.3639 81.946 15.3639C83.0253 15.3639 83.9329 15.0041 84.6606 14.2764C85.3883 13.5487 85.7481 12.6247 85.7481 11.5045C85.7481 10.3843 85.3883 9.46034 84.6606 8.73263C83.9329 8.00491 83.0253 7.64514 81.946 7.64514C80.8667 7.64514 79.9672 8.01308 79.2477 8.73263C78.5282 9.46034 78.1684 10.3843 78.1684 11.5045C78.1684 12.6247 78.5282 13.5487 79.2477 14.2764Z" fill="#104584"/>
<path d="M99.7384 4.51349H103.344V18.5037H99.7384V16.9338C98.8635 18.242 97.4735 18.8962 95.5683 18.8962C94.0393 18.8962 92.7719 18.381 91.7744 17.359C90.7768 16.3287 90.2781 14.9141 90.2781 13.1071V4.51349H93.884V12.6574C93.884 13.5895 94.1374 14.3009 94.6362 14.7997C95.1432 15.2984 95.8136 15.5437 96.6477 15.5437C97.5798 15.5437 98.3239 15.2576 98.8881 14.677C99.4441 14.0965 99.7302 13.2298 99.7302 12.0769V4.51349H99.7384Z" fill="#104584"/>
<path d="M112.175 4.12101C113.704 4.12101 114.963 4.63614 115.969 5.65822C116.967 6.68847 117.465 8.10303 117.465 9.91006V18.4955H113.859V10.3516C113.859 9.41946 113.606 8.7081 113.107 8.20932C112.6 7.71872 111.93 7.46525 111.096 7.46525C110.164 7.46525 109.419 7.75143 108.855 8.33197C108.299 8.91251 108.013 9.77923 108.013 10.9321V18.4873H104.407V4.51349H108.013V6.0834C108.888 4.77514 110.278 4.12101 112.183 4.12101H112.175Z" fill="#104584"/>
<path d="M125.209 7.98038V4.50532H122.044V0.596893L118.447 1.68438V13.8021C118.447 15.7236 118.953 17.0646 119.967 17.8005C120.973 18.5527 122.723 18.7817 125.209 18.5037V15.233C124.514 15.2657 123.941 15.2657 123.475 15.2412C123.009 15.2167 122.657 15.0859 122.404 14.8651C122.167 14.6443 122.044 14.2764 122.044 13.794V7.98038H125.209Z" fill="#104584"/>
<path d="M57.8905 29.0842V25.6092H54.7261V21.6926L51.1284 22.7801V34.8978C51.1284 36.8193 51.6354 38.1603 52.6493 38.8962C53.655 39.6484 55.4048 39.8774 57.8905 39.5993V36.3287C57.1955 36.3614 56.6231 36.3614 56.157 36.3369C55.691 36.3123 55.3394 36.1815 55.0859 35.9608C54.8488 35.74 54.7261 35.372 54.7261 34.8896V29.076H57.8905V29.0842Z" fill="#104584"/>
<path d="M18.8226 34.0965C19.3051 35.8463 20.6215 36.7294 22.7638 36.7294C24.1456 36.7294 25.184 36.2633 25.8954 35.3312L28.8063 37.0074C27.4244 39.0025 25.3966 40 22.7065 40C20.3925 40 18.5365 39.2968 17.1383 37.8986C15.7401 36.5004 15.0369 34.7343 15.0369 32.6083C15.0369 30.4824 15.7237 28.7408 17.1055 27.3344C18.4874 25.928 20.2535 25.2249 22.4203 25.2249C24.4727 25.2249 26.1652 25.9362 27.498 27.3508C28.8308 28.7653 29.5013 30.5233 29.5013 32.6083C29.5013 33.0744 29.4522 33.5732 29.3623 34.0883H18.8145L18.8226 34.0965ZM18.7736 31.3001H25.9036C25.6992 30.3516 25.274 29.6402 24.628 29.1742C23.9821 28.7081 23.2544 28.471 22.4285 28.471C21.4555 28.471 20.6542 28.7163 20.0246 29.215C19.3868 29.7056 18.9698 30.4007 18.7654 31.3001H18.7736Z" fill="#104584"/>
<path d="M41.7825 25.6173H45.3884V39.6075H41.7825V37.9558C40.7032 39.3213 39.1823 40 37.2199 40C35.2575 40 33.7531 39.2886 32.4203 37.8577C31.0875 36.435 30.417 34.6852 30.417 32.6083C30.417 30.5315 31.0875 28.7899 32.4203 27.359C33.7531 25.9362 35.3557 25.2167 37.2199 25.2167C39.1823 25.2167 40.695 25.8953 41.7825 27.2608V25.6092V25.6173ZM35.1185 35.4538C35.8463 36.1897 36.7702 36.5576 37.8904 36.5576C39.0106 36.5576 39.9346 36.1897 40.6705 35.4538C41.4064 34.7179 41.7743 33.7694 41.7743 32.6165C41.7743 31.4636 41.4064 30.5151 40.6705 29.7792C39.9346 29.0433 39.0024 28.6754 37.8904 28.6754C36.7784 28.6754 35.8463 29.0433 35.1185 29.7792C34.3908 30.5151 34.0311 31.4636 34.0311 32.6165C34.0311 33.7694 34.3908 34.7179 35.1185 35.4538Z" fill="#104584"/>
<path d="M46.4187 39.6075V22.6492L50.0246 21.2183V39.5993H46.4187V39.6075Z" fill="#104584"/>
<path d="M66.852 25.2249C68.381 25.2249 69.6402 25.74 70.646 26.7621C71.6435 27.7923 72.1423 29.2069 72.1423 31.0139V39.5993H68.5364V31.4554C68.5364 30.5233 68.2829 29.8119 67.7841 29.3132C67.2772 28.8226 66.6067 28.5691 65.7727 28.5691C64.8406 28.5691 64.0965 28.8553 63.5323 29.4358C62.9763 30.0164 62.6901 30.8831 62.6901 32.036V39.5912H59.0842V21.2101H62.6901V27.1709C63.565 25.8626 64.955 25.2085 66.8602 25.2085L66.852 25.2249Z" fill="#104584"/>
<path d="M96.6885 32.5675L94.6117 29.6729L91.7907 25.7318H87.6207L92.5266 32.5756L87.3999 39.7138H91.57L94.6035 35.4702L97.637 39.7138H101.807L96.6885 32.5593V32.5675ZM101.578 25.7318H97.4408L94.9878 29.1496H98.0295C98.7245 29.1496 99.3786 28.8144 99.7875 28.2502L101.586 25.7318H101.578Z" fill="#3AB5FE"/>
<path d="M6.90106 0C8.68357 0 10.1799 0.596893 11.3982 1.79886C12.6165 3.00082 13.2216 4.46443 13.2216 6.21423C13.2216 7.96402 12.6165 9.42764 11.3982 10.6296C10.1799 11.8316 8.68357 12.4285 6.90106 12.4285H3.64677V18.5037H0V0H6.90106ZM6.90106 9.01063C7.67784 9.01063 8.31562 8.7408 8.83074 8.20115C9.3377 7.66149 9.59935 6.99918 9.59935 6.20605C9.59935 5.41292 9.34587 4.72608 8.83074 4.1946C8.31562 3.66312 7.67784 3.40147 6.90106 3.40147H3.64677V9.00245H6.90106V9.01063Z" fill="#104584"/>
<path d="M10.5233 20.5397H14.1455V39.0433H10.5233V31.3737H3.64677V39.0433H0V20.5397H3.64677V27.8904H10.5151V20.5397H10.5233Z" fill="#104584"/>
<path d="M83.4587 39.722L79.722 33.3034H76.9583V39.722H73.3115V21.2183H80.7114C82.4203 21.2183 83.8757 21.8152 85.0695 23.0172C86.2715 24.2191 86.8683 25.6582 86.8683 27.3508C86.8683 28.4955 86.5413 29.5585 85.8872 30.5397C85.233 31.5209 84.3745 32.2567 83.2952 32.7473L87.3916 39.722H83.4505H83.4587ZM76.9583 24.628V30.0981H80.7114C81.3982 30.0981 81.9869 29.8283 82.4775 29.2886C82.9681 28.7572 83.2134 28.103 83.2134 27.3426C83.2134 26.5822 82.9681 25.9444 82.4775 25.4129C81.9869 24.8814 81.3982 24.6198 80.7114 24.6198H76.9583V24.628Z" fill="#3AB5FE"/>
</g>
<defs>
<clipPath id="clip0_50759_25659">
<rect width="125.209" height="40" fill="white"/>
</clipPath>
</defs>
</svg>
