<svg width="1512" height="483" viewBox="0 0 1512 483" fill="none" xmlns="http://www.w3.org/2000/svg">
<g opacity="0.2">
<g clip-path="url(#clip0_52248_5947)">
<path d="M290.986 54.5043H334.53V223.448H290.986V203.502C277.952 219.992 259.586 228.187 235.889 228.187C212.191 228.187 194.023 219.597 177.929 202.317C161.834 185.137 153.738 164.006 153.738 138.927C153.738 113.847 161.834 92.8152 177.929 75.5358C194.023 58.3551 213.376 49.666 235.889 49.666C259.586 49.666 277.853 57.8614 290.986 74.3509V54.4055V54.5043ZM210.513 173.288C219.301 182.175 230.458 186.618 243.986 186.618C257.513 186.618 268.671 182.175 277.557 173.288C286.444 164.401 290.887 152.948 290.887 139.025C290.887 125.103 286.444 113.649 277.557 104.763C268.671 95.8762 257.414 91.4329 243.986 91.4329C230.557 91.4329 219.301 95.8762 210.513 104.763C201.725 113.649 197.381 125.103 197.381 139.025C197.381 152.948 201.725 164.401 210.513 173.288Z" fill="white"/>
<path d="M390.515 83.5338C394.564 72.7712 401.278 64.6745 410.658 59.2439C420.038 53.8132 430.406 51.1472 441.86 51.1472V99.8259C428.53 98.246 416.681 100.912 406.215 107.923C395.748 114.933 390.515 126.486 390.515 142.679V223.448H346.971V54.5044H390.515V83.5338Z" fill="white"/>
<path d="M582.366 54.5043H625.911V223.448H582.366V203.502C569.333 219.992 550.967 228.187 527.27 228.187C503.572 228.187 485.404 219.597 469.309 202.317C453.215 185.137 445.118 164.006 445.118 138.927C445.118 113.847 453.215 92.8152 469.309 75.5358C485.404 58.3551 504.757 49.666 527.27 49.666C550.967 49.666 569.234 57.8614 582.366 74.3509V54.4055V54.5043ZM501.992 173.288C510.78 182.175 521.938 186.618 535.465 186.618C548.992 186.618 560.15 182.175 569.036 173.288C577.923 164.401 582.366 152.948 582.366 139.025C582.366 125.103 577.923 113.649 569.036 104.763C560.15 95.8762 548.894 91.4329 535.465 91.4329C522.036 91.4329 510.78 95.8762 501.992 104.763C493.204 113.649 488.86 125.103 488.86 139.025C488.86 152.948 493.204 164.401 501.992 173.288Z" fill="white"/>
<path d="M825.167 49.7646C844.52 49.7646 860.022 56.084 871.575 68.7227C883.127 81.3613 888.953 98.2458 888.953 119.376V223.448H845.409V122.437C845.409 112.267 842.94 104.466 838.003 98.8382C833.066 93.2101 826.056 90.3466 817.07 90.3466C807.196 90.3466 799.396 93.605 793.965 100.122C788.436 106.639 785.671 116.118 785.671 128.46V223.349H742.127V122.338C742.127 112.168 739.659 104.368 734.722 98.7395C729.785 93.1113 722.774 90.2479 713.789 90.2479C704.112 90.2479 696.411 93.5063 690.684 100.023C684.957 106.54 682.093 116.019 682.093 128.361V223.25H638.549V54.5042H682.093V72.376C692.264 57.2689 707.864 49.7646 729.093 49.7646C750.322 49.7646 765.133 57.8613 775.007 74.0546C786.264 57.8613 803.049 49.7646 825.364 49.7646H825.167Z" fill="white"/>
<path d="M1053.16 202.317C1035.78 219.597 1014.65 228.187 989.667 228.187C964.686 228.187 943.556 219.597 926.276 202.317C909.096 185.137 900.407 164.006 900.407 138.927C900.407 113.847 908.997 92.8152 926.276 75.5358C943.556 58.3551 964.587 49.666 989.667 49.666C1014.75 49.666 1035.88 58.2564 1053.16 75.5358C1070.54 92.8152 1079.13 113.847 1079.13 138.927C1079.13 164.006 1070.44 185.038 1053.16 202.317ZM956.984 172.399C965.674 181.187 976.535 185.532 989.569 185.532C1002.6 185.532 1013.56 181.187 1022.35 172.399C1031.14 163.612 1035.48 152.454 1035.48 138.927C1035.48 125.399 1031.14 114.242 1022.35 105.454C1013.56 96.6661 1002.6 92.3215 989.569 92.3215C976.535 92.3215 965.674 96.7648 956.984 105.454C948.295 114.242 943.951 125.399 943.951 138.927C943.951 152.454 948.295 163.612 956.984 172.399Z" fill="white"/>
<path d="M1204.43 54.5044H1247.97V223.448H1204.43V204.49C1193.86 220.288 1177.08 228.187 1154.07 228.187C1135.6 228.187 1120.3 221.967 1108.25 209.624C1096.21 197.183 1090.18 180.101 1090.18 158.28V54.5044H1133.73V152.849C1133.73 164.105 1136.79 172.696 1142.81 178.719C1148.93 184.742 1157.03 187.704 1167.1 187.704C1178.36 187.704 1187.34 184.248 1194.16 177.238C1200.87 170.227 1204.33 159.761 1204.33 145.839V54.5044H1204.43Z" fill="white"/>
<path d="M1354.61 49.7646C1373.07 49.7646 1388.28 55.9852 1400.42 68.3277C1412.47 80.7689 1418.49 97.8508 1418.49 119.672V223.349H1374.95V125.004C1374.95 113.748 1371.89 105.158 1365.87 99.1345C1359.74 93.2101 1351.65 90.1492 1341.58 90.1492C1330.32 90.1492 1321.33 93.605 1314.52 100.616C1307.81 107.626 1304.35 118.092 1304.35 132.015V223.25H1260.81V54.5042H1304.35V73.4622C1314.92 57.6638 1331.7 49.7646 1354.71 49.7646H1354.61Z" fill="white"/>
<path d="M1512 96.3699V54.4056H1473.79V7.20801L1430.34 20.3404V166.673C1430.34 189.876 1436.46 206.07 1448.71 214.956C1460.85 224.04 1481.98 226.805 1512 223.448V183.952C1503.61 184.347 1496.7 184.347 1491.07 184.051C1485.44 183.754 1481.19 182.175 1478.13 179.509C1475.27 176.843 1473.79 172.399 1473.79 166.574V96.3699H1512Z" fill="white"/>
<path d="M699.077 351.217V309.253H660.864V261.956L617.419 275.089V421.421C617.419 444.625 623.541 460.818 635.784 469.704C647.929 478.788 669.06 481.553 699.077 478.196V438.7C690.684 439.095 683.772 439.095 678.144 438.799C672.516 438.503 668.27 436.923 665.209 434.257C662.345 431.591 660.864 427.148 660.864 421.322V351.118H699.077V351.217Z" fill="white"/>
<path d="M227.299 411.744C233.124 432.875 249.021 443.538 274.891 443.538C291.578 443.538 304.118 437.91 312.708 426.654L347.86 446.896C331.173 470.988 306.685 483.034 274.2 483.034C246.257 483.034 223.843 474.543 206.958 457.658C190.074 440.774 181.582 419.446 181.582 393.774C181.582 368.101 189.876 347.07 206.563 330.087C223.25 313.103 244.578 304.612 270.744 304.612C295.528 304.612 315.967 313.202 332.061 330.284C348.156 347.366 356.253 368.595 356.253 393.774C356.253 399.402 355.66 405.425 354.574 411.646H227.2L227.299 411.744ZM226.706 377.975H312.807C310.339 366.522 305.204 357.931 297.404 352.303C289.603 346.675 280.815 343.811 270.843 343.811C259.093 343.811 249.416 346.774 241.813 352.797C234.112 358.721 229.076 367.114 226.607 377.975H226.706Z" fill="white"/>
<path d="M504.559 309.351H548.104V478.295H504.559V458.349C491.526 474.839 473.16 483.034 449.463 483.034C425.765 483.034 407.597 474.444 391.503 457.164C375.408 439.984 367.311 418.853 367.311 393.774C367.311 368.694 375.408 347.662 391.503 330.383C407.597 313.202 426.95 304.513 449.463 304.513C473.16 304.513 491.427 312.708 504.559 329.198V309.252V309.351ZM424.087 428.135C432.875 437.022 444.032 441.465 457.559 441.465C471.087 441.465 482.244 437.022 491.131 428.135C500.018 419.248 504.461 407.795 504.461 393.872C504.461 379.95 500.018 368.496 491.131 359.61C482.244 350.723 470.988 346.28 457.559 346.28C444.131 346.28 432.875 350.723 424.087 359.61C415.299 368.496 410.954 379.95 410.954 393.872C410.954 407.795 415.299 419.248 424.087 428.135Z" fill="white"/>
<path d="M560.545 478.295V273.509L604.089 256.229V478.196H560.545V478.295Z" fill="white"/>
<path d="M807.295 304.612C825.76 304.612 840.965 310.832 853.11 323.175C865.157 335.616 871.18 352.698 871.18 374.519V478.196H827.636V379.851C827.636 368.595 824.575 360.005 818.552 353.982C812.43 348.057 804.333 344.996 794.262 344.996C783.005 344.996 774.02 348.452 767.207 355.463C760.493 362.473 757.037 372.94 757.037 386.862V478.097H713.493V256.131H757.037V328.112C767.602 312.313 784.388 304.414 807.394 304.414L807.295 304.612Z" fill="white"/>
<path d="M1167.6 393.28L1142.52 358.326L1108.45 310.734H1058.09L1117.34 393.379L1055.43 479.578H1105.79L1142.42 428.333L1179.05 479.578H1229.41L1167.6 393.181V393.28ZM1226.64 310.734H1176.68L1147.06 352.007H1183.79C1192.18 352.007 1200.08 347.958 1205.02 341.145L1226.74 310.734H1226.64Z" fill="white"/>
<path d="M83.3362 0C104.861 0 122.931 7.20799 137.643 21.7227C152.355 36.2374 159.662 53.9118 159.662 75.0421C159.662 96.1724 152.355 113.847 137.643 128.362C122.931 142.876 104.861 150.084 83.3362 150.084H44.0379V223.448H0V0H83.3362ZM83.3362 108.811C92.7165 108.811 100.418 105.553 106.639 99.0358C112.761 92.519 115.92 84.5211 115.92 74.9434C115.92 65.3656 112.859 57.0715 106.639 50.6534C100.418 44.2354 92.7165 41.0757 83.3362 41.0757H44.0379V108.712H83.3362V108.811Z" fill="white"/>
<path d="M127.078 248.034H170.82V471.482H127.078V378.864H44.0379V471.482H-3.15495e-07V248.034H44.0379V336.801H126.979V248.034H127.078Z" fill="white"/>
<path d="M1007.84 479.677L962.711 402.166H929.337V479.677H885.299V256.229H974.659C995.295 256.229 1012.87 263.437 1027.29 277.952C1041.8 292.467 1049.01 309.845 1049.01 330.284C1049.01 344.108 1045.06 356.944 1037.16 368.792C1029.26 380.641 1018.89 389.528 1005.86 395.452L1055.33 479.677H1007.74H1007.84ZM929.337 297.404V363.46H974.659C982.953 363.46 990.062 360.202 995.987 353.685C1001.91 347.267 1004.87 339.368 1004.87 330.185C1004.87 321.002 1001.91 313.301 995.987 306.883C990.062 300.465 982.953 297.305 974.659 297.305H929.337V297.404Z" fill="white"/>
</g>
</g>
<defs>
<clipPath id="clip0_52248_5947">
<rect width="1512" height="483.034" fill="white"/>
</clipPath>
</defs>
</svg>
