<svg width="1336" height="150" viewBox="0 0 1336 150" fill="none" xmlns="http://www.w3.org/2000/svg">
<g clip-path="url(#clip0_1_344)">
<path fill-rule="evenodd" clip-rule="evenodd" d="M126.613 0C127.109 0 127.605 0.0062116 128.099 0.0185547L128.794 0.0400391C143.386 0.576409 157.026 6.49051 167.407 16.832C189.9 39.2396 189.9 75.7018 167.407 98.1094C160.369 105.121 148.418 116.947 131.888 133.254C121.244 143.754 107.133 149.537 92.1523 149.537C77.1717 149.537 63.0612 143.754 52.417 133.254C35.8728 116.934 23.9218 105.108 16.8965 98.1094C5.99988 87.2542 1.89013e-05 72.8223 0 57.4707C1.07495e-05 42.1191 5.99991 27.6872 16.8965 16.832C27.7931 5.97697 42.2802 0 57.6904 0C70.0869 3.05765e-05 81.8882 3.86953 91.7021 11.0352C91.8525 11.145 92.0029 11.2558 92.1523 11.3672C102.054 3.98945 114.027 0.000115994 126.613 0ZM126.613 17.8379C116.362 17.838 106.7 21.6772 99.2852 28.6709C99.0174 28.9234 98.753 29.1807 98.4912 29.4414L81.6299 46.2393L68.3447 59.4199C65.7527 62.0021 65.7528 66.204 68.3447 68.7861C70.9368 71.3681 75.1551 71.3682 77.7471 68.7861L91.0205 55.5771L91.0117 55.5684L104.896 41.7373C105.265 41.3688 105.644 41.0129 106.03 40.6709C116.386 31.4955 132.308 31.8531 142.232 41.7373C152.526 51.9923 152.526 68.6766 142.232 78.9316L107.611 113.421C99.461 121.54 88.3575 126.889 76.6348 128.455C81.4652 130.571 86.724 131.693 92.1523 131.693C102.382 131.693 112.019 127.747 119.285 120.576C135.796 104.289 147.726 92.486 154.744 85.4941C170.254 70.0433 170.254 44.8973 154.744 29.4463C147.229 21.9602 137.235 17.8379 126.613 17.8379ZM57.6904 17.8408C47.0641 17.8408 37.0752 21.9645 29.5605 29.4482C22.0461 36.9343 17.9082 46.8849 17.9082 57.4707C17.9082 68.0565 22.048 78.0091 29.5625 85.4951C33.3807 89.2966 38.6719 94.5457 45.3604 101.16L45.4756 101.046C54.4188 109.955 64.4676 111.4 71.3223 111.049C80.2677 110.588 88.8815 106.855 94.9521 100.808L129.572 66.3184C132.883 63.0199 132.883 57.652 129.572 54.3535C126.261 51.0553 120.874 51.0552 117.562 54.3535L103.688 68.1738L103.656 68.1416C99.4043 72.3741 95.3148 76.8802 90.8203 80.8594C81.2134 89.3718 66.4413 89.0407 57.2344 79.8711C47.6841 70.3569 47.6841 54.8784 57.2344 45.3643L78.7773 23.8613C72.5141 19.9452 65.267 17.8408 57.6904 17.8408Z" fill="url(#paint0_linear_1_344)"/>
<path d="M300.145 25.9229C313.113 25.9229 322.84 32.6664 324.137 33.5742C325.174 34.2226 326.211 36.0383 324.915 37.9834C323.878 39.5396 322.71 41.3559 321.673 42.9121C320.635 44.5978 318.949 45.3757 317.134 44.209C316.226 43.6902 307.148 37.7246 299.626 37.7246C288.733 37.7246 284.972 44.5972 284.972 49.3955C284.972 56.7875 290.678 61.3271 301.441 65.7363C316.485 71.8315 329.324 78.9639 329.324 94.7852C329.324 108.272 317.263 119.296 300.404 119.296C284.583 119.296 274.596 110.996 272.521 109.051C271.354 108.013 270.447 107.106 271.744 104.901C272.911 103.216 273.948 101.27 275.115 99.584C276.282 97.8981 278.098 97.3798 279.524 98.5469C280.303 99.1953 290.289 107.495 300.274 107.495C309.223 107.495 314.929 102.048 314.929 95.4336C314.928 87.6528 308.185 82.7251 295.347 77.4082C282.119 71.8318 271.744 64.9582 271.744 49.915C271.744 39.7997 279.525 25.923 300.145 25.9229Z" fill="url(#paint1_linear_1_344)"/>
<path d="M384.568 27.2197C386.254 27.2197 387.681 28.6462 387.681 30.332V66.2549L424.252 28.5166C424.771 27.8682 425.678 27.2198 426.716 27.2197H436.442C438.777 27.2197 440.073 29.9434 438.258 31.8887L400.779 70.0156L440.463 113.72C441.5 115.017 440.851 117.999 438.128 117.999H427.754C426.457 117.999 425.678 117.481 425.419 117.092L387.681 74.5547V114.887C387.681 116.573 386.254 117.999 384.568 117.999H377.047C375.231 117.999 373.935 116.573 373.935 114.887V30.332C373.935 28.6462 375.231 27.2197 377.047 27.2197H384.568Z" fill="url(#paint2_linear_1_344)"/>
<path d="M482.173 27.2197C483.21 27.2199 483.858 27.8681 484.247 28.3867L507.721 61.457L531.193 28.3867C531.582 27.868 532.361 27.2197 533.269 27.2197H542.995C545.07 27.2201 546.107 29.2947 545.069 30.9805L514.334 74.166V115.535C514.334 116.832 513.167 117.999 511.87 117.999H503.312C501.885 117.999 500.847 116.832 500.847 115.535V74.2959L470.501 30.9805C469.464 29.2946 470.501 27.2197 472.576 27.2197H482.173Z" fill="url(#paint3_linear_1_344)"/>
<path d="M638.586 27.2197C640.012 27.22 641.05 28.387 641.05 29.6836V36.9463C641.05 38.243 640.012 39.4099 638.586 39.4102H597.605V65.8662H632.23C633.527 65.8662 634.695 67.0332 634.695 68.3301V75.5928C634.695 77.0191 633.527 78.0566 632.23 78.0566H597.605V105.938H638.586C640.012 105.939 641.05 107.106 641.05 108.402V115.535C641.05 116.832 640.012 117.999 638.586 117.999H586.712C585.285 117.999 584.247 116.832 584.247 115.535V29.6836C584.247 28.3869 585.285 27.2197 586.712 27.2197H638.586Z" fill="url(#paint4_linear_1_344)"/>
<path d="M753.532 27.2197C754.959 27.2197 755.997 28.3869 755.997 29.6836V65.8662H803.461V29.6836C803.461 28.3869 804.499 27.2197 805.926 27.2197H814.484C815.781 27.2197 816.948 28.3869 816.948 29.6836V115.535C816.948 116.832 815.781 117.999 814.484 117.999H805.926C804.499 117.999 803.461 116.832 803.461 115.535V78.0566H755.997V115.535C755.997 116.832 754.959 117.999 753.532 117.999H744.974C743.677 117.999 742.51 116.832 742.51 115.535V29.6836C742.51 28.3869 743.677 27.2197 744.974 27.2197H753.532Z" fill="url(#paint5_linear_1_344)"/>
<path d="M923.091 27.2197C924.517 27.22 925.555 28.387 925.555 29.6836V36.9463C925.555 38.243 924.517 39.4099 923.091 39.4102H882.11V65.8662H916.736C918.033 65.8665 919.2 67.0334 919.2 68.3301V75.5928C919.2 77.0189 918.033 78.0564 916.736 78.0566H882.11V105.938H923.091C924.517 105.939 925.555 107.106 925.555 108.402V115.535C925.555 116.832 924.517 117.999 923.091 117.999H871.217C869.79 117.999 868.753 116.832 868.753 115.535V29.6836C868.753 28.3869 869.79 27.2197 871.217 27.2197H923.091Z" fill="url(#paint6_linear_1_344)"/>
<path fill-rule="evenodd" clip-rule="evenodd" d="M1002.94 25.9229C1003.59 25.9229 1004.76 26.5715 1005.15 27.3496L1044.7 114.627C1045.48 116.313 1044.44 117.999 1042.5 117.999H1034.33C1032.77 117.999 1031.86 117.221 1031.34 116.054L1023.3 98.2871H980.897C978.304 104.253 975.58 110.088 972.986 116.054C972.597 116.961 971.56 117.999 970.004 117.999H961.834C959.889 117.999 958.851 116.313 959.629 114.627L999.442 27.3496C999.831 26.5717 1001 25.9231 1001.65 25.9229H1002.94ZM985.955 87.1338H1018.38L1002.42 51.6006H1001.78L985.955 87.1338Z" fill="url(#paint7_linear_1_344)"/>
<path d="M1095.41 27.2197C1096.7 27.2199 1097.87 28.3869 1097.87 29.6836V105.938H1133.02C1134.44 105.939 1135.48 107.106 1135.48 108.402V115.535C1135.48 116.832 1134.44 117.999 1133.02 117.999H1086.85C1085.42 117.999 1084.38 116.832 1084.38 115.535V29.6836C1084.38 28.3869 1085.42 27.2198 1086.85 27.2197H1095.41Z" fill="url(#paint8_linear_1_344)"/>
<path d="M1217.43 27.2197C1218.86 27.22 1219.89 28.387 1219.89 29.6836V36.9463C1219.89 38.243 1218.86 39.4099 1217.43 39.4102H1196.29V115.535C1196.29 116.832 1195.12 117.999 1193.83 117.999H1185.27C1183.97 117.999 1182.8 116.832 1182.8 115.535V39.4102H1161.67C1160.24 39.4102 1159.2 38.2431 1159.2 36.9463V29.6836C1159.2 28.3869 1160.24 27.2197 1161.67 27.2197H1217.43Z" fill="url(#paint9_linear_1_344)"/>
<path d="M1271.65 27.2197C1273.08 27.2197 1274.12 28.3869 1274.12 29.6836V65.8662H1321.58V29.6836C1321.58 28.387 1322.62 27.2199 1324.05 27.2197H1332.61C1333.9 27.2197 1335.07 28.3869 1335.07 29.6836V115.535C1335.07 116.832 1333.9 117.999 1332.61 117.999H1324.05C1322.62 117.999 1321.58 116.832 1321.58 115.535V78.0566H1274.12V115.535C1274.12 116.832 1273.08 117.999 1271.65 117.999H1263.09C1261.8 117.999 1260.63 116.832 1260.63 115.535V29.6836C1260.63 28.3869 1261.8 27.2197 1263.09 27.2197H1271.65Z" fill="url(#paint10_linear_1_344)"/>
</g>
<defs>
<linearGradient id="paint0_linear_1_344" x1="1352" y1="36.4992" x2="15.9999" y2="114.499" gradientUnits="userSpaceOnUse">
<stop stop-color="#08387A"/>
<stop offset="1" stop-color="#06224C"/>
</linearGradient>
<linearGradient id="paint1_linear_1_344" x1="1352" y1="36.4991" x2="16.0001" y2="114.499" gradientUnits="userSpaceOnUse">
<stop stop-color="#08387A"/>
<stop offset="1" stop-color="#06224C"/>
</linearGradient>
<linearGradient id="paint2_linear_1_344" x1="1352" y1="36.4992" x2="16" y2="114.499" gradientUnits="userSpaceOnUse">
<stop stop-color="#08387A"/>
<stop offset="1" stop-color="#06224C"/>
</linearGradient>
<linearGradient id="paint3_linear_1_344" x1="1352" y1="36.4992" x2="16.0002" y2="114.499" gradientUnits="userSpaceOnUse">
<stop stop-color="#08387A"/>
<stop offset="1" stop-color="#06224C"/>
</linearGradient>
<linearGradient id="paint4_linear_1_344" x1="1352" y1="36.4992" x2="16.0003" y2="114.499" gradientUnits="userSpaceOnUse">
<stop stop-color="#08387A"/>
<stop offset="1" stop-color="#06224C"/>
</linearGradient>
<linearGradient id="paint5_linear_1_344" x1="1352" y1="36.4993" x2="15.9999" y2="114.499" gradientUnits="userSpaceOnUse">
<stop stop-color="#08387A"/>
<stop offset="1" stop-color="#06224C"/>
</linearGradient>
<linearGradient id="paint6_linear_1_344" x1="1352" y1="36.4992" x2="15.9999" y2="114.499" gradientUnits="userSpaceOnUse">
<stop stop-color="#08387A"/>
<stop offset="1" stop-color="#06224C"/>
</linearGradient>
<linearGradient id="paint7_linear_1_344" x1="1352" y1="36.4991" x2="16.0006" y2="114.499" gradientUnits="userSpaceOnUse">
<stop stop-color="#08387A"/>
<stop offset="1" stop-color="#06224C"/>
</linearGradient>
<linearGradient id="paint8_linear_1_344" x1="1352" y1="36.4992" x2="16.0003" y2="114.499" gradientUnits="userSpaceOnUse">
<stop stop-color="#08387A"/>
<stop offset="1" stop-color="#06224C"/>
</linearGradient>
<linearGradient id="paint9_linear_1_344" x1="1352" y1="36.4992" x2="15.999" y2="114.499" gradientUnits="userSpaceOnUse">
<stop stop-color="#08387A"/>
<stop offset="1" stop-color="#06224C"/>
</linearGradient>
<linearGradient id="paint10_linear_1_344" x1="1352" y1="36.4992" x2="16.0008" y2="114.499" gradientUnits="userSpaceOnUse">
<stop stop-color="#08387A"/>
<stop offset="1" stop-color="#06224C"/>
</linearGradient>
<clipPath id="clip0_1_344">
<rect width="1336" height="150" fill="white"/>
</clipPath>
</defs>
</svg>
