<svg width="42" height="42" viewBox="0 0 42 42" fill="none" xmlns="http://www.w3.org/2000/svg">
<path d="M0 21C0 3.7065 3.7065 0 21 0C38.2935 0 42 3.7065 42 21C42 38.2935 38.2935 42 21 42C3.7065 42 0 38.2935 0 21Z" fill="#104584"/>
<path d="M28.6067 14.0293C27.5374 12.1338 25.156 11.4728 23.2884 12.5764L14.8135 17.5841C12.9546 18.6825 12.3284 21.1023 13.3931 22.9897C14.0357 24.1289 15.1523 24.823 16.3482 24.9545C16.6913 24.9923 17.0001 24.7447 17.0378 24.4016C17.0755 24.0585 16.828 23.7498 16.4849 23.712C15.68 23.6235 14.9223 23.1565 14.4818 22.3755C13.745 21.0694 14.1878 19.4057 15.4494 18.6603L19.1495 16.4739L20.0456 17.9853C20.2216 18.2823 20.605 18.3803 20.9019 18.2042C21.1989 18.0282 21.2969 17.6448 21.1208 17.3479L20.2257 15.838L23.9243 13.6525C25.177 12.9123 26.7857 13.3455 27.518 14.6435C28.1082 15.6899 27.9423 16.9723 27.1965 17.8231C26.969 18.0827 26.995 18.4776 27.2546 18.7051C27.5142 18.9326 27.909 18.9067 28.1366 18.6471C29.2242 17.4063 29.4637 15.5486 28.6067 14.0293Z" fill="white"/>
<path fill-rule="evenodd" clip-rule="evenodd" d="M28.3691 21.52C26.8158 18.8296 23.3756 17.9078 20.6852 19.4611C17.9948 21.0144 17.073 24.4546 18.6263 27.145C20.1796 29.8354 23.6198 30.7572 26.3102 29.2039C29.0006 27.6506 29.9224 24.2104 28.3691 21.52ZM21.3102 20.5436C23.2189 19.4416 25.6129 19.9414 26.9357 21.6259L19.4347 25.9566C18.6372 23.9688 19.4014 21.6457 21.3102 20.5436ZM20.0597 27.0391L27.5607 22.7084C28.3581 24.6962 27.5939 27.0193 25.6852 28.1214C23.7764 29.2234 21.3824 28.7236 20.0597 27.0391Z" fill="white"/>
</svg>
