<svg width="68" height="68" viewBox="0 0 68 68" fill="none" xmlns="http://www.w3.org/2000/svg">
<path d="M34 0.472656C52.5169 0.472656 67.5273 15.4831 67.5273 34C67.5273 52.5169 52.5169 67.5273 34 67.5273C15.4831 67.5273 0.472656 52.5169 0.472656 34C0.472656 15.4831 15.4831 0.472656 34 0.472656Z" fill="url(#paint0_linear_53276_11197)"/>
<path d="M34 0.472656C52.5169 0.472656 67.5273 15.4831 67.5273 34C67.5273 52.5169 52.5169 67.5273 34 67.5273C15.4831 67.5273 0.472656 52.5169 0.472656 34C0.472656 15.4831 15.4831 0.472656 34 0.472656Z" stroke="white" stroke-width="0.944444"/>
<path d="M23.2381 34.6964L32.1429 43.1964C32.6488 43.6518 33.4077 43.6518 33.8631 43.1458C34.3185 42.6399 34.3185 41.881 33.8125 41.4256L27.0833 35H44.2857C44.994 35 45.5 34.494 45.5 33.7857C45.5 33.128 44.994 32.5714 44.2857 32.5714H27.0833L33.8125 26.1964C34.3185 25.7411 34.3185 24.9315 33.8631 24.4762C33.4077 23.9702 32.5982 23.9702 32.1429 24.4256L23.2381 32.9256C22.9851 33.1786 22.8333 33.4821 22.8333 33.7857C22.8333 34.1399 22.9851 34.4435 23.2381 34.6964Z" fill="black"/>
<defs>
<linearGradient id="paint0_linear_53276_11197" x1="34" y1="0" x2="34" y2="68" gradientUnits="userSpaceOnUse">
<stop stop-color="white"/>
<stop offset="1" stop-color="#DADADA"/>
</linearGradient>
</defs>
</svg>
