<svg width="68" height="68" viewBox="0 0 68 68" fill="none" xmlns="http://www.w3.org/2000/svg">
<path d="M34 0.472656C52.5169 0.472656 67.5273 15.4831 67.5273 34C67.5273 52.5169 52.5169 67.5273 34 67.5273C15.4831 67.5273 0.472656 52.5169 0.472656 34C0.472656 15.4831 15.4831 0.472656 34 0.472656Z" fill="url(#paint0_linear_53166_53836)"/>
<path d="M34 0.472656C52.5169 0.472656 67.5273 15.4831 67.5273 34C67.5273 52.5169 52.5169 67.5273 34 67.5273C15.4831 67.5273 0.472656 52.5169 0.472656 34C0.472656 15.4831 15.4831 0.472656 34 0.472656Z" stroke="white" stroke-width="0.944444"/>
<path d="M44.9284 33.7963L36.0236 42.2963C35.5177 42.7516 34.7588 42.7516 34.3034 42.2457C33.8481 41.7397 33.8481 40.9808 34.354 40.5254L41.0832 34.0999H23.8808C23.1725 34.0999 22.6665 33.5939 22.6665 32.8856C22.6665 32.2278 23.1725 31.6713 23.8808 31.6713H41.0832L34.354 25.2963C33.8481 24.8409 33.8481 24.0314 34.3034 23.576C34.7588 23.0701 35.5683 23.0701 36.0236 23.5254L44.9284 32.0254C45.1814 32.2784 45.3332 32.582 45.3332 32.8856C45.3332 33.2397 45.1814 33.5433 44.9284 33.7963Z" fill="black"/>
<defs>
<linearGradient id="paint0_linear_53166_53836" x1="34" y1="0" x2="34" y2="68" gradientUnits="userSpaceOnUse">
<stop stop-color="white"/>
<stop offset="1" stop-color="#DADADA"/>
</linearGradient>
</defs>
</svg>
