<svg width="42" height="42" viewBox="0 0 42 42" fill="none" xmlns="http://www.w3.org/2000/svg">
<path d="M0 21C0 3.7065 3.7065 0 21 0C38.2935 0 42 3.7065 42 21C42 38.2935 38.2935 42 21 42C3.7065 42 0 38.2935 0 21Z" fill="#2C9C93"/>
<path fill-rule="evenodd" clip-rule="evenodd" d="M21.8848 15.3772C22.1607 15.4 22.3886 15.6016 22.445 15.8725L24.1164 23.8952L25.4229 20.7596C25.52 20.5267 25.7475 20.375 25.9998 20.375H29.3332C29.6783 20.375 29.9582 20.6548 29.9582 21C29.9582 21.3452 29.6783 21.625 29.3332 21.625H26.4165L24.4934 26.2404C24.388 26.4933 24.1302 26.6481 23.8574 26.6222C23.5846 26.5963 23.3605 26.3957 23.3046 26.1275L21.6514 18.1919L19.499 23.7265C19.4017 23.9767 19.1557 24.1368 18.8876 24.1243C18.6195 24.1119 18.3893 23.9298 18.3156 23.6717L17.1696 19.6607L16.585 21.2195C16.4936 21.4634 16.2604 21.625 15.9998 21.625H12.6665C12.3213 21.625 12.0415 21.3452 12.0415 21C12.0415 20.6548 12.3213 20.375 12.6665 20.375H15.5667L16.6646 17.4472C16.7594 17.1946 17.0054 17.0313 17.275 17.0422C17.5445 17.053 17.7767 17.2356 17.8508 17.495L19.0072 21.5424L21.2507 15.7735C21.351 15.5155 21.609 15.3543 21.8848 15.3772Z" fill="white"/>
</svg>
