<svg width="144" height="46" viewBox="0 0 144 46" fill="none" xmlns="http://www.w3.org/2000/svg">
<g clip-path="url(#clip0_1_7048)">
<path d="M27.7109 5.19049H31.8577V21.2792H27.7109V19.3798C26.4697 20.9501 24.7208 21.7306 22.464 21.7306C20.2073 21.7306 18.4771 20.9125 16.9444 19.2669C15.4117 17.6308 14.6406 15.6185 14.6406 13.2301C14.6406 10.8418 15.4117 8.83889 16.9444 7.19335C18.4771 5.55721 20.3201 4.72974 22.464 4.72974C24.7208 4.72974 26.4603 5.51019 27.7109 7.08051V5.18109V5.19049ZM20.0474 16.5024C20.8843 17.3487 21.9468 17.7718 23.2351 17.7718C24.5233 17.7718 25.5858 17.3487 26.4321 16.5024C27.2784 15.6561 27.7015 14.5654 27.7015 13.2395C27.7015 11.9137 27.2784 10.8229 26.4321 9.97667C25.5858 9.13039 24.5139 8.70725 23.2351 8.70725C21.9562 8.70725 20.8843 9.13039 20.0474 9.97667C19.2105 10.8229 18.7968 11.9137 18.7968 13.2395C18.7968 14.5654 19.2105 15.6561 20.0474 16.5024Z" fill="white"/>
<path d="M37.1893 7.95507C37.5748 6.93013 38.2142 6.15908 39.1075 5.6419C40.0008 5.12473 40.9881 4.87085 42.0789 4.87085V9.50658C40.8094 9.35613 39.6811 9.61002 38.6843 10.2776C37.6876 10.9453 37.1893 12.0454 37.1893 13.5875V21.2793H33.0425V5.19056H37.1893V7.95507Z" fill="white"/>
<path d="M55.4595 5.19049H59.6062V21.2792H55.4595V19.3798C54.2183 20.9501 52.4693 21.7306 50.2125 21.7306C47.9558 21.7306 46.2256 20.9125 44.6929 19.2669C43.1602 17.6308 42.3892 15.6185 42.3892 13.2301C42.3892 10.8418 43.1602 8.83889 44.6929 7.19335C46.2256 5.55721 48.0686 4.72974 50.2125 4.72974C52.4693 4.72974 54.2089 5.51019 55.4595 7.08051V5.18109V5.19049ZM47.8053 16.5024C48.6422 17.3487 49.7048 17.7718 50.993 17.7718C52.2812 17.7718 53.3438 17.3487 54.1901 16.5024C55.0363 15.6561 55.4595 14.5654 55.4595 13.2395C55.4595 11.9137 55.0363 10.8229 54.1901 9.97667C53.3438 9.13039 52.2718 8.70725 50.993 8.70725C49.7142 8.70725 48.6422 9.13039 47.8053 9.97667C46.9685 10.8229 46.5547 11.9137 46.5547 13.2395C46.5547 14.5654 46.9685 15.6561 47.8053 16.5024Z" fill="white"/>
<path d="M78.5818 4.73914C80.4248 4.73914 81.9011 5.34093 83.0013 6.54453C84.1014 7.74813 84.6562 9.35606 84.6562 11.3683V21.2792H80.5095V11.6598C80.5095 10.6913 80.2744 9.94846 79.8042 9.41248C79.3341 8.8765 78.6664 8.60381 77.8108 8.60381C76.8704 8.60381 76.1276 8.91412 75.6104 9.53472C75.0839 10.1553 74.8206 11.058 74.8206 12.2334V21.2698H70.6738V11.6504C70.6738 10.6819 70.4387 9.93905 69.9686 9.40308C69.4984 8.8671 68.8308 8.59441 67.9751 8.59441C67.0536 8.59441 66.3202 8.90471 65.7748 9.52532C65.2294 10.1459 64.9567 11.0486 64.9567 12.224V21.2604H60.8099V5.19048H64.9567V6.89245C65.9252 5.45377 67.4109 4.73914 69.4326 4.73914C71.4543 4.73914 72.8647 5.51019 73.805 7.0523C74.877 5.51019 76.4755 4.73914 78.6006 4.73914H78.5818Z" fill="white"/>
<path d="M100.294 19.2669C98.6386 20.9125 96.6263 21.7306 94.2474 21.7306C91.8684 21.7306 89.8561 20.9125 88.2106 19.2669C86.5744 17.6308 85.7469 15.6185 85.7469 13.2301C85.7469 10.8418 86.565 8.83889 88.2106 7.19335C89.8561 5.55721 91.859 4.72974 94.2474 4.72974C96.6357 4.72974 98.648 5.54781 100.294 7.19335C101.949 8.83889 102.767 10.8418 102.767 13.2301C102.767 15.6185 101.939 17.6214 100.294 19.2669ZM91.1349 16.4178C91.9624 17.2547 92.9967 17.6684 94.238 17.6684C95.4792 17.6684 96.5229 17.2547 97.3598 16.4178C98.1967 15.5809 98.6104 14.5184 98.6104 13.2301C98.6104 11.9419 98.1967 10.8794 97.3598 10.0425C96.5229 9.20562 95.4792 8.79188 94.238 8.79188C92.9967 8.79188 91.9624 9.21502 91.1349 10.0425C90.3075 10.8794 89.8937 11.9419 89.8937 13.2301C89.8937 14.5184 90.3075 15.5809 91.1349 16.4178Z" fill="white"/>
<path d="M114.699 5.19055H118.846V21.2793H114.699V19.4739C113.693 20.9784 112.094 21.7306 109.904 21.7306C108.145 21.7306 106.688 21.1382 105.54 19.9628C104.393 18.778 103.82 17.1513 103.82 15.0732V5.19055H107.966V14.556C107.966 15.628 108.258 16.4461 108.832 17.0197C109.415 17.5933 110.186 17.8753 111.145 17.8753C112.217 17.8753 113.072 17.5462 113.721 16.8786C114.361 16.211 114.69 15.2143 114.69 13.8884V5.19055H114.699Z" fill="white"/>
<path d="M129.001 4.73914C130.76 4.73914 132.208 5.33153 133.364 6.50692C134.511 7.69171 135.085 9.31845 135.085 11.3965V21.2698H130.938V11.9043C130.938 10.8323 130.647 10.0143 130.073 9.44069C129.49 8.8765 128.719 8.58501 127.76 8.58501C126.688 8.58501 125.832 8.91411 125.184 9.58174C124.544 10.2494 124.215 11.2461 124.215 12.5719V21.2604H120.068V5.19048H124.215V6.99588C125.221 5.49138 126.82 4.73914 129.011 4.73914H129.001Z" fill="white"/>
<path d="M143.99 9.17741V5.18109H140.351V0.686401L136.213 1.93701V15.8724C136.213 18.0822 136.796 19.6243 137.962 20.4705C139.119 21.3356 141.131 21.5989 143.99 21.2792V17.518C143.19 17.5556 142.532 17.5556 141.996 17.5274C141.46 17.4992 141.056 17.3487 140.764 17.0948C140.492 16.8409 140.351 16.4178 140.351 15.863V9.17741H143.99Z" fill="white"/>
<path d="M66.574 33.4468V29.4505H62.935V24.9464L58.7976 26.197V40.1324C58.7976 42.3422 59.3806 43.8843 60.5466 44.7306C61.7032 45.5956 63.7154 45.8589 66.574 45.5392V41.778C65.7747 41.8156 65.1165 41.8156 64.5805 41.7874C64.0445 41.7592 63.6402 41.6087 63.3487 41.3548C63.076 41.101 62.935 40.6778 62.935 40.123V33.4374H66.574V33.4468Z" fill="white"/>
<path d="M21.646 39.2109C22.2008 41.2232 23.7147 42.2387 26.1783 42.2387C27.7674 42.2387 28.9616 41.7027 29.7797 40.6308L33.1272 42.5584C31.5381 44.8528 29.2061 46 26.1125 46C23.4514 46 21.3169 45.1913 19.709 43.5834C18.101 41.9754 17.2924 39.9444 17.2924 37.4996C17.2924 35.0547 18.0822 33.0519 19.6713 31.4345C21.2605 29.8172 23.2915 29.0085 25.7834 29.0085C28.1435 29.0085 30.09 29.8266 31.6227 31.4534C33.1554 33.0801 33.9265 35.1018 33.9265 37.4996C33.9265 38.0355 33.87 38.6091 33.7666 39.2015H21.6366L21.646 39.2109ZM21.5896 35.9951H29.7891C29.554 34.9043 29.0651 34.0862 28.3222 33.5502C27.5794 33.0143 26.7425 32.7416 25.7928 32.7416C24.6738 32.7416 23.7523 33.0237 23.0283 33.5973C22.2948 34.1614 21.8153 34.9607 21.5802 35.9951H21.5896Z" fill="white"/>
<path d="M48.0499 29.4599H52.1967V45.5486H48.0499V43.6492C46.8087 45.2195 45.0597 46 42.803 46C40.5463 46 38.8161 45.1819 37.2834 43.5363C35.7507 41.9002 34.9796 39.8879 34.9796 37.4996C34.9796 35.1112 35.7507 33.1083 37.2834 31.4628C38.8161 29.8266 40.6591 28.9991 42.803 28.9991C45.0597 28.9991 46.7993 29.7796 48.0499 31.3499V29.4505V29.4599ZM40.3864 40.7718C41.2233 41.6181 42.2858 42.0413 43.5741 42.0413C44.8623 42.0413 45.9248 41.6181 46.7711 40.7718C47.6174 39.9256 48.0405 38.8348 48.0405 37.509C48.0405 36.1831 47.6174 35.0924 46.7711 34.2461C45.9248 33.3998 44.8529 32.9767 43.5741 32.9767C42.2952 32.9767 41.2233 33.3998 40.3864 34.2461C39.5495 35.0924 39.1358 36.1831 39.1358 37.509C39.1358 38.8348 39.5495 39.9256 40.3864 40.7718Z" fill="white"/>
<path d="M53.3815 45.5487V26.0467L57.5282 24.4011V45.5393H53.3815V45.5487Z" fill="white"/>
<path d="M76.8799 29.0085C78.6382 29.0085 80.0863 29.6009 81.2429 30.7763C82.3901 31.9611 82.9637 33.5878 82.9637 35.6659V45.5392H78.8169V36.1737C78.8169 35.1017 78.5254 34.2837 77.9518 33.7101C77.3688 33.1459 76.5978 32.8544 75.6386 32.8544C74.5667 32.8544 73.711 33.1835 73.0622 33.8511C72.4228 34.5187 72.0937 35.5155 72.0937 36.8413V45.5298H67.9469V24.3916H72.0937V31.2465C73.0998 29.742 74.6983 28.9897 76.8892 28.9897L76.8799 29.0085Z" fill="white"/>
<path d="M111.192 37.4526L108.803 34.1239L105.559 29.5916H100.764L106.406 37.462L100.51 45.6709H105.305L108.794 40.7907L112.282 45.6709H117.078L111.192 37.4431V37.4526ZM116.815 29.5916H112.057L109.236 33.5221H112.734C113.533 33.5221 114.285 33.1365 114.755 32.4877L116.824 29.5916H116.815Z" fill="white"/>
<path d="M7.93622 0C9.9861 0 11.7069 0.686427 13.1079 2.06868C14.509 3.45094 15.2048 5.1341 15.2048 7.14636C15.2048 9.15863 14.509 10.8418 13.1079 12.224C11.7069 13.6063 9.9861 14.2927 7.93622 14.2927H4.19379V21.2792H0V0H7.93622ZM7.93622 10.3622C8.82952 10.3622 9.56296 10.0519 10.1554 9.43132C10.7383 8.81071 11.0392 8.04906 11.0392 7.13696C11.0392 6.22486 10.7478 5.435 10.1554 4.82379C9.56296 4.21259 8.82952 3.91169 7.93622 3.91169H4.19379V10.3528H7.93622V10.3622Z" fill="white"/>
<path d="M12.1018 23.6206H16.2674V44.8998H12.1018V36.0797H4.19379V44.8998H0V23.6206H4.19379V32.074H12.0924V23.6206H12.1018Z" fill="white"/>
<path d="M95.9775 45.6804L91.6803 38.2989H88.502V45.6804H84.3082V24.4011H92.818C94.7833 24.4011 96.457 25.0875 97.8299 26.4698C99.2121 27.8521 99.8986 29.507 99.8986 31.4535C99.8986 32.7699 99.5225 33.9923 98.7702 35.1207C98.018 36.249 97.0306 37.0953 95.7894 37.6595L100.5 45.6804H95.9681H95.9775ZM88.502 28.3222V34.6129H92.818C93.6079 34.6129 94.2849 34.3026 94.8491 33.682C95.4133 33.0708 95.6954 32.3185 95.6954 31.444C95.6954 30.5696 95.4133 29.8361 94.8491 29.2249C94.2849 28.6137 93.6079 28.3128 92.818 28.3128H88.502V28.3222Z" fill="white"/>
</g>
<defs>
<clipPath id="clip0_1_7048">
<rect width="143.99" height="46" fill="white"/>
</clipPath>
</defs>
</svg>
