<svg width="42" height="42" viewBox="0 0 42 42" fill="none" xmlns="http://www.w3.org/2000/svg">
<path d="M0 21C0 3.7065 3.7065 0 21 0C38.2935 0 42 3.7065 42 21C42 38.2935 38.2935 42 21 42C3.7065 42 0 38.2935 0 21Z" fill="#3AB5FE"/>
<path fill-rule="evenodd" clip-rule="evenodd" d="M20.9083 29.6968C20.8674 29.6397 20.8359 29.5754 20.816 29.5062L18.4674 22.4601C18.0925 22.4623 17.7576 22.4676 17.4585 22.4803V29.3335C17.4585 29.3767 17.4541 29.4188 17.4458 29.4595C17.3875 29.7442 17.1354 29.9585 16.8335 29.9585L16.8298 29.9585C16.0005 29.9585 15.5437 29.9583 15.1235 29.7844C14.566 29.5535 14.1135 29.101 13.8826 28.5435C13.7085 28.1227 13.7085 27.6653 13.7085 26.8337C13.7085 24.3871 13.7085 23.0385 14.6243 22.1235C15.4811 21.266 16.7191 21.2122 18.885 21.2088C18.9061 21.2077 18.927 21.2077 18.9479 21.2087C19.0733 21.2085 19.2018 21.2085 19.3335 21.2085H22.6668C25.1135 21.2085 26.4618 21.2086 27.3768 22.1244C28.2918 23.0386 28.2918 24.3869 28.2918 26.8335V29.3335C28.2918 29.6785 28.0118 29.9585 27.6668 29.9585C27.3218 29.9585 27.0418 29.6785 27.0418 29.3335V26.8335C27.0418 24.652 27.0418 23.5569 26.4927 23.0085C25.9435 22.4585 24.8485 22.4585 22.6668 22.4585H19.7846L21.0346 26.2085H23.0835C24.1177 26.2085 24.9585 27.0494 24.9585 28.0835C24.9585 29.1177 24.1177 29.9585 23.0835 29.9585H21.4212L21.4176 29.9585C21.41 29.9585 21.4015 29.9584 21.3939 29.9581C21.2458 29.9528 21.1108 29.8958 21.0063 29.8047C20.9698 29.773 20.9369 29.7369 20.9083 29.6968ZM21.4513 27.4585L21.8679 28.7085H23.0835C23.4285 28.7085 23.7085 28.4285 23.7085 28.0835C23.7085 27.7385 23.4285 27.4585 23.0835 27.4585H21.4513ZM16.2085 22.6344V28.7046C15.9144 28.6978 15.7224 28.6794 15.6018 28.6294C15.3485 28.5244 15.1427 28.3185 15.0377 28.0652C14.9585 27.8744 14.9585 27.5044 14.9585 26.8335C14.9585 24.6519 14.9585 23.5569 15.5085 23.0077C15.6817 22.8343 15.9093 22.7156 16.2085 22.6344Z" fill="white"/>
<path fill-rule="evenodd" clip-rule="evenodd" d="M17.4585 16.4169C17.4585 18.3694 19.0477 19.9585 21.0002 19.9585C22.9527 19.9585 24.5418 18.3694 24.5418 16.4169V15.5835C24.5418 13.631 22.9527 12.0419 21.0002 12.0419C19.0477 12.0419 17.4585 13.631 17.4585 15.5835V16.4169ZM18.7085 15.5835C18.7085 14.3202 19.7368 13.2919 21.0002 13.2919C22.2635 13.2919 23.2918 14.3202 23.2918 15.5835V16.4169C23.2918 17.6802 22.2635 18.7085 21.0002 18.7085C19.7368 18.7085 18.7085 17.6802 18.7085 16.4169V15.5835Z" fill="white"/>
</svg>
