<svg width="22" height="18" viewBox="0 0 22 18" fill="none" xmlns="http://www.w3.org/2000/svg">
<path fill-rule="evenodd" clip-rule="evenodd" d="M15.1158 0C15.175 0 15.2341 0.000747699 15.2931 0.00223345L15.3761 0.00481956C17.1182 0.0693832 18.7466 0.781273 19.986 2.0261C22.6713 4.72333 22.6713 9.11234 19.986 11.8096C19.1457 12.6536 17.719 14.0771 15.7455 16.04C14.4747 17.3039 12.7901 18 11.0016 18C9.21317 18 7.52858 17.3039 6.25782 16.04C4.28269 14.0755 2.85591 12.652 2.01719 11.8096C0.716298 10.5029 2.25654e-06 8.76573 0 6.91783C1.28333e-06 5.06994 0.716302 3.33275 2.01719 2.0261C3.31809 0.719456 5.04764 0 6.8874 0C8.36735 3.68054e-06 9.77626 0.465781 10.9479 1.32832C10.9659 1.34153 10.9838 1.35488 11.0016 1.36828C12.1838 0.480216 13.6132 1.39624e-05 15.1158 0ZM15.1158 2.14717C13.8919 2.14719 12.7384 2.60932 11.8532 3.45116C11.8212 3.48156 11.7897 3.51252 11.7584 3.54391L9.74542 5.56589L8.15936 7.15246C7.84992 7.46328 7.84992 7.96907 8.15936 8.27989C8.46881 8.59068 8.97242 8.59069 9.28187 8.27989L10.8665 6.6899L10.8655 6.68884L12.523 5.02398C12.5672 4.97962 12.6124 4.93678 12.6585 4.89562C13.8948 3.79115 15.7957 3.83421 16.9805 5.02398C18.2094 6.25839 18.2094 8.2667 16.9805 9.50112L12.8472 13.6526C11.8742 14.63 10.5486 15.2738 9.14907 15.4623C9.72575 15.717 10.3536 15.8521 11.0016 15.8521C12.2229 15.8521 13.3734 15.377 14.2409 14.5139C16.2121 12.5534 17.6363 11.1327 18.4742 10.2911C20.3258 8.43122 20.3258 5.40435 18.4742 3.54449C17.577 2.64338 16.3839 2.14717 15.1158 2.14717ZM6.8874 2.14753C5.61876 2.14753 4.42624 2.6439 3.5291 3.54473C2.63198 4.44584 2.13798 5.6436 2.13798 6.91783C2.13798 8.19206 2.63221 9.39007 3.52933 10.2912C3.98517 10.7488 4.61686 11.3806 5.41536 12.1768L5.42912 12.163C6.49681 13.2355 7.69649 13.4093 8.51484 13.3671C9.58279 13.3116 10.6112 12.8623 11.3359 12.1344L15.469 7.98284C15.8643 7.5858 15.8643 6.93965 15.469 6.54261C15.0737 6.1456 14.4305 6.14559 14.0352 6.54261L12.3789 8.20618L12.375 8.2023C11.8674 8.71177 11.3792 9.25419 10.8426 9.73316C9.6957 10.7578 7.93213 10.718 6.83295 9.6142C5.69278 8.46897 5.69278 6.60579 6.83295 5.46056L9.40487 2.87222C8.65712 2.40083 7.79193 2.14753 6.8874 2.14753Z" fill="#F5F8FE"/>
</svg>
