<svg width="51" height="42" viewBox="0 0 51 42" fill="none" xmlns="http://www.w3.org/2000/svg">
<path fill-rule="evenodd" clip-rule="evenodd" d="M35.0412 0C35.1785 0 35.3156 0.00174698 35.4523 0.00521586L35.6447 0.011143C39.6833 0.161793 43.4581 1.82306 46.3311 4.7277C52.5563 11.0213 52.5563 21.2621 46.3311 27.5556C44.3832 29.525 41.0758 32.8466 36.5008 37.4266C33.555 40.3757 29.6498 42 25.5038 42C21.3578 42 17.4527 40.3757 14.5068 37.4266C9.92806 32.8428 6.62053 29.5213 4.67625 27.5556C1.66053 24.5068 5.23107e-06 20.4534 0 16.1417C0 11.8299 1.66054 7.77657 4.67625 4.7277C7.69197 1.67884 11.7013 0 15.9662 0C19.397 9.76206e-07 22.6632 1.08678 25.3793 3.09941C25.4209 3.13025 25.4625 3.16131 25.5038 3.19258C28.2443 1.1204 31.5578 1.49624e-05 35.0412 0ZM35.0412 5.01007C32.204 5.01009 29.5301 6.08849 27.4779 8.05281C27.4038 8.12375 27.3305 8.1958 27.258 8.26903L22.5916 12.987L18.9148 16.6891C18.1974 17.4143 18.1974 18.5945 18.9148 19.3198C19.6321 20.045 20.7997 20.045 21.5171 19.3198L25.1907 15.6099L25.1881 15.6073L29.0306 11.7226C29.1329 11.6191 29.2378 11.5193 29.3447 11.4232C32.2106 8.8461 36.6173 8.94647 39.3639 11.7226C42.2128 14.6029 42.2128 19.289 39.3639 22.1693L29.7821 31.8563C27.5264 34.1368 24.4537 35.6388 21.2093 36.0788C22.5462 36.6731 24.0015 36.9885 25.5038 36.9885C28.335 36.9885 31.002 35.8798 33.0131 33.8659C37.5826 29.2914 40.884 25.9762 42.8265 24.0124C47.1189 19.6727 47.1189 12.6101 42.8265 8.27046C40.7467 6.16785 37.9809 5.01007 35.0412 5.01007ZM15.9662 5.01078C13.0253 5.01078 10.2609 6.16898 8.18114 8.27093C6.10139 10.3735 4.95628 13.1684 4.95628 16.1417C4.95629 19.1149 6.10191 21.9103 8.18161 24.0129C9.23834 25.0806 10.7028 26.5549 12.5539 28.4127L12.5858 28.3804C15.0609 30.8827 17.8418 31.2887 19.7389 31.1901C22.2146 31.0606 24.5985 30.0121 26.2786 28.3136L35.8602 18.6265C36.7765 17.7001 36.7765 16.1925 35.8602 15.2661C34.9438 14.3397 33.4525 14.3397 32.5362 15.2661L28.6965 19.1479L28.6876 19.1389C27.5108 20.3276 26.3791 21.5932 25.1352 22.7108C22.4764 25.1017 18.3881 25.0086 15.84 22.4332C13.1969 19.761 13.1969 15.4136 15.84 12.7414L21.802 6.70191C20.0686 5.60198 18.0631 5.01078 15.9662 5.01078Z" fill="#0F1D3A"/>
</svg>
