<svg width="190" height="22" viewBox="0 0 190 22" fill="none" xmlns="http://www.w3.org/2000/svg">
<path fill-rule="evenodd" clip-rule="evenodd" d="M18.0189 0C18.0895 0 18.16 0.000913855 18.2303 0.00272978L18.3293 0.00589057C20.406 0.0848017 22.3471 0.954889 23.8245 2.47634C27.0256 5.77295 27.0256 11.1373 23.8245 14.4339C22.8228 15.4655 21.1221 17.2054 18.7696 19.6044C17.2547 21.1492 15.2466 22 13.1146 22C10.9827 22 8.97453 21.1492 7.45971 19.6044C5.10523 17.2034 3.40442 15.4635 2.40462 14.4339C0.85387 12.8369 2.68993e-06 10.7137 0 8.45513C1.52981e-06 6.19659 0.853876 4.07336 2.40462 2.47634C3.95537 0.879336 6.01709 0 8.2102 0C9.97439 4.49844e-06 11.6539 0.569288 13.0506 1.6235C13.072 1.63965 13.0934 1.65597 13.1146 1.67235C14.5238 0.586931 16.2277 1.70651e-05 18.0189 0ZM18.0189 2.62432C16.56 2.62434 15.185 3.18917 14.1297 4.21808C14.0916 4.25524 14.054 4.29308 14.0167 4.33144L11.6171 6.80275L9.72646 8.7419C9.35758 9.12179 9.35759 9.73997 9.72646 10.1199C10.0953 10.4997 10.6957 10.4997 11.0646 10.1199L12.9536 8.17655L12.9523 8.17525L14.9282 6.14042C14.9808 6.08621 15.0347 6.03385 15.0897 5.98353C16.5634 4.63363 18.8294 4.68625 20.2418 6.14042C21.7068 7.64914 21.7068 10.1037 20.2418 11.6125L15.3147 16.6866C14.1548 17.8811 12.5746 18.6679 10.9063 18.8984C11.5937 19.2097 12.3421 19.3748 13.1146 19.3748C14.5705 19.3748 15.9419 18.7942 16.976 17.7392C19.3258 15.3431 21.0235 13.6066 22.0224 12.578C24.2296 10.3048 24.2296 6.60532 22.0224 4.33216C20.9529 3.2308 19.5306 2.62432 18.0189 2.62432ZM8.2102 2.62475C6.69791 2.62475 5.27635 3.23143 4.2069 4.33245C3.13748 5.4338 2.5486 6.89773 2.5486 8.45513C2.5486 10.0125 3.13776 11.4767 4.20718 12.5781C4.75056 13.1374 5.50358 13.9096 6.45544 14.8827L6.47184 14.8659C7.7446 16.1767 9.17468 16.3892 10.1502 16.3376C11.4233 16.2697 12.6491 15.7206 13.5131 14.8309L18.44 9.7568C18.9112 9.27153 18.9112 8.4818 18.44 7.99653C17.9688 7.51128 17.2021 7.51128 16.7309 7.99653L14.7564 10.0298L14.7518 10.025C14.1467 10.6477 13.5647 11.3107 12.9251 11.8961C11.5579 13.1484 9.45558 13.0997 8.14529 11.7507C6.78615 10.351 6.78614 8.07375 8.14529 6.67402L11.2112 3.51049C10.3198 2.93435 9.28846 2.62476 8.2102 2.62475Z" fill="#0F1D3A"/>
<path d="M42.715 3.81379C44.5606 3.81379 45.9449 4.80591 46.1294 4.93946C46.2771 5.03486 46.4247 5.30199 46.2402 5.58814C46.0925 5.8171 45.9264 6.08431 45.7788 6.31326C45.6311 6.56126 45.3912 6.67571 45.1328 6.50406C45.0036 6.42774 43.7116 5.55007 42.6412 5.55007C41.0909 5.55007 40.5557 6.56117 40.5557 7.2671C40.5557 8.35462 41.3677 9.02248 42.8995 9.67117C45.0404 10.5679 46.8676 11.6172 46.8677 13.9449C46.8677 15.9291 45.1512 17.5509 42.7519 17.5509C40.5003 17.5509 39.0791 16.3298 38.7838 16.0436C38.6177 15.891 38.4887 15.7575 38.6732 15.4332C38.8393 15.1851 38.9868 14.8989 39.1529 14.6509C39.319 14.4028 39.5774 14.3266 39.7804 14.4983C39.8912 14.5937 41.3123 15.8147 42.7335 15.8148C44.0069 15.8148 44.819 15.0133 44.819 14.0403C44.8189 12.8955 43.8593 12.1706 42.0322 11.3883C40.1497 10.5679 38.6732 9.5567 38.6732 7.34353C38.6732 5.85535 39.7805 3.8138 42.715 3.81379Z" fill="#0F1D3A"/>
<path d="M54.7297 4.00458C54.9696 4.00458 55.1726 4.21445 55.1727 4.46247V9.74746L60.3773 4.19538C60.4511 4.09999 60.5803 4.0046 60.7279 4.00458H62.1122C62.4444 4.00458 62.6289 4.40529 62.3705 4.69148L57.0368 10.3007L62.6843 16.7305C62.832 16.9213 62.7396 17.3601 62.352 17.3601H60.8757C60.6911 17.3601 60.5803 17.2839 60.5434 17.2266L55.1727 10.9685V16.9022C55.1727 17.1502 54.9697 17.3601 54.7297 17.3601H53.6593C53.4009 17.3601 53.2164 17.1502 53.2164 16.9022V4.46247C53.2164 4.21445 53.4009 4.00458 53.6593 4.00458H54.7297Z" fill="#0F1D3A"/>
<path d="M68.6203 4.00458C68.7679 4.00461 68.8601 4.09997 68.9155 4.17627L72.2561 9.0416L75.5966 4.17627C75.652 4.09996 75.7628 4.00458 75.892 4.00458H77.2762C77.5714 4.00463 77.719 4.30986 77.5714 4.55787L73.1973 10.9114V16.9976C73.1973 17.1884 73.0312 17.3601 72.8466 17.3601H71.6286C71.4256 17.3601 71.2778 17.1884 71.2778 16.9976V10.9305L66.9592 4.55787C66.8116 4.30984 66.9592 4.00458 67.2545 4.00458H68.6203Z" fill="#0F1D3A"/>
<path d="M90.8802 4.00458C91.0831 4.00462 91.2308 4.17631 91.2308 4.36707V5.43556C91.2308 5.62633 91.0831 5.79801 90.8802 5.79805H85.048V9.69028H89.9757C90.1602 9.69028 90.3265 9.86197 90.3265 10.0528V11.1213C90.3264 11.3311 90.1602 11.4837 89.9757 11.4837H85.048V15.5857H90.8802C91.0831 15.5858 91.2308 15.7575 91.2308 15.9482V16.9976C91.2308 17.1884 91.0831 17.3601 90.8802 17.3601H83.4977C83.2947 17.3601 83.1469 17.1884 83.1469 16.9976V4.36707C83.147 4.17629 83.2947 4.00458 83.4977 4.00458H90.8802Z" fill="#0F1D3A"/>
<path d="M107.239 4.00458C107.442 4.00458 107.589 4.17629 107.589 4.36707V9.69028H114.344V4.36707C114.344 4.17629 114.492 4.00458 114.695 4.00458H115.913C116.098 4.00458 116.264 4.17629 116.264 4.36707V16.9976C116.264 17.1884 116.098 17.3601 115.913 17.3601H114.695C114.492 17.3601 114.344 17.1884 114.344 16.9976V11.4837H107.589V16.9976C107.589 17.1884 107.442 17.3601 107.239 17.3601H106.021C105.836 17.3601 105.67 17.1884 105.67 16.9976V4.36707C105.67 4.17629 105.836 4.00458 106.021 4.00458H107.239Z" fill="#0F1D3A"/>
<path d="M131.369 4.00458C131.572 4.00462 131.72 4.17631 131.72 4.36707V5.43556C131.72 5.62633 131.572 5.79801 131.369 5.79805H125.537V9.69028H130.465C130.65 9.69032 130.816 9.862 130.816 10.0528V11.1213C130.816 11.3311 130.65 11.4837 130.465 11.4837H125.537V15.5857H131.369C131.572 15.5858 131.72 15.7575 131.72 15.9482V16.9976C131.72 17.1884 131.572 17.3601 131.369 17.3601H123.987C123.784 17.3601 123.636 17.1884 123.636 16.9976V4.36707C123.636 4.17629 123.784 4.00458 123.987 4.00458H131.369Z" fill="#0F1D3A"/>
<path fill-rule="evenodd" clip-rule="evenodd" d="M142.734 3.81379C142.826 3.81379 142.992 3.90922 143.047 4.02369L148.676 16.864C148.787 17.112 148.64 17.3601 148.363 17.3601H147.2C146.979 17.3601 146.849 17.2456 146.776 17.0739L145.631 14.4601H139.596C139.227 15.3377 138.839 16.1963 138.47 17.0739C138.415 17.2075 138.267 17.3601 138.046 17.3601H136.883C136.606 17.3601 136.459 17.112 136.569 16.864L142.235 4.02369C142.291 3.90924 142.457 3.81383 142.549 3.81379H142.734ZM140.316 12.8192H144.93L142.66 7.59151H142.568L140.316 12.8192Z" fill="#0F1D3A"/>
<path d="M155.893 4.00458C156.077 4.00461 156.243 4.1763 156.243 4.36707V15.5857H161.245C161.448 15.5857 161.596 15.7574 161.596 15.9482V16.9976C161.596 17.1884 161.448 17.3601 161.245 17.3601H154.675C154.472 17.3601 154.324 17.1884 154.324 16.9976V4.36707C154.324 4.1763 154.472 4.00459 154.675 4.00458H155.893Z" fill="#0F1D3A"/>
<path d="M173.258 4.00458C173.461 4.00462 173.609 4.17631 173.609 4.36707V5.43556C173.609 5.62633 173.461 5.79801 173.258 5.79805H170.25V16.9976C170.25 17.1884 170.084 17.3601 169.899 17.3601H168.681C168.497 17.3601 168.33 17.1884 168.33 16.9976V5.79805H165.322C165.119 5.79805 164.972 5.62635 164.972 5.43556V4.36707C164.972 4.17629 165.119 4.00458 165.322 4.00458H173.258Z" fill="#0F1D3A"/>
<path d="M180.975 4.00458C181.178 4.00458 181.326 4.17629 181.326 4.36707V9.69028H188.081V4.36707C188.081 4.17631 188.228 4.00461 188.431 4.00458H189.649C189.834 4.00458 190 4.17629 190 4.36707V16.9976C190 17.1884 189.834 17.3601 189.649 17.3601H188.431C188.228 17.3601 188.081 17.1884 188.081 16.9976V11.4837H181.326V16.9976C181.326 17.1884 181.178 17.3601 180.975 17.3601H179.757C179.572 17.3601 179.406 17.1884 179.406 16.9976V4.36707C179.406 4.17629 179.572 4.00458 179.757 4.00458H180.975Z" fill="#0F1D3A"/>
</svg>
