<svg width="1405" height="1147" viewBox="0 0 1405 1147" fill="none" xmlns="http://www.w3.org/2000/svg">
<path fill-rule="evenodd" clip-rule="evenodd" d="M439.65 0C435.867 0 432.09 0.0477091 428.323 0.142443L423.023 0.304309C311.764 4.4185 207.773 49.7869 128.623 129.111C-42.8741 300.985 -42.8741 580.657 128.623 752.531C182.287 806.313 273.401 897.024 399.439 1022.1C480.594 1102.64 588.177 1147 702.395 1147C816.614 1147 924.196 1102.64 1005.35 1022.1C1131.49 896.921 1222.61 806.212 1276.17 752.531C1359.25 669.268 1405 558.574 1405 440.821C1405 323.069 1359.25 212.374 1276.17 129.111C1193.09 45.8482 1082.64 0 965.147 0C870.631 2.66597e-05 780.651 29.6795 705.825 84.6433C704.679 85.4855 703.534 86.3338 702.395 87.1879C626.898 30.5975 535.612 0.000408617 439.65 0ZM439.65 136.823C517.812 136.823 591.476 166.274 648.01 219.919C650.052 221.856 652.072 223.823 654.068 225.823L782.622 354.669L883.916 455.771C903.679 475.577 903.678 507.808 883.916 527.614C864.154 547.42 831.988 547.42 812.226 527.614L711.022 426.298L711.093 426.227L605.237 320.14C602.416 317.313 599.526 314.586 596.584 311.962C517.63 241.583 396.23 244.324 320.564 320.14C242.078 398.799 242.078 526.773 320.564 605.433L584.533 869.981C646.674 932.259 731.326 973.28 820.704 985.295C783.875 1001.52 743.783 1010.14 702.395 1010.14C624.398 1010.14 550.926 979.861 495.523 924.861C369.636 799.933 278.685 709.397 225.172 655.767C106.919 537.253 106.921 344.377 225.172 225.862C282.467 168.441 358.663 136.823 439.65 136.823ZM965.147 136.842C1046.17 136.842 1122.32 168.472 1179.62 225.875C1236.91 283.296 1268.46 359.623 1268.46 440.821C1268.46 522.018 1236.9 598.359 1179.6 655.78C1150.49 684.939 1110.15 725.201 1059.15 775.937L1058.27 775.056C990.087 843.393 913.475 854.478 861.213 851.788C793.009 848.251 727.335 819.618 681.05 773.23L417.088 508.682C391.844 483.382 391.844 442.211 417.088 416.91C442.333 391.61 483.416 391.61 508.661 416.91L614.44 522.92L614.686 522.674C647.105 555.138 678.282 589.7 712.55 620.221C785.796 685.515 898.425 682.974 968.623 612.639C1041.44 539.662 1041.44 420.938 968.623 347.961L804.375 183.026C852.129 152.987 907.38 136.842 965.147 136.842Z" fill="#E2EAFC" fill-opacity="0.21"/>
</svg>
