<svg width="245" height="28" viewBox="0 0 245 28" fill="none" xmlns="http://www.w3.org/2000/svg">
<path fill-rule="evenodd" clip-rule="evenodd" d="M23.2349 0C23.3259 0 23.4169 0.00116309 23.5075 0.00347426L23.6351 0.00749709C26.313 0.107929 28.816 1.21531 30.7211 3.15171C34.8488 7.3474 34.8488 14.1747 30.7211 18.3704C29.4294 19.6833 27.2364 21.8977 24.2029 24.9511C22.2495 26.9171 19.6601 28 16.911 28C14.1619 28 11.5724 26.9171 9.6191 24.9511C6.58305 21.8952 4.38991 19.6809 3.10069 18.3704C1.10104 16.3379 3.4686e-06 13.6356 0 10.7611C1.97264e-06 7.88657 1.10105 5.18427 3.10069 3.15171C5.10035 1.11915 7.75888 0 10.5868 0C12.8617 5.72529e-06 15.0274 0.724548 16.8284 2.06627C16.856 2.08683 16.8836 2.10759 16.911 2.12844C18.7281 0.747003 20.9252 2.17192e-05 23.2349 0ZM23.2349 3.34005C21.3537 3.34007 19.5806 4.05894 18.2199 5.36847C18.1708 5.41576 18.1223 5.46392 18.0742 5.51274L14.98 8.65805L12.542 11.1261C12.0664 11.6095 12.0664 12.3963 12.542 12.8798C13.0177 13.3633 13.7918 13.3633 14.2674 12.8798L16.7033 10.4065L16.7017 10.4049L19.2495 7.81508C19.3174 7.74608 19.3869 7.67944 19.4577 7.6154C21.3581 5.89735 24.28 5.96432 26.1012 7.81508C27.9903 9.73527 27.9903 12.8593 26.1012 14.7795L19.7479 21.2374C18.2522 22.7577 16.2146 23.7592 14.0633 24.0525C14.9498 24.4487 15.9148 24.6589 16.911 24.6589C18.7883 24.6588 20.5567 23.9198 21.8901 22.5772C24.9201 19.5276 27.1093 17.3175 28.3973 16.0083C31.2435 13.1152 31.2434 8.40677 28.3973 5.51366C27.0182 4.11192 25.1842 3.34005 23.2349 3.34005ZM10.5868 3.3406C8.63678 3.3406 6.80372 4.11273 5.42469 5.51402C4.04569 6.91574 3.28636 8.77893 3.28635 10.7611C3.28636 12.7432 4.04606 14.6068 5.42505 16.0085C6.12573 16.7203 7.09673 17.7032 8.32413 18.9417L8.34527 18.9203C9.98645 20.5885 11.8305 20.859 13.0884 20.7933C14.73 20.7069 16.3107 20.008 17.4248 18.8757L23.7779 12.4177C24.3856 11.8001 24.3855 10.795 23.7779 10.1774C23.1703 9.55982 22.1816 9.55981 21.574 10.1774L19.028 12.7652L19.0221 12.7591C18.2418 13.5516 17.4913 14.3954 16.6665 15.1405C14.9036 16.7344 12.1927 16.6724 10.5031 14.9554C8.75056 13.174 8.75056 10.2757 10.5031 8.49421L14.4565 4.4679C13.3071 3.73463 11.9772 3.3406 10.5868 3.3406Z" fill="#F5F8FE"/>
<path d="M55.0798 4.85391C57.4597 4.85391 59.2447 6.11661 59.4827 6.28659C59.673 6.408 59.8634 6.74798 59.6255 7.11218C59.4351 7.40358 59.2209 7.74366 59.0305 8.03506C58.8401 8.35069 58.5307 8.49636 58.1976 8.27789C58.031 8.18076 56.365 7.06373 54.9847 7.06373C52.9857 7.06373 52.2955 8.35058 52.2955 9.24904C52.2955 10.6331 53.3426 11.4832 55.3178 12.3088C58.0784 13.45 60.4346 14.7856 60.4346 17.748C60.4346 20.2734 58.2213 22.3375 55.1275 22.3375C52.2241 22.3375 50.3915 20.7834 50.0107 20.4192C49.7966 20.2249 49.6301 20.055 49.8681 19.6422C50.0822 19.3265 50.2725 18.9622 50.4867 18.6466C50.7009 18.3309 51.034 18.2338 51.2958 18.4524C51.4386 18.5738 53.2712 20.1279 55.1037 20.1279C56.7458 20.1279 57.7929 19.1078 57.7929 17.8694C57.7929 16.4125 56.5554 15.4898 54.1994 14.4943C51.7719 13.4501 49.8681 12.1631 49.8681 9.34632C49.8681 7.45227 51.2959 4.85393 55.0798 4.85391Z" fill="#F5F8FE"/>
<path d="M70.5725 5.09674C70.8819 5.09674 71.1437 5.36385 71.1437 5.67951V12.4059L77.8549 5.33958C77.9501 5.21817 78.1167 5.09676 78.3071 5.09674H80.092C80.5204 5.09674 80.7583 5.60674 80.4252 5.97098L73.5474 13.11L80.8298 21.2934C81.0202 21.5362 80.9011 22.0947 80.4013 22.0947H78.4976C78.2596 22.0947 78.1167 21.9976 78.0691 21.9248L71.1437 13.96V21.5119C71.1437 21.8276 70.8819 22.0947 70.5725 22.0947H69.1923C68.8591 22.0947 68.6211 21.8276 68.6211 21.5119V5.67951C68.6212 5.36385 68.8591 5.09674 69.1923 5.09674H70.5725Z" fill="#F5F8FE"/>
<path d="M88.4841 5.09674C88.6744 5.09677 88.7933 5.21815 88.8647 5.31526L93.1724 11.5075L97.4799 5.31526C97.5513 5.21813 97.6941 5.09674 97.8607 5.09674H99.6456C100.026 5.0968 100.217 5.48527 100.026 5.80092L94.386 13.8872V21.6333C94.386 21.8762 94.1718 22.0947 93.9338 22.0947H92.3632C92.1014 22.0947 91.9109 21.8762 91.9109 21.6333V13.9115L86.3421 5.80092C86.1518 5.48525 86.3422 5.09674 86.723 5.09674H88.4841Z" fill="#F5F8FE"/>
<path d="M117.188 5.09674C117.449 5.09679 117.64 5.31531 117.64 5.55809V6.91799C117.64 7.16079 117.449 7.37929 117.188 7.37933H109.667V12.3331H116.021C116.259 12.3331 116.474 12.5516 116.474 12.7944V14.1543C116.474 14.4214 116.259 14.6157 116.021 14.6157H109.667V19.8364H117.188C117.449 19.8364 117.64 20.055 117.64 20.2977V21.6333C117.64 21.8761 117.449 22.0946 117.188 22.0947H107.668C107.406 22.0947 107.216 21.8762 107.216 21.6333V5.55809C107.216 5.31528 107.406 5.09674 107.668 5.09674H117.188Z" fill="#F5F8FE"/>
<path d="M138.281 5.09674C138.543 5.09674 138.734 5.31528 138.734 5.55809V12.3331H147.444V5.55809C147.444 5.31528 147.635 5.09674 147.896 5.09674H149.467C149.705 5.09674 149.919 5.31528 149.919 5.55809V21.6333C149.919 21.8762 149.705 22.0947 149.467 22.0947H147.896C147.635 22.0947 147.444 21.8762 147.444 21.6333V14.6157H138.734V21.6333C138.734 21.8762 138.543 22.0947 138.281 22.0947H136.711C136.473 22.0947 136.259 21.8762 136.259 21.6333V5.55809C136.259 5.31528 136.473 5.09674 136.711 5.09674H138.281Z" fill="#F5F8FE"/>
<path d="M169.397 5.09674C169.659 5.09679 169.849 5.31531 169.85 5.55809V6.91799C169.85 7.16079 169.659 7.37929 169.397 7.37933H161.877V12.3331H168.231C168.469 12.3331 168.683 12.5516 168.683 12.7944V14.1543C168.683 14.4214 168.469 14.6156 168.231 14.6157H161.877V19.8364H169.397C169.659 19.8364 169.85 20.055 169.85 20.2977V21.6333C169.85 21.8761 169.659 22.0946 169.397 22.0947H159.878C159.616 22.0947 159.426 21.8762 159.426 21.6333V5.55809C159.426 5.31528 159.616 5.09674 159.878 5.09674H169.397Z" fill="#F5F8FE"/>
<path fill-rule="evenodd" clip-rule="evenodd" d="M184.051 4.85391C184.17 4.85391 184.384 4.97537 184.456 5.12106L191.714 21.4633C191.857 21.7789 191.667 22.0946 191.31 22.0947H189.81C189.525 22.0946 189.358 21.9489 189.263 21.7304L187.788 18.4037H180.006C179.53 19.5207 179.03 20.6134 178.554 21.7304C178.482 21.9004 178.292 22.0947 178.006 22.0947H176.507C176.15 22.0947 175.96 21.7789 176.103 21.4633L183.409 5.12106C183.48 4.9754 183.694 4.85396 183.813 4.85391H184.051ZM180.934 16.3153H186.883L183.956 9.66193H183.837L180.934 16.3153Z" fill="#F5F8FE"/>
<path d="M201.02 5.09674C201.257 5.09677 201.472 5.3153 201.472 5.55809V19.8364H207.921C208.183 19.8364 208.373 20.0549 208.373 20.2977V21.6333C208.373 21.8761 208.183 22.0947 207.921 22.0947H199.449C199.187 22.0947 198.997 21.8761 198.997 21.6333V5.55809C198.997 5.31529 199.187 5.09676 199.449 5.09674H201.02Z" fill="#F5F8FE"/>
<path d="M223.412 5.09674C223.674 5.09679 223.864 5.31531 223.864 5.55809V6.91799C223.864 7.16078 223.674 7.37928 223.412 7.37933H219.533V21.6333C219.533 21.8762 219.318 22.0947 219.08 22.0947H217.51C217.272 22.0947 217.058 21.8762 217.058 21.6333V7.37933H213.179C212.917 7.37933 212.726 7.16081 212.726 6.91799V5.55809C212.726 5.31528 212.917 5.09674 213.179 5.09674H223.412Z" fill="#F5F8FE"/>
<path d="M233.362 5.09674C233.624 5.09674 233.815 5.31528 233.815 5.55809V12.3331H242.525V5.55809C242.525 5.3153 242.715 5.09678 242.977 5.09674H244.548C244.786 5.09674 245 5.31528 245 5.55809V21.6333C245 21.8762 244.786 22.0947 244.548 22.0947H242.977C242.715 22.0946 242.525 21.8761 242.525 21.6333V14.6157H233.815V21.6333C233.815 21.8762 233.624 22.0947 233.362 22.0947H231.792C231.554 22.0947 231.34 21.8762 231.34 21.6333V5.55809C231.34 5.31528 231.554 5.09674 231.792 5.09674H233.362Z" fill="#F5F8FE"/>
</svg>
