<svg width="42" height="42" viewBox="0 0 42 42" fill="none" xmlns="http://www.w3.org/2000/svg">
<path d="M0 21C0 3.7065 3.7065 0 21 0C38.2935 0 42 3.7065 42 21C42 38.2935 38.2935 42 21 42C3.7065 42 0 38.2935 0 21Z" fill="#104584"/>
<path fill-rule="evenodd" clip-rule="evenodd" d="M21.5128 12.6628C22.3322 12.0412 23.6856 11.6781 25.1659 12.5953C26.2234 13.2504 26.7827 14.5917 26.5851 16.0796C26.3858 17.5811 25.4296 19.2392 23.4684 20.7054L23.3953 20.7601C22.7524 21.2416 22.2411 21.6246 21.4164 21.6246C20.5918 21.6246 20.0804 21.2416 19.4375 20.7601L19.3645 20.7054C17.4033 19.2392 16.447 17.5811 16.2477 16.0796C16.0501 14.5917 16.6095 13.2504 17.6669 12.5953C19.1472 11.6781 20.5006 12.0412 21.3201 12.6628L21.4164 12.7358L21.5128 12.6628ZM24.5076 13.6578C23.5297 13.0519 22.7377 13.3026 22.2682 13.6587L22.2534 13.6699C22.1341 13.7604 22.0212 13.8461 21.9283 13.9076C21.8788 13.9403 21.8159 13.9791 21.7456 14.0112C21.6803 14.041 21.5633 14.0864 21.4164 14.0864C21.2695 14.0864 21.1526 14.041 21.0872 14.0112C21.017 13.9791 20.954 13.9403 20.9046 13.9076C20.8116 13.8461 20.6987 13.7604 20.5794 13.6699L20.5646 13.6587C20.0952 13.3026 19.3031 13.0519 18.3253 13.6578C17.7697 14.0021 17.34 14.8092 17.4868 15.9151C17.6319 17.0075 18.3535 18.3889 20.1129 19.7043C20.8523 20.2571 21.0426 20.3746 21.4164 20.3746C21.7902 20.3746 21.9805 20.2571 22.7199 19.7043C24.4794 18.3889 25.201 17.0075 25.346 15.9151C25.4929 14.8092 25.0632 14.0021 24.5076 13.6578Z" fill="white"/>
<path d="M13.7084 22.6666C13.7084 22.3214 13.9882 22.0416 14.3334 22.0416H16.3291C16.6679 22.0416 17.0028 22.1179 17.3074 22.2653L19.0091 23.0887C19.1429 23.1534 19.2915 23.1876 19.443 23.1876H20.3119C21.0096 23.1876 21.641 23.517 22.0356 24.0339L25.4746 22.9773L25.4758 22.9769C26.4179 22.684 27.4267 23.0364 28.0041 23.8359C28.522 24.5531 28.3219 25.5877 27.5442 26.0364L21.2813 29.6501C20.7354 29.965 20.0884 30.0429 19.4847 29.8638L14.1554 28.2824C13.8245 28.1842 13.6358 27.8363 13.734 27.5054C13.8322 27.1745 14.1801 26.9859 14.511 27.084L19.8403 28.6654C20.1129 28.7463 20.4057 28.7121 20.6566 28.5674L26.9195 24.9537C27.0373 24.8858 27.0874 24.7016 26.9907 24.5678C26.7184 24.1906 26.2609 24.0416 25.8464 24.1707L25.844 24.1715L22.4572 25.2121C22.458 25.2362 22.4584 25.2605 22.4584 25.285C22.4584 25.6109 22.2365 25.8775 21.9448 25.9581L19.8274 26.5436C19.3019 26.6888 18.7392 26.6386 18.2487 26.4013L16.4296 25.5211C16.1189 25.3708 15.9889 24.997 16.1392 24.6863C16.2896 24.3756 16.6633 24.2456 16.974 24.3959L18.7931 25.276C19.0093 25.3806 19.26 25.4035 19.4943 25.3388L21.1061 24.8931C20.9594 24.6277 20.6673 24.4376 20.3119 24.4376H19.443C19.1042 24.4376 18.7693 24.3613 18.4647 24.2139L16.763 23.3905C16.6292 23.3258 16.4806 23.2916 16.3291 23.2916H14.3334C13.9882 23.2916 13.7084 23.0118 13.7084 22.6666Z" fill="white"/>
</svg>
