<svg width="42" height="42" viewBox="0 0 42 42" fill="none" xmlns="http://www.w3.org/2000/svg">
<path d="M0 21C0 3.7065 3.7065 0 21 0C38.2935 0 42 3.7065 42 21C42 38.2935 38.2935 42 21 42C3.7065 42 0 38.2935 0 21Z" fill="#1FA2B8"/>
<path fill-rule="evenodd" clip-rule="evenodd" d="M12.0415 21C12.0415 16.0525 16.0523 12.0417 20.9998 12.0417C21.6126 12.0417 22.2116 12.1033 22.7908 12.2209C23.1291 12.2896 23.3477 12.6194 23.279 12.9577C23.2103 13.296 22.8804 13.5146 22.5422 13.4459C22.0444 13.3448 21.5286 13.2917 20.9998 13.2917C16.7426 13.2917 13.2915 16.7428 13.2915 21C13.2915 25.2572 16.7426 28.7084 20.9998 28.7084C25.257 28.7084 28.7082 25.2572 28.7082 21C28.7082 20.4713 28.655 19.9555 28.554 19.4576C28.4854 19.1193 28.7039 18.7895 29.0422 18.7208C29.3805 18.6522 29.7104 18.8708 29.779 19.2091C29.8965 19.7882 29.9582 20.3873 29.9582 21C29.9582 25.9475 25.9473 29.9584 20.9998 29.9584C16.0523 29.9584 12.0415 25.9475 12.0415 21ZM20.9998 17.4584C19.0438 17.4584 17.4582 19.044 17.4582 21C17.4582 22.956 19.0438 24.5417 20.9998 24.5417C22.9558 24.5417 24.5415 22.956 24.5415 21C24.5415 20.6548 24.8213 20.375 25.1665 20.375C25.5117 20.375 25.7915 20.6548 25.7915 21C25.7915 23.6464 23.6462 25.7917 20.9998 25.7917C18.3535 25.7917 16.2082 23.6464 16.2082 21C16.2082 18.3537 18.3535 16.2084 20.9998 16.2084C21.345 16.2084 21.6248 16.4882 21.6248 16.8334C21.6248 17.1785 21.345 17.4584 20.9998 17.4584ZM27.5859 12.7787C27.3778 12.1104 26.5454 11.8009 25.9593 12.2798C25.3558 12.773 24.6329 13.421 24.2257 14.2668C23.8516 15.0439 23.7644 15.9423 24.1538 16.9561L20.5831 20.5268C20.339 20.7709 20.339 21.1666 20.5831 21.4107C20.8272 21.6547 21.2229 21.6547 21.467 21.4107L25.0207 17.857C26.1008 18.2607 27.0259 18.1536 27.8103 17.7522C28.6312 17.3322 29.2456 16.6126 29.709 16.053C30.1975 15.4632 29.8856 14.6079 29.194 14.4079C29.1861 14.4057 29.1782 14.4035 29.1703 14.4016L27.9544 14.1012L27.5913 12.7969C27.5896 12.7908 27.5878 12.7847 27.5859 12.7787ZM27.2409 16.6395C26.7675 16.8817 26.1846 16.9784 25.3821 16.6567C25.0402 15.8831 25.117 15.2972 25.352 14.809C25.587 14.3209 26.0007 13.8881 26.4819 13.4727L26.8481 14.7881C26.9085 15.0053 27.0814 15.1732 27.3003 15.2272L28.5171 15.5278C28.118 15.9916 27.7129 16.3979 27.2409 16.6395Z" fill="white"/>
</svg>
