<svg width="42" height="42" viewBox="0 0 42 42" fill="none" xmlns="http://www.w3.org/2000/svg">
<path d="M0 21C0 3.7065 3.7065 0 21 0C38.2935 0 42 3.7065 42 21C42 38.2935 38.2935 42 21 42C3.7065 42 0 38.2935 0 21Z" fill="#1FA2B8"/>
<path d="M17.5299 24.7282C17.4049 24.2615 17.6819 23.7817 18.1487 23.6566L18.1562 23.6546C18.623 23.5295 19.1028 23.8065 19.2279 24.2733C19.353 24.7401 19.076 25.2199 18.6092 25.3449L18.6016 25.347C18.1348 25.472 17.655 25.195 17.5299 24.7282Z" fill="white"/>
<path d="M23.3987 25.4066C22.9319 25.5317 22.6549 26.0115 22.7799 26.4782C22.905 26.945 23.3848 27.222 23.8516 27.097L23.8592 27.0949C24.326 26.9699 24.603 26.4901 24.4779 26.0233C24.3528 25.5565 23.873 25.2795 23.4062 25.4046L23.3987 25.4066Z" fill="white"/>
<path fill-rule="evenodd" clip-rule="evenodd" d="M16.8438 12.25C16.8438 11.8876 17.1376 11.5938 17.5 11.5938H24.5C24.8624 11.5938 25.1562 11.8876 25.1562 12.25C25.1562 12.6124 24.8624 12.9062 24.5 12.9062H23.8793V14.4254C23.8793 15.9868 23.8839 16.6555 24.0462 17.2916C24.2085 17.9279 24.5256 18.5201 25.2748 19.8964L26.2979 21.7756C27.2089 23.449 27.9291 24.772 28.3176 25.8361C28.713 26.919 28.8314 27.9093 28.2933 28.8024L28.2919 28.8048L28.28 28.8243L28.2785 28.8268C27.7349 29.7114 26.7993 30.0734 25.6476 30.2411C24.5129 30.4063 22.9893 30.4063 21.0581 30.4062H20.942C19.0109 30.4063 17.4872 30.4063 16.3525 30.2411C15.2009 30.0734 14.2652 29.7114 13.7216 28.8268L13.7201 28.8243L13.7083 28.8048L13.7068 28.8024C13.1688 27.9093 13.2872 26.919 13.6825 25.8361C14.071 24.772 14.7913 23.449 15.7023 21.7756L16.4285 20.4415C16.4534 20.3485 16.4993 20.2595 16.5667 20.1818C16.5696 20.1784 16.5725 20.1751 16.5754 20.1718L16.7253 19.8964C17.4746 18.5201 17.7917 17.9279 17.954 17.2916C18.1162 16.6555 18.1209 15.9868 18.1209 14.4254V12.9062H17.5C17.1376 12.9062 16.8438 12.6124 16.8438 12.25ZM17.6436 20.9547L16.8835 22.3508C15.9377 24.0881 15.2662 25.3253 14.9154 26.2862C14.5678 27.2385 14.6018 27.7437 14.8304 28.124L14.831 28.125L14.8399 28.1396L14.8405 28.1407C15.0755 28.5223 15.5193 28.7934 16.5416 28.9422C17.5705 29.0921 18.9981 29.0938 21.0001 29.0938C23.002 29.0938 24.4296 29.0921 25.4585 28.9422C26.4808 28.7934 26.9246 28.5223 27.1596 28.1407L27.1602 28.1396L27.1691 28.125L27.1698 28.1239C27.3983 27.7437 27.4324 27.2385 27.0847 26.2862C26.7339 25.3253 26.0624 24.0881 25.1166 22.3508L24.8404 21.8434C24.5624 22.0842 24.2202 22.285 23.8133 22.4068C22.9434 22.6673 21.8823 22.5369 20.6749 21.8484C19.8265 21.3646 19.1377 20.9942 18.5699 20.8459C18.2961 20.7744 18.096 20.7679 17.948 20.799C17.8436 20.8209 17.7437 20.8656 17.6436 20.9547ZM24.1841 20.6379C24.0137 20.8563 23.7641 21.0515 23.4367 21.1495C22.9941 21.2821 22.3053 21.2672 21.3251 20.7083C20.5105 20.2437 19.668 19.7762 18.9016 19.576C18.75 19.5364 18.5947 19.5053 18.4375 19.487C18.8247 18.7514 19.0761 18.2026 19.2258 17.6159C19.4335 16.8014 19.4335 15.9595 19.4334 14.5199L19.4334 12.9062H22.5668L22.5668 14.5199C22.5667 15.9595 22.5666 16.8014 22.7744 17.6159C22.9821 18.4302 23.3858 19.1717 24.0768 20.4407L24.1841 20.6379Z" fill="white"/>
</svg>
