<svg width="47" height="47" viewBox="0 0 47 47" fill="none" xmlns="http://www.w3.org/2000/svg">
<path d="M0 23.5C0 4.14775 4.14775 0 23.5 0C42.8522 0 47 4.14775 47 23.5C47 42.8522 42.8522 47 23.5 47C4.14775 47 0 42.8522 0 23.5Z" fill="#1FA2B8"/>
<path fill-rule="evenodd" clip-rule="evenodd" d="M18.0731 14.5513C18.0893 14.5513 18.1055 14.5513 18.1218 14.5513L28.9239 14.5513C29.6425 14.5512 30.2525 14.5512 30.7338 14.6168C31.2432 14.6863 31.7303 14.8431 32.1032 15.2536C32.4794 15.6676 32.5824 16.1667 32.5903 16.6768C32.5976 17.1532 32.5215 17.745 32.4327 18.4349L32.4262 18.4852C32.3948 18.7294 32.3477 18.9655 32.2495 19.2019C32.1497 19.442 32.0124 19.6465 31.8414 19.8496C30.9278 20.935 29.2294 22.8965 26.8383 24.6827C26.7997 24.7116 26.7509 24.7801 26.7416 24.8829C26.5092 27.4501 26.3049 28.8084 26.1574 29.5953C25.998 30.4463 25.3489 31.0352 24.7893 31.4407C24.4964 31.6529 24.1855 31.844 23.9087 32.0125C23.8865 32.026 23.8645 32.0394 23.8429 32.0525C23.5842 32.2098 23.3643 32.3435 23.1805 32.4735C22.6765 32.8299 22.095 32.8049 21.6505 32.546C21.231 32.3016 20.9359 31.856 20.8762 31.3519C20.7452 30.2455 20.5077 28.0796 20.2456 24.8769C20.2372 24.7742 20.2211 24.7444 20.2198 24.7419C20.2189 24.7401 20.2165 24.7358 20.2087 24.7272C20.1999 24.7176 20.1824 24.7005 20.1492 24.6756C17.7629 22.8916 16.0679 20.9336 15.1556 19.8496C14.9852 19.6472 14.8438 19.4476 14.743 19.2049C14.6443 18.9672 14.6023 18.7299 14.5708 18.4852C14.5686 18.4684 14.5665 18.4516 14.5643 18.4349C14.4755 17.745 14.3994 17.1532 14.4067 16.6768C14.4146 16.1667 14.5176 15.6676 14.8938 15.2536C15.2667 14.8431 15.7538 14.6863 16.2632 14.6168C16.7445 14.5512 17.3545 14.5512 18.0731 14.5513ZM16.4522 16.0028C16.094 16.0517 15.9861 16.1315 15.9292 16.1941C15.8755 16.2532 15.8107 16.3573 15.8054 16.6984C15.7998 17.0618 15.8611 17.5523 15.9582 18.3067C15.9851 18.5164 16.0088 18.6055 16.0349 18.6684C16.0589 18.7262 16.1014 18.8011 16.2258 18.9489C17.1194 20.0106 18.7318 21.8694 20.9868 23.5553C21.1679 23.6908 21.3341 23.8585 21.4544 24.0843C21.5729 24.3067 21.6214 24.5382 21.6397 24.7628C21.9004 27.948 22.1362 30.0971 22.2653 31.1874C22.2692 31.2207 22.2813 31.2535 22.3 31.282C22.319 31.3112 22.3402 31.3289 22.3546 31.3373C22.3564 31.3384 22.358 31.3392 22.3594 31.3399C22.3627 31.3381 22.3672 31.3354 22.3729 31.3314C22.5987 31.1717 22.8608 31.0125 23.1081 30.8622C23.1327 30.8472 23.1572 30.8324 23.1815 30.8176C23.4601 30.648 23.7266 30.4833 23.9685 30.308C24.4785 29.9385 24.7286 29.6258 24.7825 29.3377C24.9192 28.6086 25.1185 27.2973 25.3484 24.7568C25.3906 24.2913 25.6191 23.8476 26.0011 23.5621C28.2607 21.8741 29.8764 20.012 30.7712 18.9488C30.8797 18.8199 30.928 18.7368 30.9577 18.6653C30.9889 18.5901 31.0152 18.4907 31.0388 18.3067C31.1359 17.5523 31.1972 17.0618 31.1916 16.6984C31.1863 16.3573 31.1215 16.2532 31.0678 16.1941C31.0109 16.1315 30.903 16.0517 30.5448 16.0028C30.1693 15.9516 29.6558 15.9501 28.8752 15.9501H18.1218C17.3412 15.9501 16.8277 15.9516 16.4522 16.0028ZM22.3521 31.3431C22.3521 31.3431 22.3526 31.3429 22.3535 31.3427Z" fill="white"/>
</svg>
