<svg width="46" height="46" viewBox="0 0 46 46" fill="none" xmlns="http://www.w3.org/2000/svg">
<path d="M0 23C0 4.0595 4.0595 0 23 0C41.9405 0 46 4.0595 46 23C46 41.9405 41.9405 46 23 46C4.0595 46 0 41.9405 0 23Z" fill="#3AB5FE"/>
<path fill-rule="evenodd" clip-rule="evenodd" d="M22.9753 32.9515C22.9909 32.952 23.0064 32.952 23.0219 32.9515C23.4189 32.9469 23.7701 32.8283 24.121 32.6548C24.4579 32.4883 24.8415 32.2463 25.2944 31.9605L29.3919 29.3756C30.1839 28.8761 30.839 28.4628 31.3111 28.0631C31.8092 27.6415 32.1835 27.1705 32.3101 26.5304C32.4362 25.8931 32.2725 25.3105 31.9788 24.7212C31.6987 24.1593 31.256 23.5077 30.718 22.7158L26.6327 16.7023C25.9531 15.7019 25.4002 14.8881 24.8907 14.3312C24.3657 13.7575 23.7738 13.3288 22.9984 13.3286C22.9985 13.3286 22.9982 13.3286 22.9984 13.3286C22.2226 13.3286 21.63 13.7574 21.105 14.3312C20.5955 14.8881 20.0426 15.7019 19.363 16.7023L15.2777 22.7157C14.7397 23.5077 14.297 24.1592 14.0169 24.7212C13.7231 25.3105 13.5595 25.8931 13.6855 26.5304C13.8122 27.1705 14.1865 27.6415 14.6845 28.0631C15.1567 28.4628 15.8117 28.876 16.6037 29.3756L20.7012 31.9605C21.1541 32.2463 21.5378 32.4883 21.8746 32.6548C22.226 32.8285 22.5777 32.9472 22.9753 32.9515ZM20.4636 17.5184C21.1828 16.4599 21.6807 15.7301 22.115 15.2554C22.2435 15.1149 22.3561 15.0085 22.4564 14.9283L24.0328 24.3869L15.0988 25.6613C15.1338 25.5637 15.1808 25.4549 15.2421 25.332C15.4762 24.8625 15.8653 24.2871 16.4376 23.4447L20.4636 17.5184ZM15.528 26.983C15.5414 26.9946 15.5551 27.0063 15.5691 27.0182C15.9592 27.3484 16.5314 27.7113 17.3767 28.2446L21.4028 30.7844C21.8923 31.0932 22.2158 31.2963 22.4813 31.4275C22.4876 31.4306 22.4938 31.4336 22.4999 31.4366L23.9123 25.787L15.528 26.983ZM23.9029 15.2799L25.4227 24.3985L30.8825 25.6223C30.8492 25.5349 30.8068 25.4388 30.7535 25.332C30.5195 24.8625 30.1304 24.2871 29.558 23.4447L25.532 17.5184C24.8251 16.4779 24.332 15.755 23.9029 15.2799ZM30.5132 26.9425C30.4859 26.9672 30.4571 26.9924 30.4266 27.0182C30.0365 27.3484 29.4643 27.7113 28.6189 28.2446L24.5929 30.7844C24.3522 30.9362 24.1517 31.0625 23.9784 31.1672L25.3253 25.7797L30.5132 26.9425Z" fill="white"/>
</svg>
