<svg width="46" height="46" viewBox="0 0 46 46" fill="none" xmlns="http://www.w3.org/2000/svg">
<path d="M0 23C0 4.0595 4.0595 0 23 0C41.9405 0 46 4.0595 46 23C46 41.9405 41.9405 46 23 46C4.0595 46 0 41.9405 0 23Z" fill="#104584"/>
<path d="M15.4706 14.9257C15.4706 14.5477 15.1641 14.2412 14.7861 14.2412C14.408 14.2412 14.1016 14.5477 14.1016 14.9257V25.0163C14.1015 26.479 14.1015 27.6463 14.2246 28.5618C14.3518 29.5076 14.6215 30.2865 15.2377 30.9027C15.8539 31.5189 16.6328 31.7886 17.5786 31.9158C18.4941 32.0389 19.6614 32.0388 21.1241 32.0388H31.2147C31.5927 32.0388 31.8992 31.7324 31.8992 31.3543C31.8992 30.9763 31.5927 30.6698 31.2147 30.6698H21.175C19.6497 30.6698 18.5747 30.6683 17.761 30.5589C17.6313 30.5415 17.511 30.5216 17.3991 30.4992L19.4842 27.4179C19.6961 27.1048 19.614 26.6792 19.3009 26.4674C18.9878 26.2555 18.5622 26.3376 18.3503 26.6507L16.1601 29.8873C15.8673 29.5715 15.683 29.1349 15.5815 28.3794C15.4721 27.5657 15.4706 26.4906 15.4706 24.9654V14.9257Z" fill="white"/>
<path d="M31.797 16.1983C31.9957 15.8767 31.8961 15.4549 31.5745 15.2562C31.2529 15.0575 30.831 15.1571 30.6323 15.4787L28.9406 18.2168C28.7419 18.5384 28.8415 18.9603 29.1631 19.159C29.4848 19.3577 29.9066 19.258 30.1053 18.9364L31.797 16.1983Z" fill="white"/>
<path d="M28.7895 21.0661C28.9882 20.7444 28.8886 20.3226 28.5669 20.1239C28.2453 19.9252 27.8235 20.0248 27.6248 20.3465L25.002 24.5916C24.9389 24.6937 24.8818 24.79 24.828 24.8809C24.6864 25.1199 24.5669 25.3216 24.4174 25.4941C24.2309 25.7092 24.1475 25.7001 24.1 25.6918C23.9323 25.6622 23.7369 25.5049 23.3919 25.0583C23.3535 25.0087 23.3123 24.9542 23.2689 24.8969C23.1494 24.7393 23.014 24.5605 22.8799 24.4039C22.6918 24.1844 22.4551 23.9447 22.1571 23.7736C21.6282 23.47 21.0988 23.4858 20.646 23.7271C20.2544 23.9358 19.9664 24.2892 19.7674 24.5635C19.5453 24.8695 19.6134 25.2975 19.9194 25.5195C20.2254 25.7416 20.6534 25.6735 20.8754 25.3675C21.0551 25.1199 21.1906 24.9882 21.2899 24.9353C21.3274 24.9153 21.3451 24.9148 21.3523 24.9149C21.3598 24.915 21.398 24.9165 21.4755 24.9609C21.5752 25.0182 21.6924 25.1221 21.8403 25.2947C21.946 25.4181 22.042 25.5449 22.1513 25.6892C22.2003 25.754 22.252 25.8222 22.3085 25.8953C22.6159 26.2931 23.1053 26.9068 23.8628 27.0401C24.6021 27.1702 25.1291 26.7631 25.4517 26.391C25.6907 26.1154 25.9023 25.7567 26.0562 25.4958C26.0973 25.4262 26.1343 25.3635 26.1666 25.3112L28.7895 21.0661Z" fill="white"/>
</svg>
