<svg width="46" height="46" viewBox="0 0 46 46" fill="none" xmlns="http://www.w3.org/2000/svg">
<path d="M0 23C0 4.0595 4.0595 0 23 0C41.9405 0 46 4.0595 46 23C46 41.9405 41.9405 46 23 46C4.0595 46 0 41.9405 0 23Z" fill="#2C9C93"/>
<path d="M22.0857 24.9655C22.0857 24.4614 22.4943 24.0528 22.9984 24.0528H23.0066C23.5107 24.0528 23.9193 24.4614 23.9193 24.9655C23.9193 25.4696 23.5107 25.8782 23.0066 25.8782H22.9984C22.4943 25.8782 22.0857 25.4696 22.0857 24.9655Z" fill="white"/>
<path fill-rule="evenodd" clip-rule="evenodd" d="M21.6752 14.2229C21.9375 13.8091 22.3409 13.3286 22.9983 13.3286C23.6556 13.3286 24.059 13.8091 24.3213 14.2229C24.5904 14.6476 24.868 15.2594 25.1976 15.9855L26.0551 17.8744C26.2484 18.3003 26.3795 18.5884 26.496 18.8045C26.6097 19.0157 26.6856 19.1115 26.7479 19.1693C26.9427 19.3498 27.1765 19.4428 27.4088 19.449C27.4744 19.4507 27.5747 19.4384 27.7794 19.3657C27.9912 19.2905 28.2578 19.1726 28.6603 18.9937L28.6895 18.9807C29.1087 18.7944 29.4646 18.6361 29.751 18.5378C30.0234 18.4443 30.3831 18.3472 30.7445 18.4506C31.3184 18.6148 31.7268 19.0916 31.8609 19.6493C31.9424 19.9883 31.8713 20.336 31.7881 20.6353C31.702 20.9446 31.5619 21.3323 31.393 21.7998L29.8484 26.0745C29.5335 26.9462 29.2793 27.6498 29.0159 28.1959C28.7434 28.761 28.4321 29.222 27.9686 29.5683C27.5 29.9184 26.9813 30.0726 26.3845 30.1449C25.8177 30.2136 25.1225 30.2136 24.2773 30.2135H21.7192C20.874 30.2136 20.1788 30.2136 19.612 30.1449C19.0152 30.0726 18.4965 29.9184 18.0279 29.5683C17.5644 29.222 17.2531 28.761 16.9806 28.1959C16.7172 27.6498 16.4631 26.9463 16.1481 26.0747L14.6036 21.7999C14.4346 21.3324 14.2945 20.9446 14.2084 20.6353C14.1252 20.336 14.0541 19.9883 14.1356 19.6493C14.2697 19.0916 14.6781 18.6148 15.252 18.4506C15.6134 18.3472 15.9731 18.4443 16.2455 18.5378C16.5319 18.6361 16.8878 18.7943 17.3069 18.9807L17.3362 18.9937C17.7387 19.1726 18.0053 19.2905 18.2171 19.3657C18.4218 19.4384 18.5221 19.4507 18.5877 19.449C18.82 19.4428 19.0538 19.3498 19.2486 19.1693C19.3109 19.1115 19.3868 19.0157 19.5005 18.8045C19.617 18.5884 19.7481 18.3003 19.9414 17.8744L20.7989 15.9855C21.1284 15.2594 21.4061 14.6476 21.6752 14.2229ZM22.8317 14.9557C22.6201 15.2897 22.3811 15.8121 22.0231 16.6009L21.1784 18.4616C20.9972 18.8608 20.847 19.1917 20.7059 19.4537C20.5596 19.7252 20.3995 19.9691 20.1794 20.1732C19.7522 20.5693 19.2042 20.8023 18.6237 20.8175C18.3203 20.8255 18.0396 20.7554 17.7592 20.6559C17.4915 20.5609 17.1764 20.4208 16.8036 20.2551L16.7801 20.2447C16.3238 20.0419 16.0234 19.9091 15.8009 19.8327C15.6897 19.7945 15.6283 19.782 15.6017 19.7776C15.5538 19.802 15.4947 19.8593 15.468 19.964L15.4682 19.9666C15.4684 19.9814 15.4698 20.0614 15.5274 20.2683C15.5979 20.5217 15.7198 20.8604 15.9007 21.3612L17.4231 25.5746C17.7536 26.4892 17.9846 27.126 18.2137 27.6012C18.4372 28.0645 18.6294 28.3087 18.8473 28.4715C19.0602 28.6305 19.3225 28.7308 19.7766 28.7858C20.2515 28.8433 20.8637 28.8445 21.7608 28.8445H24.2357C25.1328 28.8445 25.745 28.8433 26.2199 28.7858C26.674 28.7308 26.9363 28.6305 27.1492 28.4715C27.3671 28.3087 27.5593 28.0645 27.7828 27.6012C28.0119 27.126 28.2429 26.4892 28.5734 25.5746L30.0958 21.3612C30.2767 20.8604 30.3986 20.5217 30.4691 20.2683C30.5267 20.0614 30.5281 19.9814 30.5283 19.9666L30.5285 19.964C30.5018 19.8593 30.4427 19.802 30.3948 19.7776C30.3682 19.782 30.3068 19.7945 30.1956 19.8327C29.9731 19.9091 29.6727 20.0419 29.2164 20.2447L29.1929 20.2551C28.8201 20.4208 28.505 20.5609 28.2373 20.6559C27.9569 20.7554 27.6762 20.8255 27.3728 20.8175C26.7923 20.8023 26.2443 20.5693 25.8171 20.1732C25.597 19.9691 25.4369 19.7252 25.2906 19.4537C25.1495 19.1917 24.9993 18.8608 24.8181 18.4616L23.9734 16.6009C23.6154 15.8121 23.3764 15.2897 23.1648 14.9557C23.0898 14.8373 23.0346 14.7693 22.9982 14.7311C22.9619 14.7693 22.9067 14.8373 22.8317 14.9557ZM23.0517 14.6858C23.0516 14.6862 23.0489 14.6881 23.0436 14.6902C23.049 14.6865 23.0517 14.6854 23.0517 14.6858ZM22.9529 14.6902C22.9476 14.6881 22.9449 14.6862 22.9448 14.6858C22.9448 14.6854 22.9475 14.6865 22.9529 14.6902Z" fill="white"/>
<path d="M18.4349 31.5826C18.0569 31.5826 17.7504 31.8891 17.7504 32.2671C17.7504 32.6452 18.0569 32.9516 18.4349 32.9516H27.5619C27.94 32.9516 28.2464 32.6452 28.2464 32.2671C28.2464 31.8891 27.94 31.5826 27.5619 31.5826H18.4349Z" fill="white"/>
</svg>
