<svg width="22" height="16" viewBox="0 0 22 16" fill="none" xmlns="http://www.w3.org/2000/svg">
<path opacity="0.4" d="M0 2.66667C0 1.19583 1.19583 0 2.66667 0H18.6667C20.1375 0 21.3333 1.19583 21.3333 2.66667V4H0V2.66667ZM0 6.66667H21.3333V13.3333C21.3333 14.8042 20.1375 16 18.6667 16H2.66667C1.19583 16 0 14.8042 0 13.3333V6.66667ZM2.66667 12.3333C2.66667 12.8875 3.1125 13.3333 3.66667 13.3333H5.66667C6.22083 13.3333 6.66667 12.8875 6.66667 12.3333C6.66667 11.7792 6.22083 11.3333 5.66667 11.3333H3.66667C3.1125 11.3333 2.66667 11.7792 2.66667 12.3333ZM8.66667 12.3333C8.66667 12.8875 9.1125 13.3333 9.66667 13.3333H12.3333C12.8875 13.3333 13.3333 12.8875 13.3333 12.3333C13.3333 11.7792 12.8875 11.3333 12.3333 11.3333H9.66667C9.1125 11.3333 8.66667 11.7792 8.66667 12.3333Z" fill="#3AB5FE"/>
<path d="M0 4H21.3333V6.66667H0V4Z" fill="#3AB5FE"/>
</svg>
