<svg width="24" height="24" viewBox="0 0 24 24" fill="none" xmlns="http://www.w3.org/2000/svg">
<path opacity="0.4" d="M6 4.80002V7.80002C9.645 7.80002 12.6 10.755 12.6 14.4C12.6 16.155 11.9175 17.7488 10.8 18.93V21.6H18C19.3237 21.6 20.4 20.5238 20.4 19.2V8.79377C20.4 8.15627 20.1487 7.54502 19.6987 7.09502L15.7013 3.10127C15.2513 2.65127 14.6437 2.40002 14.0062 2.40002H8.4C7.07625 2.40002 6 3.47627 6 4.80002ZM13.8 4.59377L18.2062 9.00002H14.7C14.2012 9.00002 13.8 8.59877 13.8 8.10002V4.59377Z" fill="#3AB5FE"/>
<path d="M9.00001 18.1462C10.0988 17.265 10.8 15.915 10.8 14.4C10.8 11.7487 8.65126 9.59998 6.00001 9.59998C3.34876 9.59998 1.20001 11.7487 1.20001 14.4C1.20001 15.915 1.90126 17.2687 3.00001 18.1462V22.0875C3.00001 22.4812 3.31876 22.8 3.71251 22.8C3.83626 22.8 3.95626 22.7662 4.06501 22.7062L6.00001 21.6L7.93501 22.7062C8.04376 22.7662 8.16376 22.8 8.28751 22.8C8.68126 22.8 9.00001 22.4812 9.00001 22.0875V18.1462ZM4.20001 14.4C4.20001 13.4062 5.00626 12.6 6.00001 12.6C6.99376 12.6 7.80001 13.4062 7.80001 14.4C7.80001 15.3937 6.99376 16.2 6.00001 16.2C5.00626 16.2 4.20001 15.3937 4.20001 14.4Z" fill="#3AB5FE"/>
</svg>
