<svg width="24" height="24" viewBox="0 0 24 24" fill="none" xmlns="http://www.w3.org/2000/svg">
<path opacity="0.4" d="M1.19995 5.99998C1.19995 4.67623 2.2762 3.59998 3.59995 3.59998H14.4C15.7237 3.59998 16.8 4.67623 16.8 5.99998V7.19998H18.7012C19.3387 7.19998 19.95 7.45123 20.4 7.90123L22.0987 9.59998C22.5487 10.05 22.8 10.6612 22.8 11.2987V16.8C22.8 18.1237 21.7237 19.2 20.4 19.2H20.2762C19.8862 20.5837 18.6112 21.6 17.1 21.6C15.5887 21.6 14.3175 20.5837 13.9237 19.2H10.0762C9.6862 20.5837 8.4112 21.6 6.89995 21.6C5.3887 21.6 4.11745 20.5837 3.7237 19.2H3.59995C2.2762 19.2 1.19995 18.1237 1.19995 16.8V5.99998ZM5.39995 18.3C5.39995 19.1287 6.0712 19.8 6.89995 19.8C7.7287 19.8 8.39995 19.1287 8.39995 18.3C8.39995 17.4712 7.7287 16.8 6.89995 16.8C6.0712 16.8 5.39995 17.4712 5.39995 18.3ZM5.69995 10.1812C5.69995 10.5225 5.97745 10.8 6.3187 10.8H8.02495L7.10995 13.725C7.00495 14.0587 7.2562 14.4 7.60495 14.4C7.7287 14.4 7.85245 14.355 7.9462 14.2725L12.0862 10.6837C12.2212 10.5675 12.3 10.395 12.3 10.215C12.3 9.87373 12.0225 9.59623 11.6812 9.59623H9.97495L10.89 6.67123C10.995 6.33748 10.7437 5.99623 10.395 5.99623C10.2712 5.99623 10.1475 6.04123 10.0537 6.12373L5.9137 9.71623C5.7787 9.83248 5.69995 10.005 5.69995 10.185V10.1812ZM15.6 18.3C15.6 19.1287 16.2712 19.8 17.1 19.8C17.9287 19.8 18.6 19.1287 18.6 18.3C18.6 17.4712 17.9287 16.8 17.1 16.8C16.2712 16.8 15.6 17.4712 15.6 18.3ZM16.8 9.59998V13.2H20.4V11.2987L18.7012 9.59998H16.8Z" fill="#3AB5FE"/>
<path d="M8.02495 10.8H6.3187C5.97745 10.8 5.69995 10.5225 5.69995 10.1812C5.69995 10.0012 5.7787 9.8325 5.9137 9.7125L10.0537 6.1275C10.1475 6.045 10.2675 6 10.395 6C10.7437 6 10.995 6.34125 10.89 6.675L9.97495 9.6H11.6812C12.0225 9.6 12.3 9.8775 12.3 10.2187C12.3 10.3987 12.2212 10.5675 12.0862 10.6875L7.9462 14.2725C7.85245 14.355 7.73245 14.4 7.60495 14.4C7.2562 14.4 7.00495 14.0587 7.10995 13.725L8.02495 10.8Z" fill="#3AB5FE"/>
</svg>
