<svg width="255" height="141" viewBox="0 0 255 141" fill="none" xmlns="http://www.w3.org/2000/svg">
<rect width="255" height="141" rx="16" fill="white"/>
<path d="M17.12 41.5V29.98H20.616C20.7387 29.98 20.9467 29.9827 21.24 29.988C21.5387 29.9933 21.824 30.0147 22.096 30.052C22.9707 30.1747 23.7013 30.5 24.288 31.028C24.8747 31.556 25.3147 32.228 25.608 33.044C25.9013 33.86 26.048 34.7587 26.048 35.74C26.048 36.7213 25.9013 37.62 25.608 38.436C25.3147 39.252 24.8747 39.924 24.288 40.452C23.7013 40.98 22.9707 41.3053 22.096 41.428C21.8293 41.46 21.544 41.4813 21.24 41.492C20.936 41.4973 20.728 41.5 20.616 41.5H17.12ZM18.336 40.372H20.616C20.8347 40.372 21.0693 40.3667 21.32 40.356C21.576 40.34 21.7947 40.3133 21.976 40.276C22.648 40.1587 23.1893 39.8867 23.6 39.46C24.016 39.0333 24.32 38.5 24.512 37.86C24.704 37.2147 24.8 36.508 24.8 35.74C24.8 34.9667 24.704 34.2573 24.512 33.612C24.32 32.9667 24.016 32.4333 23.6 32.012C23.184 31.5907 22.6427 31.3213 21.976 31.204C21.7947 31.1667 21.5733 31.1427 21.312 31.132C21.056 31.116 20.824 31.108 20.616 31.108H18.336V40.372ZM30.022 41.74C29.3713 41.74 28.8247 41.6227 28.382 41.388C27.9447 41.1533 27.6167 40.8413 27.398 40.452C27.1793 40.0627 27.07 39.6387 27.07 39.18C27.07 38.7107 27.1633 38.3107 27.35 37.98C27.542 37.644 27.8007 37.3693 28.126 37.156C28.4567 36.9427 28.838 36.78 29.27 36.668C29.7073 36.5613 30.19 36.468 30.718 36.388C31.2513 36.3027 31.7713 36.2307 32.278 36.172C32.79 36.108 33.238 36.0467 33.622 35.988L33.206 36.244C33.222 35.3907 33.0567 34.7587 32.71 34.348C32.3633 33.9373 31.7607 33.732 30.902 33.732C30.31 33.732 29.8087 33.8653 29.398 34.132C28.9927 34.3987 28.7073 34.82 28.542 35.396L27.398 35.06C27.5953 34.2867 27.9927 33.6867 28.59 33.26C29.1873 32.8333 29.9633 32.62 30.918 32.62C31.7073 32.62 32.3767 32.7693 32.926 33.068C33.4807 33.3613 33.8727 33.788 34.102 34.348C34.2087 34.5987 34.278 34.8787 34.31 35.188C34.342 35.4973 34.358 35.812 34.358 36.132V41.5H33.31V39.332L33.614 39.46C33.3207 40.2013 32.8647 40.7667 32.246 41.156C31.6273 41.5453 30.886 41.74 30.022 41.74ZM30.158 40.724C30.7073 40.724 31.1873 40.6253 31.598 40.428C32.0087 40.2307 32.3393 39.9613 32.59 39.62C32.8407 39.2733 33.0033 38.884 33.078 38.452C33.142 38.1747 33.1767 37.8707 33.182 37.54C33.1873 37.204 33.19 36.9533 33.19 36.788L33.638 37.02C33.238 37.0733 32.8033 37.1267 32.334 37.18C31.87 37.2333 31.4113 37.2947 30.958 37.364C30.51 37.4333 30.1047 37.516 29.742 37.612C29.4967 37.6813 29.2593 37.78 29.03 37.908C28.8007 38.0307 28.6113 38.196 28.462 38.404C28.318 38.612 28.246 38.8707 28.246 39.18C28.246 39.4307 28.3073 39.6733 28.43 39.908C28.558 40.1427 28.7607 40.3373 29.038 40.492C29.3207 40.6467 29.694 40.724 30.158 40.724ZM36.8683 45.34L38.5403 40.804L38.5643 42.148L34.7803 32.86H36.0283L39.1323 40.628H38.6203L41.4843 32.86H42.6843L38.0443 45.34H36.8683ZM46.9778 41.732C45.9644 41.732 45.1298 41.5133 44.4738 41.076C43.8231 40.6387 43.4231 40.0307 43.2738 39.252L44.4738 39.052C44.6018 39.5427 44.8924 39.9347 45.3458 40.228C45.8044 40.516 46.3698 40.66 47.0418 40.66C47.6978 40.66 48.2151 40.524 48.5938 40.252C48.9724 39.9747 49.1618 39.5987 49.1618 39.124C49.1618 38.8573 49.1004 38.6413 48.9778 38.476C48.8604 38.3053 48.6178 38.148 48.2498 38.004C47.8818 37.86 47.3324 37.6893 46.6018 37.492C45.8178 37.2787 45.2044 37.0653 44.7618 36.852C44.3191 36.6387 44.0044 36.3933 43.8178 36.116C43.6311 35.8333 43.5378 35.4893 43.5378 35.084C43.5378 34.5933 43.6764 34.164 43.9538 33.796C44.2311 33.4227 44.6151 33.1347 45.1058 32.932C45.5964 32.724 46.1671 32.62 46.8178 32.62C47.4684 32.62 48.0498 32.7267 48.5618 32.94C49.0791 33.148 49.4951 33.4413 49.8098 33.82C50.1244 34.1987 50.3111 34.6387 50.3698 35.14L49.1698 35.356C49.0898 34.8493 48.8364 34.4493 48.4098 34.156C47.9884 33.8573 47.4524 33.7027 46.8018 33.692C46.1884 33.676 45.6898 33.7933 45.3058 34.044C44.9218 34.2893 44.7298 34.6173 44.7298 35.028C44.7298 35.2573 44.7991 35.4547 44.9378 35.62C45.0764 35.78 45.3271 35.932 45.6898 36.076C46.0578 36.22 46.5804 36.3773 47.2578 36.548C48.0524 36.7507 48.6764 36.964 49.1298 37.188C49.5831 37.412 49.9058 37.676 50.0978 37.98C50.2898 38.284 50.3858 38.66 50.3858 39.108C50.3858 39.924 50.0818 40.5667 49.4738 41.036C48.8711 41.5 48.0391 41.732 46.9778 41.732ZM58.3311 41.74C57.4725 41.74 56.7391 41.5453 56.1311 41.156C55.5231 40.7667 55.0565 40.228 54.7311 39.54C54.4058 38.852 54.2431 38.0627 54.2431 37.172C54.2431 36.2653 54.4085 35.4707 54.7391 34.788C55.0698 34.1053 55.5391 33.5747 56.1471 33.196C56.7605 32.812 57.4885 32.62 58.3311 32.62C59.1951 32.62 59.9311 32.8147 60.5391 33.204C61.1525 33.588 61.6191 34.124 61.9391 34.812C62.2645 35.4947 62.4271 36.2813 62.4271 37.172C62.4271 38.0787 62.2645 38.876 61.9391 39.564C61.6138 40.2467 61.1445 40.78 60.5311 41.164C59.9178 41.548 59.1845 41.74 58.3311 41.74ZM58.3311 40.612C59.2911 40.612 60.0058 40.2947 60.4751 39.66C60.9445 39.02 61.1791 38.1907 61.1791 37.172C61.1791 36.1267 60.9418 35.2947 60.4671 34.676C59.9978 34.0573 59.2858 33.748 58.3311 33.748C57.6858 33.748 57.1525 33.8947 56.7311 34.188C56.3151 34.476 56.0031 34.8787 55.7951 35.396C55.5925 35.908 55.4911 36.5 55.4911 37.172C55.4911 38.212 55.7311 39.0467 56.2111 39.676C56.6911 40.3 57.3978 40.612 58.3311 40.612ZM70.1119 41.5V37.092C70.1119 36.612 70.0665 36.172 69.9759 35.772C69.8852 35.3667 69.7385 35.0147 69.5359 34.716C69.3385 34.412 69.0799 34.1773 68.7599 34.012C68.4452 33.8467 68.0612 33.764 67.6079 33.764C67.1919 33.764 66.8239 33.836 66.5039 33.98C66.1892 34.124 65.9225 34.332 65.7039 34.604C65.4905 34.8707 65.3279 35.196 65.2159 35.58C65.1039 35.964 65.0479 36.4013 65.0479 36.892L64.2159 36.708C64.2159 35.8227 64.3705 35.0787 64.6799 34.476C64.9892 33.8733 65.4159 33.4173 65.9599 33.108C66.5039 32.7987 67.1279 32.644 67.8319 32.644C68.3492 32.644 68.7999 32.724 69.1839 32.884C69.5732 33.044 69.9012 33.26 70.1679 33.532C70.4399 33.804 70.6585 34.116 70.8239 34.468C70.9892 34.8147 71.1092 35.1853 71.1839 35.58C71.2585 35.9693 71.2959 36.3587 71.2959 36.748V41.5H70.1119ZM63.8639 41.5V32.86H64.9279V34.988H65.0479V41.5H63.8639ZM78.999 41.5V31.108H74.975V29.98H84.199V31.108H80.175V41.5H78.999ZM84.365 41.5V32.86H85.421V34.94L85.213 34.668C85.309 34.412 85.4343 34.1773 85.589 33.964C85.7437 33.7453 85.9117 33.5667 86.093 33.428C86.317 33.2307 86.5783 33.0813 86.877 32.98C87.1757 32.8733 87.477 32.812 87.781 32.796C88.085 32.7747 88.3623 32.796 88.613 32.86V33.964C88.2983 33.884 87.9543 33.8653 87.581 33.908C87.2077 33.9507 86.8637 34.1 86.549 34.356C86.261 34.58 86.045 34.8493 85.901 35.164C85.757 35.4733 85.661 35.804 85.613 36.156C85.565 36.5027 85.541 36.8467 85.541 37.188V41.5H84.365ZM93.3104 41.74C92.4677 41.74 91.737 41.5533 91.1184 41.18C90.505 40.8067 90.0277 40.2813 89.6864 39.604C89.345 38.9267 89.1744 38.132 89.1744 37.22C89.1744 36.276 89.3424 35.46 89.6784 34.772C90.0144 34.084 90.4864 33.5533 91.0944 33.18C91.7077 32.8067 92.4304 32.62 93.2624 32.62C94.1157 32.62 94.8437 32.8173 95.4464 33.212C96.049 33.6013 96.505 34.1613 96.8144 34.892C97.1237 35.6227 97.265 36.4947 97.2384 37.508H96.0384V37.092C96.017 35.972 95.7744 35.1267 95.3104 34.556C94.8517 33.9853 94.1797 33.7 93.2944 33.7C92.3664 33.7 91.6544 34.0013 91.1584 34.604C90.6677 35.2067 90.4224 36.0653 90.4224 37.18C90.4224 38.268 90.6677 39.1133 91.1584 39.716C91.6544 40.3133 92.3557 40.612 93.2624 40.612C93.881 40.612 94.4197 40.4707 94.8784 40.188C95.3424 39.9 95.7077 39.4867 95.9744 38.948L97.0704 39.372C96.729 40.124 96.225 40.708 95.5584 41.124C94.897 41.5347 94.1477 41.74 93.3104 41.74ZM90.0064 37.508V36.524H96.6064V37.508H90.0064ZM101.01 41.74C100.359 41.74 99.8122 41.6227 99.3695 41.388C98.9322 41.1533 98.6042 40.8413 98.3855 40.452C98.1668 40.0627 98.0575 39.6387 98.0575 39.18C98.0575 38.7107 98.1508 38.3107 98.3375 37.98C98.5295 37.644 98.7882 37.3693 99.1135 37.156C99.4442 36.9427 99.8255 36.78 100.258 36.668C100.695 36.5613 101.178 36.468 101.706 36.388C102.239 36.3027 102.759 36.2307 103.266 36.172C103.778 36.108 104.226 36.0467 104.61 35.988L104.194 36.244C104.21 35.3907 104.044 34.7587 103.698 34.348C103.351 33.9373 102.748 33.732 101.89 33.732C101.298 33.732 100.796 33.8653 100.386 34.132C99.9802 34.3987 99.6948 34.82 99.5295 35.396L98.3855 35.06C98.5828 34.2867 98.9802 33.6867 99.5775 33.26C100.175 32.8333 100.951 32.62 101.906 32.62C102.695 32.62 103.364 32.7693 103.914 33.068C104.468 33.3613 104.86 33.788 105.09 34.348C105.196 34.5987 105.266 34.8787 105.298 35.188C105.33 35.4973 105.346 35.812 105.346 36.132V41.5H104.298V39.332L104.602 39.46C104.308 40.2013 103.852 40.7667 103.234 41.156C102.615 41.5453 101.874 41.74 101.01 41.74ZM101.146 40.724C101.695 40.724 102.175 40.6253 102.586 40.428C102.996 40.2307 103.327 39.9613 103.578 39.62C103.828 39.2733 103.991 38.884 104.066 38.452C104.13 38.1747 104.164 37.8707 104.17 37.54C104.175 37.204 104.178 36.9533 104.178 36.788L104.626 37.02C104.226 37.0733 103.791 37.1267 103.322 37.18C102.858 37.2333 102.399 37.2947 101.946 37.364C101.498 37.4333 101.092 37.516 100.73 37.612C100.484 37.6813 100.247 37.78 100.018 37.908C99.7882 38.0307 99.5988 38.196 99.4495 38.404C99.3055 38.612 99.2335 38.8707 99.2335 39.18C99.2335 39.4307 99.2948 39.6733 99.4175 39.908C99.5455 40.1427 99.7482 40.3373 100.026 40.492C100.308 40.6467 100.682 40.724 101.146 40.724ZM111.812 41.5C111.327 41.6013 110.847 41.6413 110.372 41.62C109.903 41.5987 109.481 41.4973 109.108 41.316C108.74 41.1347 108.46 40.852 108.268 40.468C108.113 40.148 108.028 39.8253 108.012 39.5C108.001 39.1693 107.996 38.7933 107.996 38.372V30.46H109.164V38.324C109.164 38.6867 109.167 38.9907 109.172 39.236C109.183 39.476 109.239 39.6893 109.34 39.876C109.532 40.2333 109.836 40.4467 110.252 40.516C110.673 40.5853 111.193 40.5693 111.812 40.468V41.5ZM106.148 33.868V32.86H111.812V33.868H106.148ZM123.498 41.5L123.506 35.828C123.506 35.1613 123.32 34.6387 122.946 34.26C122.578 33.876 122.109 33.684 121.538 33.684C121.213 33.684 120.896 33.7587 120.586 33.908C120.277 34.0573 120.021 34.2973 119.818 34.628C119.621 34.9587 119.522 35.3907 119.522 35.924L118.826 35.724C118.81 35.1053 118.93 34.564 119.186 34.1C119.448 33.636 119.805 33.276 120.258 33.02C120.717 32.7587 121.234 32.628 121.81 32.628C122.68 32.628 123.376 32.8973 123.898 33.436C124.421 33.9693 124.682 34.692 124.682 35.604L124.674 41.5H123.498ZM113.186 41.5V32.86H114.242V34.988H114.37V41.5H113.186ZM118.354 41.5L118.362 35.908C118.362 35.22 118.178 34.6787 117.81 34.284C117.448 33.884 116.968 33.684 116.37 33.684C115.773 33.684 115.29 33.8893 114.922 34.3C114.554 34.7053 114.37 35.2467 114.37 35.924L113.666 35.54C113.666 34.9853 113.797 34.4893 114.058 34.052C114.32 33.6093 114.677 33.2627 115.13 33.012C115.584 32.756 116.098 32.628 116.674 32.628C117.224 32.628 117.712 32.7453 118.138 32.98C118.57 33.2147 118.909 33.556 119.154 34.004C119.4 34.452 119.522 34.996 119.522 35.636L119.514 41.5H118.354ZM130.046 41.74C129.203 41.74 128.473 41.5533 127.854 41.18C127.241 40.8067 126.763 40.2813 126.422 39.604C126.081 38.9267 125.91 38.132 125.91 37.22C125.91 36.276 126.078 35.46 126.414 34.772C126.75 34.084 127.222 33.5533 127.83 33.18C128.443 32.8067 129.166 32.62 129.998 32.62C130.851 32.62 131.579 32.8173 132.182 33.212C132.785 33.6013 133.241 34.1613 133.55 34.892C133.859 35.6227 134.001 36.4947 133.974 37.508H132.774V37.092C132.753 35.972 132.51 35.1267 132.046 34.556C131.587 33.9853 130.915 33.7 130.03 33.7C129.102 33.7 128.39 34.0013 127.894 34.604C127.403 35.2067 127.158 36.0653 127.158 37.18C127.158 38.268 127.403 39.1133 127.894 39.716C128.39 40.3133 129.091 40.612 129.998 40.612C130.617 40.612 131.155 40.4707 131.614 40.188C132.078 39.9 132.443 39.4867 132.71 38.948L133.806 39.372C133.465 40.124 132.961 40.708 132.294 41.124C131.633 41.5347 130.883 41.74 130.046 41.74ZM126.742 37.508V36.524H133.342V37.508H126.742ZM141.435 41.5V37.092C141.435 36.612 141.39 36.172 141.299 35.772C141.208 35.3667 141.062 35.0147 140.859 34.716C140.662 34.412 140.403 34.1773 140.083 34.012C139.768 33.8467 139.384 33.764 138.931 33.764C138.515 33.764 138.147 33.836 137.827 33.98C137.512 34.124 137.246 34.332 137.027 34.604C136.814 34.8707 136.651 35.196 136.539 35.58C136.427 35.964 136.371 36.4013 136.371 36.892L135.539 36.708C135.539 35.8227 135.694 35.0787 136.003 34.476C136.312 33.8733 136.739 33.4173 137.283 33.108C137.827 32.7987 138.451 32.644 139.155 32.644C139.672 32.644 140.123 32.724 140.507 32.884C140.896 33.044 141.224 33.26 141.491 33.532C141.763 33.804 141.982 34.116 142.147 34.468C142.312 34.8147 142.432 35.1853 142.507 35.58C142.582 35.9693 142.619 36.3587 142.619 36.748V41.5H141.435ZM135.187 41.5V32.86H136.251V34.988H136.371V41.5H135.187ZM149.079 41.5C148.594 41.6013 148.114 41.6413 147.639 41.62C147.17 41.5987 146.748 41.4973 146.375 41.316C146.007 41.1347 145.727 40.852 145.535 40.468C145.38 40.148 145.295 39.8253 145.279 39.5C145.268 39.1693 145.263 38.7933 145.263 38.372V30.46H146.431V38.324C146.431 38.6867 146.434 38.9907 146.439 39.236C146.45 39.476 146.506 39.6893 146.607 39.876C146.799 40.2333 147.103 40.4467 147.519 40.516C147.94 40.5853 148.46 40.5693 149.079 40.468V41.5ZM143.415 33.868V32.86H149.079V33.868H143.415Z" fill="#525252"/>
<rect x="201" y="16" width="38" height="38" rx="19" fill="#F5F5F5"/>
<path d="M216.667 35C216.206 35 215.833 35.3731 215.833 35.8334C215.833 36.2936 216.206 36.6667 216.667 36.6667H216.674C217.134 36.6667 217.507 36.2936 217.507 35.8334C217.507 35.3731 217.134 35 216.674 35H216.667Z" fill="black"/>
<path d="M219.996 35C219.536 35 219.163 35.3731 219.163 35.8334C219.163 36.2936 219.536 36.6667 219.996 36.6667H220.004C220.464 36.6667 220.837 36.2936 220.837 35.8334C220.837 35.3731 220.464 35 220.004 35H219.996Z" fill="black"/>
<path d="M223.326 35C222.866 35 222.493 35.3731 222.493 35.8334C222.493 36.2936 222.866 36.6667 223.326 36.6667H223.333C223.794 36.6667 224.167 36.2936 224.167 35.8334C224.167 35.3731 223.794 35 223.333 35H223.326Z" fill="black"/>
<path d="M216.667 38.3334C216.206 38.3334 215.833 38.7064 215.833 39.1667C215.833 39.6269 216.206 40 216.667 40H216.674C217.134 40 217.507 39.6269 217.507 39.1667C217.507 38.7064 217.134 38.3334 216.674 38.3334H216.667Z" fill="black"/>
<path d="M219.996 38.3334C219.536 38.3334 219.163 38.7064 219.163 39.1667C219.163 39.6269 219.536 40 219.996 40H220.004C220.464 40 220.837 39.6269 220.837 39.1667C220.837 38.7064 220.464 38.3334 220.004 38.3334H219.996Z" fill="black"/>
<path fill-rule="evenodd" clip-rule="evenodd" d="M215.625 26.6667C215.625 26.3215 215.345 26.0417 215 26.0417C214.655 26.0417 214.375 26.3215 214.375 26.6667V27.1957C213.704 27.3858 213.139 27.6947 212.668 28.2037C212.02 28.9045 211.732 29.79 211.594 30.8996C211.458 31.9869 211.458 33.3804 211.458 35.1584V35.675C211.458 37.453 211.458 38.8464 211.594 39.9338C211.732 41.0434 212.02 41.9289 212.668 42.6297C213.323 43.3375 214.161 43.6584 215.209 43.8109C216.224 43.9584 217.521 43.9584 219.158 43.9584H220.842C222.479 43.9584 223.776 43.9584 224.791 43.8109C225.839 43.6584 226.677 43.3375 227.332 42.6297C227.98 41.9289 228.268 41.0434 228.406 39.9338C228.542 38.8464 228.542 37.453 228.542 35.675V35.1584C228.542 33.3804 228.542 31.9869 228.406 30.8996C228.268 29.79 227.98 28.9045 227.332 28.2037C226.861 27.6947 226.296 27.3858 225.625 27.1957V26.6667C225.625 26.3215 225.345 26.0417 225 26.0417C224.655 26.0417 224.375 26.3215 224.375 26.6667V26.9716C223.428 26.875 222.263 26.875 220.842 26.875H219.158C217.737 26.875 216.572 26.875 215.625 26.9716V26.6667ZM214.399 28.5049C214.473 28.7667 214.714 28.9584 215 28.9584C215.345 28.9584 215.625 28.6785 215.625 28.3334V28.2288C216.509 28.1263 217.652 28.125 219.208 28.125H220.792C222.348 28.125 223.491 28.1263 224.375 28.2288V28.3334C224.375 28.6785 224.655 28.9584 225 28.9584C225.286 28.9584 225.527 28.7667 225.601 28.5049C225.941 28.6399 226.198 28.8188 226.414 29.0525C226.809 29.4787 227.042 30.0633 227.165 31.047C227.138 31.0435 227.111 31.0417 227.083 31.0417H212.917C212.889 31.0417 212.862 31.0435 212.835 31.047C212.958 30.0633 213.191 29.4787 213.586 29.0525C213.802 28.8188 214.059 28.6399 214.399 28.5049ZM212.742 32.2669C212.709 33.0693 212.708 34.0303 212.708 35.2027V35.6307C212.708 37.4626 212.709 38.7783 212.834 39.7795C212.957 40.7674 213.19 41.3537 213.586 41.7809C213.974 42.2012 214.498 42.4443 215.389 42.5738C216.304 42.7068 217.51 42.7084 219.208 42.7084H220.792C222.49 42.7084 223.696 42.7068 224.611 42.5738C225.502 42.4443 226.026 42.2012 226.414 41.7809C226.81 41.3537 227.043 40.7674 227.166 39.7795C227.291 38.7783 227.292 37.4626 227.292 35.6307V35.2027C227.292 34.0303 227.291 33.0693 227.258 32.2669C227.203 32.283 227.144 32.2917 227.083 32.2917H212.917C212.856 32.2917 212.797 32.283 212.742 32.2669Z" fill="black"/>
<path d="M24.19 116V91.283L18.52 94.748V89.162L24.19 85.76H29.356V116H24.19ZM33.996 115.958V111.548L46.932 100.019C47.94 99.123 48.64 98.276 49.032 97.478C49.424 96.68 49.62 95.91 49.62 95.168C49.62 94.16 49.403 93.264 48.969 92.48C48.535 91.682 47.933 91.052 47.163 90.59C46.407 90.128 45.532 89.897 44.538 89.897C43.488 89.897 42.557 90.142 41.745 90.632C40.947 91.108 40.324 91.745 39.876 92.543C39.428 93.341 39.218 94.202 39.246 95.126H34.038C34.038 93.11 34.486 91.353 35.382 89.855C36.292 88.357 37.538 87.195 39.12 86.369C40.716 85.543 42.557 85.13 44.643 85.13C46.575 85.13 48.311 85.564 49.851 86.432C51.391 87.286 52.602 88.476 53.484 90.002C54.366 91.514 54.807 93.257 54.807 95.231C54.807 96.673 54.611 97.884 54.219 98.864C53.827 99.844 53.239 100.747 52.455 101.573C51.685 102.399 50.726 103.316 49.578 104.324L40.401 112.451L39.939 111.191H54.807V115.958H33.996ZM58.8685 116L69.2845 90.548H56.0755V85.76H74.7025V90.548L64.3285 116H58.8685Z" fill="black"/>
<rect x="188.125" y="70" width="28" height="14" rx="7" fill="#3AB5FE"/>
<path d="M196.485 80.12C196.117 80.12 195.792 80.0467 195.509 79.9C195.226 79.7507 195.005 79.544 194.845 79.28C194.685 79.016 194.605 78.708 194.605 78.356C194.605 78.012 194.686 77.7013 194.849 77.424C195.014 77.1467 195.262 76.9333 195.593 76.784L195.581 77.044C195.312 76.9133 195.105 76.7293 194.961 76.492C194.817 76.252 194.745 75.9867 194.745 75.696C194.745 75.3707 194.82 75.0907 194.969 74.856C195.118 74.6213 195.324 74.44 195.585 74.312C195.846 74.184 196.146 74.12 196.485 74.12C196.824 74.12 197.124 74.184 197.385 74.312C197.646 74.44 197.852 74.6213 198.001 74.856C198.15 75.0907 198.225 75.3707 198.225 75.696C198.225 75.9867 198.157 76.2507 198.021 76.488C197.885 76.7227 197.676 76.908 197.393 77.044L197.377 76.788C197.708 76.932 197.956 77.144 198.121 77.424C198.289 77.7013 198.373 78.012 198.373 78.356C198.373 78.708 198.292 79.016 198.129 79.28C197.969 79.544 197.746 79.7507 197.461 79.9C197.178 80.0467 196.853 80.12 196.485 80.12ZM196.485 79.44C196.821 79.44 197.093 79.348 197.301 79.164C197.512 78.9773 197.617 78.708 197.617 78.356C197.617 78.0013 197.513 77.732 197.305 77.548C197.1 77.3613 196.826 77.268 196.485 77.268C196.146 77.268 195.873 77.3613 195.665 77.548C195.46 77.732 195.357 78.0013 195.357 78.356C195.357 78.708 195.461 78.9773 195.669 79.164C195.877 79.348 196.149 79.44 196.485 79.44ZM196.485 76.584C196.778 76.584 197.016 76.5107 197.197 76.364C197.378 76.2147 197.469 75.992 197.469 75.696C197.469 75.4 197.378 75.1787 197.197 75.032C197.016 74.8827 196.778 74.808 196.485 74.808C196.194 74.808 195.957 74.8827 195.773 75.032C195.592 75.1787 195.501 75.4 195.501 75.696C195.501 75.992 195.592 76.2147 195.773 76.364C195.957 76.5107 196.194 76.584 196.485 76.584ZM201.66 80V78.94H199.012V78.264L200.912 74.24H201.72L199.82 78.264H201.66V76.644H202.38V78.264H202.98V78.94H202.38V80H201.66Z" fill="white"/>
<path d="M204.965 78L204.665 77.7L208.694 73.68L208.994 73.977L204.965 78ZM208.094 78.09C207.896 78.09 207.715 78.042 207.551 77.946C207.389 77.848 207.259 77.718 207.161 77.556C207.063 77.392 207.014 77.21 207.014 77.01C207.014 76.814 207.064 76.634 207.164 76.47C207.264 76.306 207.396 76.175 207.56 76.077C207.724 75.979 207.902 75.93 208.094 75.93C208.292 75.93 208.473 75.979 208.637 76.077C208.801 76.173 208.931 76.303 209.027 76.467C209.125 76.629 209.174 76.81 209.174 77.01C209.174 77.21 209.125 77.392 209.027 77.556C208.931 77.718 208.801 77.848 208.637 77.946C208.473 78.042 208.292 78.09 208.094 78.09ZM208.094 77.691C208.216 77.691 208.329 77.66 208.433 77.598C208.537 77.536 208.62 77.454 208.682 77.352C208.744 77.248 208.775 77.134 208.775 77.01C208.775 76.886 208.744 76.773 208.682 76.671C208.62 76.567 208.537 76.484 208.433 76.422C208.329 76.36 208.216 76.329 208.094 76.329C207.97 76.329 207.856 76.36 207.752 76.422C207.65 76.484 207.567 76.567 207.503 76.671C207.441 76.773 207.41 76.886 207.41 77.01C207.41 77.134 207.441 77.248 207.503 77.352C207.567 77.454 207.65 77.536 207.752 77.598C207.856 77.66 207.97 77.691 208.094 77.691ZM205.565 75.75C205.367 75.75 205.186 75.702 205.022 75.606C204.858 75.508 204.727 75.378 204.629 75.216C204.533 75.052 204.485 74.87 204.485 74.67C204.485 74.474 204.535 74.294 204.635 74.13C204.735 73.966 204.867 73.835 205.031 73.737C205.195 73.639 205.373 73.59 205.565 73.59C205.763 73.59 205.943 73.639 206.105 73.737C206.269 73.833 206.4 73.963 206.498 74.127C206.596 74.289 206.645 74.47 206.645 74.67C206.645 74.87 206.596 75.052 206.498 75.216C206.4 75.378 206.269 75.508 206.105 75.606C205.943 75.702 205.763 75.75 205.565 75.75ZM205.565 75.351C205.689 75.351 205.802 75.32 205.904 75.258C206.008 75.196 206.091 75.114 206.153 75.012C206.215 74.908 206.246 74.794 206.246 74.67C206.246 74.546 206.215 74.433 206.153 74.331C206.091 74.227 206.008 74.144 205.904 74.082C205.802 74.02 205.689 73.989 205.565 73.989C205.441 73.989 205.327 74.02 205.223 74.082C205.121 74.144 205.039 74.227 204.977 74.331C204.915 74.433 204.884 74.546 204.884 74.67C204.884 74.794 204.915 74.908 204.977 75.012C205.039 75.114 205.121 75.196 205.223 75.258C205.327 75.32 205.441 75.351 205.565 75.351Z" fill="white"/>
<circle cx="202.125" cy="87" r="1.5" fill="white" stroke="#3AB5FE"/>
<rect x="157" y="99" width="2" height="2" fill="#3AB5FE"/>
<rect x="157" y="103" width="2" height="2" fill="#3AB5FE"/>
<rect x="157" y="107" width="2" height="2" fill="#3AB5FE"/>
<rect x="157" y="111" width="2" height="2" fill="#3AB5FE"/>
<rect x="157" y="115" width="2" height="2" fill="#3AB5FE"/>
<rect x="157" y="119" width="2" height="2" fill="#3AB5FE"/>
<rect x="157" y="123" width="2" height="2" fill="#3AB5FE"/>
<rect x="161" y="99" width="2" height="2" fill="#3AB5FE"/>
<rect x="161" y="103" width="2" height="2" fill="#3AB5FE"/>
<rect x="161" y="107" width="2" height="2" fill="#3AB5FE"/>
<rect x="161" y="111" width="2" height="2" fill="#3AB5FE"/>
<rect x="161" y="115" width="2" height="2" fill="#3AB5FE"/>
<rect x="161" y="119" width="2" height="2" fill="#3AB5FE"/>
<rect x="161" y="123" width="2" height="2" fill="#3AB5FE"/>
<rect x="165" y="99" width="2" height="2" fill="#3AB5FE"/>
<rect x="165" y="103" width="2" height="2" fill="#3AB5FE"/>
<rect x="165" y="107" width="2" height="2" fill="#3AB5FE"/>
<rect x="165" y="111" width="2" height="2" fill="#3AB5FE"/>
<rect x="165" y="115" width="2" height="2" fill="#3AB5FE"/>
<rect x="165" y="119" width="2" height="2" fill="#3AB5FE"/>
<rect x="165" y="123" width="2" height="2" fill="#3AB5FE"/>
<rect x="169" y="99" width="2" height="2" fill="#3AB5FE"/>
<rect x="169" y="103" width="2" height="2" fill="#3AB5FE"/>
<rect x="169" y="107" width="2" height="2" fill="#3AB5FE"/>
<rect x="169" y="111" width="2" height="2" fill="#3AB5FE"/>
<rect x="169" y="115" width="2" height="2" fill="#3AB5FE"/>
<rect x="169" y="119" width="2" height="2" fill="#3AB5FE"/>
<rect x="169" y="123" width="2" height="2" fill="#3AB5FE"/>
<rect x="173" y="99" width="2" height="2" fill="#3AB5FE"/>
<rect x="173" y="103" width="2" height="2" fill="#3AB5FE"/>
<rect x="173" y="107" width="2" height="2" fill="#3AB5FE"/>
<rect x="173" y="111" width="2" height="2" fill="#3AB5FE"/>
<rect x="173" y="115" width="2" height="2" fill="#3AB5FE"/>
<rect x="173" y="119" width="2" height="2" fill="#3AB5FE"/>
<rect x="173" y="123" width="2" height="2" fill="#3AB5FE"/>
<rect x="177" y="99" width="2" height="2" fill="#3AB5FE"/>
<rect x="177" y="103" width="2" height="2" fill="#3AB5FE"/>
<rect x="177" y="107" width="2" height="2" fill="#3AB5FE"/>
<rect x="177" y="111" width="2" height="2" fill="#3AB5FE"/>
<rect x="177" y="115" width="2" height="2" fill="#3AB5FE"/>
<rect x="177" y="119" width="2" height="2" fill="#3AB5FE"/>
<rect x="177" y="123" width="2" height="2" fill="#3AB5FE"/>
<rect x="181" y="99" width="2" height="2" fill="#3AB5FE"/>
<rect x="181" y="103" width="2" height="2" fill="#3AB5FE"/>
<rect x="181" y="107" width="2" height="2" fill="#3AB5FE"/>
<rect x="181" y="111" width="2" height="2" fill="#3AB5FE"/>
<rect x="181" y="115" width="2" height="2" fill="#3AB5FE"/>
<rect x="181" y="119" width="2" height="2" fill="#3AB5FE"/>
<rect x="181" y="123" width="2" height="2" fill="#3AB5FE"/>
<rect x="185" y="99" width="2" height="2" fill="#3AB5FE"/>
<rect x="185" y="103" width="2" height="2" fill="#3AB5FE"/>
<rect x="185" y="107" width="2" height="2" fill="#3AB5FE"/>
<rect x="185" y="111" width="2" height="2" fill="#3AB5FE"/>
<rect x="185" y="115" width="2" height="2" fill="#3AB5FE"/>
<rect x="185" y="119" width="2" height="2" fill="#3AB5FE"/>
<rect x="185" y="123" width="2" height="2" fill="#3AB5FE"/>
<rect x="189" y="99" width="2" height="2" fill="#3AB5FE"/>
<rect x="189" y="103" width="2" height="2" fill="#3AB5FE"/>
<rect x="189" y="107" width="2" height="2" fill="#3AB5FE"/>
<rect x="189" y="111" width="2" height="2" fill="#3AB5FE"/>
<rect x="189" y="115" width="2" height="2" fill="#3AB5FE"/>
<rect x="189" y="119" width="2" height="2" fill="#3AB5FE"/>
<rect x="189" y="123" width="2" height="2" fill="#3AB5FE"/>
<rect x="193" y="99" width="2" height="2" fill="#3AB5FE"/>
<rect x="193" y="103" width="2" height="2" fill="#3AB5FE"/>
<rect x="193" y="107" width="2" height="2" fill="#3AB5FE"/>
<rect x="193" y="111" width="2" height="2" fill="#3AB5FE"/>
<rect x="193" y="115" width="2" height="2" fill="#3AB5FE"/>
<rect x="193" y="119" width="2" height="2" fill="#3AB5FE"/>
<rect x="193" y="123" width="2" height="2" fill="#3AB5FE"/>
<path d="M197 91H199V93H197V91Z" fill="black"/>
<path d="M197 95H199V97H197V95Z" fill="black"/>
<path d="M197 99H199V101H197V99Z" fill="black"/>
<path d="M197 103H199V105H197V103Z" fill="black"/>
<path d="M197 107H199V109H197V107Z" fill="black"/>
<path d="M197 111H199V113H197V111Z" fill="black"/>
<path d="M197 115H199V117H197V115Z" fill="black"/>
<path d="M197 119H199V121H197V119Z" fill="black"/>
<path d="M197 123H199V125H197V123Z" fill="black"/>
<path d="M201 91H203V93H201V91Z" fill="black"/>
<path d="M201 95H203V97H201V95Z" fill="black"/>
<path d="M201 99H203V101H201V99Z" fill="black"/>
<path d="M201 103H203V105H201V103Z" fill="black"/>
<path d="M201 107H203V109H201V107Z" fill="black"/>
<path d="M201 111H203V113H201V111Z" fill="black"/>
<path d="M201 115H203V117H201V115Z" fill="black"/>
<path d="M201 119H203V121H201V119Z" fill="black"/>
<path d="M201 123H203V125H201V123Z" fill="black"/>
<path d="M205 91H207V93H205V91Z" fill="black"/>
<path d="M205 95H207V97H205V95Z" fill="black"/>
<path d="M205 99H207V101H205V99Z" fill="black"/>
<path d="M205 103H207V105H205V103Z" fill="black"/>
<path d="M205 107H207V109H205V107Z" fill="black"/>
<path d="M205 111H207V113H205V111Z" fill="black"/>
<path d="M205 115H207V117H205V115Z" fill="black"/>
<path d="M205 119H207V121H205V119Z" fill="black"/>
<path d="M205 123H207V125H205V123Z" fill="black"/>
<rect x="209" y="99" width="2" height="2" fill="#E5E5E5"/>
<rect x="209" y="103" width="2" height="2" fill="#E5E5E5"/>
<rect x="209" y="107" width="2" height="2" fill="#E5E5E5"/>
<rect x="209" y="111" width="2" height="2" fill="#E5E5E5"/>
<rect x="209" y="115" width="2" height="2" fill="#E5E5E5"/>
<rect x="209" y="119" width="2" height="2" fill="#E5E5E5"/>
<rect x="209" y="123" width="2" height="2" fill="#E5E5E5"/>
<rect x="213" y="99" width="2" height="2" fill="#E5E5E5"/>
<rect x="213" y="103" width="2" height="2" fill="#E5E5E5"/>
<rect x="213" y="107" width="2" height="2" fill="#E5E5E5"/>
<rect x="213" y="111" width="2" height="2" fill="#E5E5E5"/>
<rect x="213" y="115" width="2" height="2" fill="#E5E5E5"/>
<rect x="213" y="119" width="2" height="2" fill="#E5E5E5"/>
<rect x="213" y="123" width="2" height="2" fill="#E5E5E5"/>
<rect x="217" y="99" width="2" height="2" fill="#E5E5E5"/>
<rect x="217" y="103" width="2" height="2" fill="#E5E5E5"/>
<rect x="217" y="107" width="2" height="2" fill="#E5E5E5"/>
<rect x="217" y="111" width="2" height="2" fill="#E5E5E5"/>
<rect x="217" y="115" width="2" height="2" fill="#E5E5E5"/>
<rect x="217" y="119" width="2" height="2" fill="#E5E5E5"/>
<rect x="217" y="123" width="2" height="2" fill="#E5E5E5"/>
<rect x="221" y="99" width="2" height="2" fill="#E5E5E5"/>
<rect x="221" y="103" width="2" height="2" fill="#E5E5E5"/>
<rect x="221" y="107" width="2" height="2" fill="#E5E5E5"/>
<rect x="221" y="111" width="2" height="2" fill="#E5E5E5"/>
<rect x="221" y="115" width="2" height="2" fill="#E5E5E5"/>
<rect x="221" y="119" width="2" height="2" fill="#E5E5E5"/>
<rect x="221" y="123" width="2" height="2" fill="#E5E5E5"/>
<rect x="225" y="99" width="2" height="2" fill="#E5E5E5"/>
<rect x="225" y="103" width="2" height="2" fill="#E5E5E5"/>
<rect x="225" y="107" width="2" height="2" fill="#E5E5E5"/>
<rect x="225" y="111" width="2" height="2" fill="#E5E5E5"/>
<rect x="225" y="115" width="2" height="2" fill="#E5E5E5"/>
<rect x="225" y="119" width="2" height="2" fill="#E5E5E5"/>
<rect x="225" y="123" width="2" height="2" fill="#E5E5E5"/>
<rect x="229" y="99" width="2" height="2" fill="#E5E5E5"/>
<rect x="229" y="103" width="2" height="2" fill="#E5E5E5"/>
<rect x="229" y="107" width="2" height="2" fill="#E5E5E5"/>
<rect x="229" y="111" width="2" height="2" fill="#E5E5E5"/>
<rect x="229" y="115" width="2" height="2" fill="#E5E5E5"/>
<rect x="229" y="119" width="2" height="2" fill="#E5E5E5"/>
<rect x="229" y="123" width="2" height="2" fill="#E5E5E5"/>
<rect x="233" y="99" width="2" height="2" fill="#E5E5E5"/>
<rect x="233" y="103" width="2" height="2" fill="#E5E5E5"/>
<rect x="233" y="107" width="2" height="2" fill="#E5E5E5"/>
<rect x="233" y="111" width="2" height="2" fill="#E5E5E5"/>
<rect x="233" y="115" width="2" height="2" fill="#E5E5E5"/>
<rect x="233" y="119" width="2" height="2" fill="#E5E5E5"/>
<rect x="233" y="123" width="2" height="2" fill="#E5E5E5"/>
<rect x="237" y="99" width="2" height="2" fill="#E5E5E5"/>
<rect x="237" y="103" width="2" height="2" fill="#E5E5E5"/>
<rect x="237" y="107" width="2" height="2" fill="#E5E5E5"/>
<rect x="237" y="111" width="2" height="2" fill="#E5E5E5"/>
<rect x="237" y="115" width="2" height="2" fill="#E5E5E5"/>
<rect x="237" y="119" width="2" height="2" fill="#E5E5E5"/>
<rect x="237" y="123" width="2" height="2" fill="#E5E5E5"/>
</svg>
