<svg width="255" height="141" viewBox="0 0 255 141" fill="none" xmlns="http://www.w3.org/2000/svg">
<rect width="255" height="141" rx="16" fill="white"/>
<path d="M16.32 41.5L20.288 29.98H21.848L25.816 41.5H24.592L20.824 30.636H21.288L17.544 41.5H16.32ZM18.088 38.708V37.604H24.04V38.708H18.088ZM30.2926 41.74C29.4873 41.74 28.7993 41.54 28.2286 41.14C27.658 40.7347 27.2206 40.188 26.9166 39.5C26.6126 38.812 26.4606 38.036 26.4606 37.172C26.4606 36.3133 26.61 35.54 26.9086 34.852C27.2126 34.164 27.6473 33.62 28.2126 33.22C28.778 32.82 29.4553 32.62 30.2446 32.62C31.0553 32.62 31.738 32.8173 32.2926 33.212C32.8473 33.6067 33.266 34.148 33.5486 34.836C33.8366 35.5187 33.9806 36.2973 33.9806 37.172C33.9806 38.0307 33.8393 38.8067 33.5566 39.5C33.274 40.188 32.858 40.7347 32.3086 41.14C31.7593 41.54 31.0873 41.74 30.2926 41.74ZM30.4126 40.644C31.026 40.644 31.5326 40.4947 31.9326 40.196C32.3326 39.8973 32.6313 39.4867 32.8286 38.964C33.026 38.436 33.1246 37.8387 33.1246 37.172C33.1246 36.4947 33.026 35.8973 32.8286 35.38C32.6313 34.8573 32.3326 34.4493 31.9326 34.156C31.538 33.8627 31.0393 33.716 30.4366 33.716C29.818 33.716 29.306 33.868 28.9006 34.172C28.4953 34.476 28.194 34.8893 27.9966 35.412C27.8046 35.9347 27.7086 36.5213 27.7086 37.172C27.7086 37.828 27.8073 38.42 28.0046 38.948C28.2073 39.4707 28.5086 39.884 28.9086 40.188C29.3086 40.492 29.81 40.644 30.4126 40.644ZM33.1246 41.5V34.996H32.9966V29.98H34.1806V41.5H33.1246ZM42.345 41.5V37.092C42.345 36.612 42.2997 36.172 42.209 35.772C42.1183 35.3667 41.9717 35.0147 41.769 34.716C41.5717 34.412 41.313 34.1773 40.993 34.012C40.6783 33.8467 40.2943 33.764 39.841 33.764C39.425 33.764 39.057 33.836 38.737 33.98C38.4223 34.124 38.1557 34.332 37.937 34.604C37.7237 34.8707 37.561 35.196 37.449 35.58C37.337 35.964 37.281 36.4013 37.281 36.892L36.449 36.708C36.449 35.8227 36.6037 35.0787 36.913 34.476C37.2223 33.8733 37.649 33.4173 38.193 33.108C38.737 32.7987 39.361 32.644 40.065 32.644C40.5823 32.644 41.033 32.724 41.417 32.884C41.8063 33.044 42.1343 33.26 42.401 33.532C42.673 33.804 42.8917 34.116 43.057 34.468C43.2223 34.8147 43.3423 35.1853 43.417 35.58C43.4917 35.9693 43.529 36.3587 43.529 36.748V41.5H42.345ZM36.097 41.5V29.98H37.161V36.484H37.281V41.5H36.097ZM48.941 41.74C48.0983 41.74 47.3677 41.5533 46.749 41.18C46.1357 40.8067 45.6583 40.2813 45.317 39.604C44.9757 38.9267 44.805 38.132 44.805 37.22C44.805 36.276 44.973 35.46 45.309 34.772C45.645 34.084 46.117 33.5533 46.725 33.18C47.3383 32.8067 48.061 32.62 48.893 32.62C49.7463 32.62 50.4743 32.8173 51.077 33.212C51.6797 33.6013 52.1357 34.1613 52.445 34.892C52.7543 35.6227 52.8957 36.4947 52.869 37.508H51.669V37.092C51.6477 35.972 51.405 35.1267 50.941 34.556C50.4823 33.9853 49.8103 33.7 48.925 33.7C47.997 33.7 47.285 34.0013 46.789 34.604C46.2983 35.2067 46.053 36.0653 46.053 37.18C46.053 38.268 46.2983 39.1133 46.789 39.716C47.285 40.3133 47.9863 40.612 48.893 40.612C49.5117 40.612 50.0503 40.4707 50.509 40.188C50.973 39.9 51.3383 39.4867 51.605 38.948L52.701 39.372C52.3597 40.124 51.8557 40.708 51.189 41.124C50.5277 41.5347 49.7783 41.74 48.941 41.74ZM45.637 37.508V36.524H52.237V37.508H45.637ZM54.3244 41.5V32.86H55.3804V34.94L55.1724 34.668C55.2684 34.412 55.3937 34.1773 55.5484 33.964C55.703 33.7453 55.871 33.5667 56.0524 33.428C56.2764 33.2307 56.5377 33.0813 56.8364 32.98C57.135 32.8733 57.4364 32.812 57.7404 32.796C58.0444 32.7747 58.3217 32.796 58.5724 32.86V33.964C58.2577 33.884 57.9137 33.8653 57.5404 33.908C57.167 33.9507 56.823 34.1 56.5084 34.356C56.2204 34.58 56.0044 34.8493 55.8604 35.164C55.7164 35.4733 55.6204 35.804 55.5724 36.156C55.5244 36.5027 55.5004 36.8467 55.5004 37.188V41.5H54.3244ZM63.2698 41.74C62.4271 41.74 61.6964 41.5533 61.0778 41.18C60.4644 40.8067 59.9871 40.2813 59.6458 39.604C59.3044 38.9267 59.1338 38.132 59.1338 37.22C59.1338 36.276 59.3018 35.46 59.6378 34.772C59.9738 34.084 60.4458 33.5533 61.0538 33.18C61.6671 32.8067 62.3898 32.62 63.2218 32.62C64.0751 32.62 64.8031 32.8173 65.4058 33.212C66.0084 33.6013 66.4644 34.1613 66.7738 34.892C67.0831 35.6227 67.2244 36.4947 67.1978 37.508H65.9978V37.092C65.9764 35.972 65.7338 35.1267 65.2698 34.556C64.8111 33.9853 64.1391 33.7 63.2538 33.7C62.3258 33.7 61.6138 34.0013 61.1178 34.604C60.6271 35.2067 60.3818 36.0653 60.3818 37.18C60.3818 38.268 60.6271 39.1133 61.1178 39.716C61.6138 40.3133 62.3151 40.612 63.2218 40.612C63.8404 40.612 64.3791 40.4707 64.8378 40.188C65.3018 39.9 65.6671 39.4867 65.9338 38.948L67.0298 39.372C66.6884 40.124 66.1844 40.708 65.5178 41.124C64.8564 41.5347 64.1071 41.74 63.2698 41.74ZM59.9658 37.508V36.524H66.5658V37.508H59.9658ZM74.6588 41.5V37.092C74.6588 36.612 74.6134 36.172 74.5228 35.772C74.4321 35.3667 74.2854 35.0147 74.0828 34.716C73.8854 34.412 73.6268 34.1773 73.3068 34.012C72.9921 33.8467 72.6081 33.764 72.1548 33.764C71.7388 33.764 71.3708 33.836 71.0508 33.98C70.7361 34.124 70.4694 34.332 70.2508 34.604C70.0374 34.8707 69.8748 35.196 69.7628 35.58C69.6508 35.964 69.5948 36.4013 69.5948 36.892L68.7628 36.708C68.7628 35.8227 68.9174 35.0787 69.2268 34.476C69.5361 33.8733 69.9628 33.4173 70.5068 33.108C71.0508 32.7987 71.6748 32.644 72.3788 32.644C72.8961 32.644 73.3468 32.724 73.7308 32.884C74.1201 33.044 74.4481 33.26 74.7148 33.532C74.9868 33.804 75.2054 34.116 75.3708 34.468C75.5361 34.8147 75.6561 35.1853 75.7308 35.58C75.8054 35.9693 75.8428 36.3587 75.8428 36.748V41.5H74.6588ZM68.4108 41.5V32.86H69.4748V34.988H69.5948V41.5H68.4108ZM81.1359 41.74C80.2665 41.74 79.5305 41.5453 78.9279 41.156C78.3252 40.7667 77.8665 40.2307 77.5519 39.548C77.2425 38.86 77.0825 38.0707 77.0719 37.18C77.0825 36.2733 77.2479 35.4787 77.5679 34.796C77.8879 34.108 78.3492 33.5747 78.9519 33.196C79.5545 32.812 80.2852 32.62 81.1439 32.62C82.0185 32.62 82.7785 32.8333 83.4239 33.26C84.0745 33.6867 84.5199 34.2707 84.7599 35.012L83.6079 35.38C83.4052 34.8627 83.0825 34.4627 82.6399 34.18C82.2025 33.892 81.7012 33.748 81.1359 33.748C80.5012 33.748 79.9759 33.8947 79.5599 34.188C79.1439 34.476 78.8345 34.8787 78.6319 35.396C78.4292 35.9133 78.3252 36.508 78.3199 37.18C78.3305 38.2147 78.5705 39.0467 79.0399 39.676C79.5092 40.3 80.2079 40.612 81.1359 40.612C81.7225 40.612 82.2212 40.4787 82.6319 40.212C83.0479 39.94 83.3625 39.5453 83.5759 39.028L84.7599 39.38C84.4399 40.148 83.9705 40.7347 83.3519 41.14C82.7332 41.54 81.9945 41.74 81.1359 41.74ZM89.5129 41.74C88.6702 41.74 87.9395 41.5533 87.3209 41.18C86.7075 40.8067 86.2302 40.2813 85.8889 39.604C85.5475 38.9267 85.3769 38.132 85.3769 37.22C85.3769 36.276 85.5449 35.46 85.8809 34.772C86.2169 34.084 86.6889 33.5533 87.2969 33.18C87.9102 32.8067 88.6329 32.62 89.4649 32.62C90.3182 32.62 91.0462 32.8173 91.6489 33.212C92.2515 33.6013 92.7075 34.1613 93.0169 34.892C93.3262 35.6227 93.4675 36.4947 93.4409 37.508H92.2409V37.092C92.2195 35.972 91.9769 35.1267 91.5129 34.556C91.0542 33.9853 90.3822 33.7 89.4969 33.7C88.5689 33.7 87.8569 34.0013 87.3609 34.604C86.8702 35.2067 86.6249 36.0653 86.6249 37.18C86.6249 38.268 86.8702 39.1133 87.3609 39.716C87.8569 40.3133 88.5582 40.612 89.4649 40.612C90.0835 40.612 90.6222 40.4707 91.0809 40.188C91.5449 39.9 91.9102 39.4867 92.1769 38.948L93.2729 39.372C92.9315 40.124 92.4275 40.708 91.7609 41.124C91.0995 41.5347 90.3502 41.74 89.5129 41.74ZM86.2089 37.508V36.524H92.8089V37.508H86.2089ZM97.7794 41.5V29.98H102.227C102.339 29.98 102.465 29.9853 102.603 29.996C102.747 30.0013 102.891 30.0173 103.035 30.044C103.638 30.1347 104.147 30.3453 104.563 30.676C104.985 31.0013 105.302 31.412 105.515 31.908C105.734 32.404 105.843 32.9533 105.843 33.556C105.843 34.4253 105.614 35.18 105.155 35.82C104.697 36.46 104.041 36.8627 103.187 37.028L102.779 37.124H98.9554V41.5H97.7794ZM104.755 41.5L102.483 36.812L103.611 36.38L106.107 41.5H104.755ZM98.9554 36.004H102.195C102.291 36.004 102.403 35.9987 102.531 35.988C102.659 35.9773 102.785 35.9587 102.907 35.932C103.302 35.8467 103.625 35.684 103.875 35.444C104.131 35.204 104.321 34.9187 104.443 34.588C104.571 34.2573 104.635 33.9133 104.635 33.556C104.635 33.1987 104.571 32.8547 104.443 32.524C104.321 32.188 104.131 31.9 103.875 31.66C103.625 31.42 103.302 31.2573 102.907 31.172C102.785 31.1453 102.659 31.1293 102.531 31.124C102.403 31.1133 102.291 31.108 102.195 31.108H98.9554V36.004ZM110.025 41.74C109.374 41.74 108.828 41.6227 108.385 41.388C107.948 41.1533 107.62 40.8413 107.401 40.452C107.182 40.0627 107.073 39.6387 107.073 39.18C107.073 38.7107 107.166 38.3107 107.353 37.98C107.545 37.644 107.804 37.3693 108.129 37.156C108.46 36.9427 108.841 36.78 109.273 36.668C109.71 36.5613 110.193 36.468 110.721 36.388C111.254 36.3027 111.774 36.2307 112.281 36.172C112.793 36.108 113.241 36.0467 113.625 35.988L113.209 36.244C113.225 35.3907 113.06 34.7587 112.713 34.348C112.366 33.9373 111.764 33.732 110.905 33.732C110.313 33.732 109.812 33.8653 109.401 34.132C108.996 34.3987 108.71 34.82 108.545 35.396L107.401 35.06C107.598 34.2867 107.996 33.6867 108.593 33.26C109.19 32.8333 109.966 32.62 110.921 32.62C111.71 32.62 112.38 32.7693 112.929 33.068C113.484 33.3613 113.876 33.788 114.105 34.348C114.212 34.5987 114.281 34.8787 114.313 35.188C114.345 35.4973 114.361 35.812 114.361 36.132V41.5H113.313V39.332L113.617 39.46C113.324 40.2013 112.868 40.7667 112.249 41.156C111.63 41.5453 110.889 41.74 110.025 41.74ZM110.161 40.724C110.71 40.724 111.19 40.6253 111.601 40.428C112.012 40.2307 112.342 39.9613 112.593 39.62C112.844 39.2733 113.006 38.884 113.081 38.452C113.145 38.1747 113.18 37.8707 113.185 37.54C113.19 37.204 113.193 36.9533 113.193 36.788L113.641 37.02C113.241 37.0733 112.806 37.1267 112.337 37.18C111.873 37.2333 111.414 37.2947 110.961 37.364C110.513 37.4333 110.108 37.516 109.745 37.612C109.5 37.6813 109.262 37.78 109.033 37.908C108.804 38.0307 108.614 38.196 108.465 38.404C108.321 38.612 108.249 38.8707 108.249 39.18C108.249 39.4307 108.31 39.6733 108.433 39.908C108.561 40.1427 108.764 40.3373 109.041 40.492C109.324 40.6467 109.697 40.724 110.161 40.724ZM120.828 41.5C120.342 41.6013 119.862 41.6413 119.388 41.62C118.918 41.5987 118.497 41.4973 118.124 41.316C117.756 41.1347 117.476 40.852 117.284 40.468C117.129 40.148 117.044 39.8253 117.028 39.5C117.017 39.1693 117.012 38.7933 117.012 38.372V30.46H118.18V38.324C118.18 38.6867 118.182 38.9907 118.188 39.236C118.198 39.476 118.254 39.6893 118.356 39.876C118.548 40.2333 118.852 40.4467 119.268 40.516C119.689 40.5853 120.209 40.5693 120.828 40.468V41.5ZM115.164 33.868V32.86H120.828V33.868H115.164ZM125.553 41.74C124.711 41.74 123.98 41.5533 123.361 41.18C122.748 40.8067 122.271 40.2813 121.929 39.604C121.588 38.9267 121.417 38.132 121.417 37.22C121.417 36.276 121.585 35.46 121.921 34.772C122.257 34.084 122.729 33.5533 123.337 33.18C123.951 32.8067 124.673 32.62 125.505 32.62C126.359 32.62 127.087 32.8173 127.689 33.212C128.292 33.6013 128.748 34.1613 129.057 34.892C129.367 35.6227 129.508 36.4947 129.481 37.508H128.281V37.092C128.26 35.972 128.017 35.1267 127.553 34.556C127.095 33.9853 126.423 33.7 125.537 33.7C124.609 33.7 123.897 34.0013 123.401 34.604C122.911 35.2067 122.665 36.0653 122.665 37.18C122.665 38.268 122.911 39.1133 123.401 39.716C123.897 40.3133 124.599 40.612 125.505 40.612C126.124 40.612 126.663 40.4707 127.121 40.188C127.585 39.9 127.951 39.4867 128.217 38.948L129.313 39.372C128.972 40.124 128.468 40.708 127.801 41.124C127.14 41.5347 126.391 41.74 125.553 41.74ZM122.249 37.508V36.524H128.849V37.508H122.249Z" fill="#525252"/>
<rect x="201" y="16" width="38" height="38" rx="19" fill="#F5F5F5"/>
<path d="M213.125 27.5C213.125 27.1548 212.845 26.875 212.5 26.875C212.155 26.875 211.875 27.1548 211.875 27.5V36.7131C211.875 38.0486 211.875 39.1144 211.987 39.9503C212.103 40.8139 212.35 41.5251 212.912 42.0877C213.475 42.6503 214.186 42.8965 215.05 43.0126C215.886 43.125 216.951 43.125 218.287 43.125H227.5C227.845 43.125 228.125 42.8452 228.125 42.5C228.125 42.1548 227.845 41.875 227.5 41.875H218.333C216.941 41.875 215.959 41.8737 215.216 41.7738C215.083 41.7559 214.961 41.7352 214.848 41.7115C215.016 41.3768 215.191 40.9792 215.372 40.5703C215.407 40.4892 215.443 40.4077 215.479 40.3262C215.754 39.7056 216.051 39.0532 216.387 38.4558C216.725 37.8545 217.084 37.3438 217.469 36.9892C217.847 36.6396 218.214 36.4741 218.589 36.4741C219.091 36.4741 219.421 36.7699 219.949 37.3084L220.001 37.3614C220.466 37.8381 221.13 38.5181 222.178 38.5181C223.065 38.5181 223.706 38.1302 224.188 37.6021C224.612 37.1382 224.933 36.5411 225.214 36.0204L225.273 35.9104C225.916 34.7213 226.412 33.9583 227.5 33.9583C227.845 33.9583 228.125 33.6785 228.125 33.3333C228.125 32.9882 227.845 32.7083 227.5 32.7083C225.583 32.7083 224.768 34.2161 224.179 35.3061L224.141 35.3768C223.834 35.9443 223.581 36.4134 223.265 36.7591C222.967 37.086 222.642 37.2681 222.178 37.2681C221.695 37.2681 221.375 36.9782 220.842 36.4337L220.803 36.3935C220.331 35.9111 219.659 35.2241 218.589 35.2241C217.804 35.2241 217.149 35.583 216.621 36.0706C216.098 36.5533 215.663 37.1928 215.298 37.843C214.93 38.4973 214.612 39.1979 214.336 39.8201L214.226 40.0705C214.043 40.4852 213.883 40.847 213.736 41.1407C213.48 40.8539 213.317 40.4578 213.226 39.7838C213.126 39.0408 213.125 38.0593 213.125 36.6667V27.5Z" fill="black"/>
<path d="M216.667 28.9583C217.012 28.9583 217.292 28.6785 217.292 28.3333C217.292 27.9882 217.012 27.7083 216.667 27.7083H215.833C215.488 27.7083 215.208 27.9882 215.208 28.3333C215.208 28.6785 215.488 28.9583 215.833 28.9583H216.667Z" fill="black"/>
<path d="M219.792 30.8333C219.792 31.1785 219.512 31.4583 219.167 31.4583H215.833C215.488 31.4583 215.208 31.1785 215.208 30.8333C215.208 30.4882 215.488 30.2083 215.833 30.2083H219.167C219.512 30.2083 219.792 30.4882 219.792 30.8333Z" fill="black"/>
<path d="M28.705 85.172C30.679 85.172 32.457 85.641 34.039 86.579C35.621 87.503 36.867 88.791 37.777 90.443C38.701 92.081 39.163 93.971 39.163 96.113V105.332C39.163 107.614 38.701 109.609 37.777 111.317C36.867 113.011 35.586 114.32 33.934 115.244C32.282 116.168 30.35 116.63 28.138 116.63C26.612 116.63 25.17 116.371 23.812 115.853C22.454 115.321 21.236 114.509 20.158 113.417L23.791 109.868C24.337 110.498 24.988 110.995 25.744 111.359C26.514 111.709 27.312 111.884 28.138 111.884C29.314 111.884 30.343 111.611 31.225 111.065C32.107 110.505 32.793 109.784 33.283 108.902C33.773 108.006 34.018 107.047 34.018 106.025V101.006L34.921 102.014C34.067 103.022 33.031 103.813 31.813 104.387C30.595 104.947 29.314 105.227 27.97 105.227C26.08 105.227 24.4 104.793 22.93 103.925C21.474 103.057 20.326 101.881 19.486 100.397C18.66 98.899 18.247 97.205 18.247 95.315C18.247 93.425 18.723 91.717 19.675 90.191C20.627 88.651 21.894 87.433 23.476 86.537C25.072 85.627 26.815 85.172 28.705 85.172ZM28.705 90.002C27.725 90.002 26.829 90.24 26.017 90.716C25.205 91.192 24.561 91.836 24.085 92.648C23.609 93.446 23.371 94.335 23.371 95.315C23.371 96.295 23.602 97.191 24.064 98.003C24.54 98.815 25.177 99.459 25.975 99.935C26.787 100.411 27.683 100.649 28.663 100.649C29.643 100.649 30.539 100.411 31.351 99.935C32.163 99.459 32.807 98.815 33.283 98.003C33.773 97.191 34.018 96.295 34.018 95.315C34.018 94.363 33.78 93.488 33.304 92.69C32.828 91.878 32.184 91.227 31.372 90.737C30.574 90.247 29.685 90.002 28.705 90.002ZM55.0639 116V111.002H41.6659V106.277L51.3469 85.76H57.1219L47.4409 106.277H55.0639V98.402H60.1879V106.277H63.0229V111.002H60.1879V116H55.0639ZM67.1347 102L64.8667 99.732L80.7427 83.856L83.0107 86.1492L67.1347 102ZM79.2307 102.378C78.3991 102.378 77.6389 102.176 76.9501 101.773C76.2697 101.362 75.7237 100.816 75.3121 100.135C74.9005 99.4464 74.6947 98.682 74.6947 97.842C74.6947 97.0188 74.9047 96.2628 75.3247 95.574C75.7447 94.8852 76.2991 94.335 76.9879 93.9234C77.6767 93.5118 78.4243 93.306 79.2307 93.306C80.0623 93.306 80.8225 93.5118 81.5113 93.9234C82.2001 94.3266 82.7461 94.8726 83.1493 95.5614C83.5609 96.2418 83.7667 97.002 83.7667 97.842C83.7667 98.682 83.5609 99.4464 83.1493 100.135C82.7461 100.816 82.2001 101.362 81.5113 101.773C80.8225 102.176 80.0623 102.378 79.2307 102.378ZM79.2307 99.48C79.5247 99.48 79.7935 99.4044 80.0371 99.2532C80.2891 99.102 80.4907 98.9046 80.6419 98.661C80.7931 98.409 80.8687 98.136 80.8687 97.842C80.8687 97.548 80.7931 97.2792 80.6419 97.0356C80.4907 96.7836 80.2891 96.582 80.0371 96.4308C79.7935 96.2796 79.5247 96.204 79.2307 96.204C78.9367 96.204 78.6637 96.2796 78.4117 96.4308C78.1681 96.582 77.9707 96.7836 77.8195 97.0356C77.6683 97.2792 77.5927 97.548 77.5927 97.842C77.5927 98.136 77.6683 98.409 77.8195 98.661C77.9707 98.9046 78.1681 99.102 78.4117 99.2532C78.6637 99.4044 78.9367 99.48 79.2307 99.48ZM68.6467 92.55C67.8151 92.55 67.0549 92.3484 66.3661 91.9452C65.6773 91.5336 65.1271 90.9876 64.7155 90.3072C64.3123 89.6184 64.1107 88.854 64.1107 88.014C64.1107 87.1908 64.3207 86.4348 64.7407 85.746C65.1607 85.0572 65.7151 84.507 66.4039 84.0954C67.0927 83.6838 67.8403 83.478 68.6467 83.478C69.4783 83.478 70.2343 83.6838 70.9147 84.0954C71.6035 84.4986 72.1537 85.0446 72.5653 85.7334C72.9769 86.4138 73.1827 87.174 73.1827 88.014C73.1827 88.854 72.9769 89.6184 72.5653 90.3072C72.1537 90.9876 71.6035 91.5336 70.9147 91.9452C70.2343 92.3484 69.4783 92.55 68.6467 92.55ZM68.6467 89.652C68.9407 89.652 69.2095 89.5764 69.4531 89.4252C69.7051 89.274 69.9067 89.0766 70.0579 88.833C70.2091 88.581 70.2847 88.308 70.2847 88.014C70.2847 87.72 70.2091 87.4512 70.0579 87.2076C69.9067 86.9556 69.7051 86.754 69.4531 86.6028C69.2095 86.4516 68.9407 86.376 68.6467 86.376C68.3527 86.376 68.0797 86.4516 67.8277 86.6028C67.5841 86.754 67.3867 86.9556 67.2355 87.2076C67.0843 87.4512 67.0087 87.72 67.0087 88.014C67.0087 88.308 67.0843 88.581 67.2355 88.833C67.3867 89.0766 67.5841 89.274 67.8277 89.4252C68.0797 89.5764 68.3527 89.652 68.6467 89.652Z" fill="black"/>
<rect x="211" y="70" width="28" height="14" rx="7" fill="#F59E0B"/>
<path d="M219.444 74.124C219.812 74.124 220.144 74.212 220.44 74.388C220.736 74.564 220.971 74.804 221.144 75.108C221.32 75.412 221.408 75.7573 221.408 76.144V78.06C221.408 78.4627 221.321 78.8187 221.148 79.128C220.975 79.4373 220.735 79.68 220.428 79.856C220.124 80.032 219.775 80.12 219.38 80.12C219.065 80.12 218.771 80.0547 218.496 79.924C218.224 79.7933 217.993 79.608 217.804 79.368L218.336 78.896C218.453 79.0613 218.604 79.1947 218.788 79.296C218.972 79.3947 219.169 79.444 219.38 79.444C219.636 79.444 219.861 79.3827 220.056 79.26C220.253 79.1373 220.407 78.9773 220.516 78.78C220.628 78.5827 220.684 78.3693 220.684 78.14V76.984L220.84 77.16C220.675 77.4 220.463 77.592 220.204 77.736C219.945 77.88 219.664 77.952 219.36 77.952C219.003 77.952 218.683 77.868 218.4 77.7C218.117 77.532 217.893 77.3053 217.728 77.02C217.563 76.732 217.48 76.4093 217.48 76.052C217.48 75.6947 217.569 75.3707 217.748 75.08C217.927 74.7867 218.164 74.5547 218.46 74.384C218.759 74.2107 219.087 74.124 219.444 74.124ZM219.444 74.812C219.215 74.812 219.005 74.868 218.816 74.98C218.629 75.0893 218.48 75.2387 218.368 75.428C218.256 75.6147 218.2 75.8227 218.2 76.052C218.2 76.2813 218.255 76.4907 218.364 76.68C218.476 76.8667 218.625 77.016 218.812 77.128C219.001 77.24 219.211 77.296 219.44 77.296C219.669 77.296 219.879 77.24 220.068 77.128C220.257 77.016 220.407 76.8667 220.516 76.68C220.628 76.4907 220.684 76.2813 220.684 76.052C220.684 75.8253 220.628 75.6187 220.516 75.432C220.407 75.2427 220.257 75.092 220.068 74.98C219.881 74.868 219.673 74.812 219.444 74.812ZM224.777 80V78.94H222.129V78.264L224.029 74.24H224.837L222.937 78.264H224.777V76.644H225.497V78.264H226.097V78.94H225.497V80H224.777Z" fill="white"/>
<path d="M227.84 78L227.54 77.7L231.569 73.68L231.869 73.977L227.84 78ZM230.969 78.09C230.771 78.09 230.59 78.042 230.426 77.946C230.264 77.848 230.134 77.718 230.036 77.556C229.938 77.392 229.889 77.21 229.889 77.01C229.889 76.814 229.939 76.634 230.039 76.47C230.139 76.306 230.271 76.175 230.435 76.077C230.599 75.979 230.777 75.93 230.969 75.93C231.167 75.93 231.348 75.979 231.512 76.077C231.676 76.173 231.806 76.303 231.902 76.467C232 76.629 232.049 76.81 232.049 77.01C232.049 77.21 232 77.392 231.902 77.556C231.806 77.718 231.676 77.848 231.512 77.946C231.348 78.042 231.167 78.09 230.969 78.09ZM230.969 77.691C231.091 77.691 231.204 77.66 231.308 77.598C231.412 77.536 231.495 77.454 231.557 77.352C231.619 77.248 231.65 77.134 231.65 77.01C231.65 76.886 231.619 76.773 231.557 76.671C231.495 76.567 231.412 76.484 231.308 76.422C231.204 76.36 231.091 76.329 230.969 76.329C230.845 76.329 230.731 76.36 230.627 76.422C230.525 76.484 230.442 76.567 230.378 76.671C230.316 76.773 230.285 76.886 230.285 77.01C230.285 77.134 230.316 77.248 230.378 77.352C230.442 77.454 230.525 77.536 230.627 77.598C230.731 77.66 230.845 77.691 230.969 77.691ZM228.44 75.75C228.242 75.75 228.061 75.702 227.897 75.606C227.733 75.508 227.602 75.378 227.504 75.216C227.408 75.052 227.36 74.87 227.36 74.67C227.36 74.474 227.41 74.294 227.51 74.13C227.61 73.966 227.742 73.835 227.906 73.737C228.07 73.639 228.248 73.59 228.44 73.59C228.638 73.59 228.818 73.639 228.98 73.737C229.144 73.833 229.275 73.963 229.373 74.127C229.471 74.289 229.52 74.47 229.52 74.67C229.52 74.87 229.471 75.052 229.373 75.216C229.275 75.378 229.144 75.508 228.98 75.606C228.818 75.702 228.638 75.75 228.44 75.75ZM228.44 75.351C228.564 75.351 228.677 75.32 228.779 75.258C228.883 75.196 228.966 75.114 229.028 75.012C229.09 74.908 229.121 74.794 229.121 74.67C229.121 74.546 229.09 74.433 229.028 74.331C228.966 74.227 228.883 74.144 228.779 74.082C228.677 74.02 228.564 73.989 228.44 73.989C228.316 73.989 228.202 74.02 228.098 74.082C227.996 74.144 227.914 74.227 227.852 74.331C227.79 74.433 227.759 74.546 227.759 74.67C227.759 74.794 227.79 74.908 227.852 75.012C227.914 75.114 227.996 75.196 228.098 75.258C228.202 75.32 228.316 75.351 228.44 75.351Z" fill="white"/>
<circle cx="225" cy="87" r="1.5" fill="white" stroke="#F59E0B"/>
<rect x="155.95" y="99" width="2" height="2" fill="#F59E0B"/>
<rect x="155.95" y="103" width="2" height="2" fill="#F59E0B"/>
<rect x="155.95" y="107" width="2" height="2" fill="#F59E0B"/>
<rect x="155.95" y="111" width="2" height="2" fill="#F59E0B"/>
<rect x="155.95" y="115" width="2" height="2" fill="#F59E0B"/>
<rect x="155.95" y="119" width="2" height="2" fill="#F59E0B"/>
<rect x="155.95" y="123" width="2" height="2" fill="#F59E0B"/>
<rect x="159.95" y="99" width="2" height="2" fill="#F59E0B"/>
<rect x="159.95" y="103" width="2" height="2" fill="#F59E0B"/>
<rect x="159.95" y="107" width="2" height="2" fill="#F59E0B"/>
<rect x="159.95" y="111" width="2" height="2" fill="#F59E0B"/>
<rect x="159.95" y="115" width="2" height="2" fill="#F59E0B"/>
<rect x="159.95" y="119" width="2" height="2" fill="#F59E0B"/>
<rect x="159.95" y="123" width="2" height="2" fill="#F59E0B"/>
<rect x="163.95" y="99" width="2" height="2" fill="#F59E0B"/>
<rect x="163.95" y="103" width="2" height="2" fill="#F59E0B"/>
<rect x="163.95" y="107" width="2" height="2" fill="#F59E0B"/>
<rect x="163.95" y="111" width="2" height="2" fill="#F59E0B"/>
<rect x="163.95" y="115" width="2" height="2" fill="#F59E0B"/>
<rect x="163.95" y="119" width="2" height="2" fill="#F59E0B"/>
<rect x="163.95" y="123" width="2" height="2" fill="#F59E0B"/>
<rect x="167.95" y="99" width="2" height="2" fill="#F59E0B"/>
<rect x="167.95" y="103" width="2" height="2" fill="#F59E0B"/>
<rect x="167.95" y="107" width="2" height="2" fill="#F59E0B"/>
<rect x="167.95" y="111" width="2" height="2" fill="#F59E0B"/>
<rect x="167.95" y="115" width="2" height="2" fill="#F59E0B"/>
<rect x="167.95" y="119" width="2" height="2" fill="#F59E0B"/>
<rect x="167.95" y="123" width="2" height="2" fill="#F59E0B"/>
<rect x="171.95" y="99" width="2" height="2" fill="#F59E0B"/>
<rect x="171.95" y="103" width="2" height="2" fill="#F59E0B"/>
<rect x="171.95" y="107" width="2" height="2" fill="#F59E0B"/>
<rect x="171.95" y="111" width="2" height="2" fill="#F59E0B"/>
<rect x="171.95" y="115" width="2" height="2" fill="#F59E0B"/>
<rect x="171.95" y="119" width="2" height="2" fill="#F59E0B"/>
<rect x="171.95" y="123" width="2" height="2" fill="#F59E0B"/>
<rect x="175.95" y="99" width="2" height="2" fill="#F59E0B"/>
<rect x="175.95" y="103" width="2" height="2" fill="#F59E0B"/>
<rect x="175.95" y="107" width="2" height="2" fill="#F59E0B"/>
<rect x="175.95" y="111" width="2" height="2" fill="#F59E0B"/>
<rect x="175.95" y="115" width="2" height="2" fill="#F59E0B"/>
<rect x="175.95" y="119" width="2" height="2" fill="#F59E0B"/>
<rect x="175.95" y="123" width="2" height="2" fill="#F59E0B"/>
<rect x="179.95" y="99" width="2" height="2" fill="#F59E0B"/>
<rect x="179.95" y="103" width="2" height="2" fill="#F59E0B"/>
<rect x="179.95" y="107" width="2" height="2" fill="#F59E0B"/>
<rect x="179.95" y="111" width="2" height="2" fill="#F59E0B"/>
<rect x="179.95" y="115" width="2" height="2" fill="#F59E0B"/>
<rect x="179.95" y="119" width="2" height="2" fill="#F59E0B"/>
<rect x="179.95" y="123" width="2" height="2" fill="#F59E0B"/>
<rect x="183.95" y="99" width="2" height="2" fill="#F59E0B"/>
<rect x="183.95" y="103" width="2" height="2" fill="#F59E0B"/>
<rect x="183.95" y="107" width="2" height="2" fill="#F59E0B"/>
<rect x="183.95" y="111" width="2" height="2" fill="#F59E0B"/>
<rect x="183.95" y="115" width="2" height="2" fill="#F59E0B"/>
<rect x="183.95" y="119" width="2" height="2" fill="#F59E0B"/>
<rect x="183.95" y="123" width="2" height="2" fill="#F59E0B"/>
<rect x="187.95" y="99" width="2" height="2" fill="#F59E0B"/>
<rect x="187.95" y="103" width="2" height="2" fill="#F59E0B"/>
<rect x="187.95" y="107" width="2" height="2" fill="#F59E0B"/>
<rect x="187.95" y="111" width="2" height="2" fill="#F59E0B"/>
<rect x="187.95" y="115" width="2" height="2" fill="#F59E0B"/>
<rect x="187.95" y="119" width="2" height="2" fill="#F59E0B"/>
<rect x="187.95" y="123" width="2" height="2" fill="#F59E0B"/>
<rect x="191.95" y="99" width="2" height="2" fill="#F59E0B"/>
<rect x="191.95" y="103" width="2" height="2" fill="#F59E0B"/>
<rect x="191.95" y="107" width="2" height="2" fill="#F59E0B"/>
<rect x="191.95" y="111" width="2" height="2" fill="#F59E0B"/>
<rect x="191.95" y="115" width="2" height="2" fill="#F59E0B"/>
<rect x="191.95" y="119" width="2" height="2" fill="#F59E0B"/>
<rect x="191.95" y="123" width="2" height="2" fill="#F59E0B"/>
<rect x="195.95" y="99" width="2" height="2" fill="#F59E0B"/>
<rect x="195.95" y="103" width="2" height="2" fill="#F59E0B"/>
<rect x="195.95" y="107" width="2" height="2" fill="#F59E0B"/>
<rect x="195.95" y="111" width="2" height="2" fill="#F59E0B"/>
<rect x="195.95" y="115" width="2" height="2" fill="#F59E0B"/>
<rect x="195.95" y="119" width="2" height="2" fill="#F59E0B"/>
<rect x="195.95" y="123" width="2" height="2" fill="#F59E0B"/>
<rect x="199.95" y="99" width="2" height="2" fill="#F59E0B"/>
<rect x="199.95" y="103" width="2" height="2" fill="#F59E0B"/>
<rect x="199.95" y="107" width="2" height="2" fill="#F59E0B"/>
<rect x="199.95" y="111" width="2" height="2" fill="#F59E0B"/>
<rect x="199.95" y="115" width="2" height="2" fill="#F59E0B"/>
<rect x="199.95" y="119" width="2" height="2" fill="#F59E0B"/>
<rect x="199.95" y="123" width="2" height="2" fill="#F59E0B"/>
<rect x="203.95" y="99" width="2" height="2" fill="#F59E0B"/>
<rect x="203.95" y="103" width="2" height="2" fill="#F59E0B"/>
<rect x="203.95" y="107" width="2" height="2" fill="#F59E0B"/>
<rect x="203.95" y="111" width="2" height="2" fill="#F59E0B"/>
<rect x="203.95" y="115" width="2" height="2" fill="#F59E0B"/>
<rect x="203.95" y="119" width="2" height="2" fill="#F59E0B"/>
<rect x="203.95" y="123" width="2" height="2" fill="#F59E0B"/>
<rect x="207.95" y="99" width="2" height="2" fill="#F59E0B"/>
<rect x="207.95" y="103" width="2" height="2" fill="#F59E0B"/>
<rect x="207.95" y="107" width="2" height="2" fill="#F59E0B"/>
<rect x="207.95" y="111" width="2" height="2" fill="#F59E0B"/>
<rect x="207.95" y="115" width="2" height="2" fill="#F59E0B"/>
<rect x="207.95" y="119" width="2" height="2" fill="#F59E0B"/>
<rect x="207.95" y="123" width="2" height="2" fill="#F59E0B"/>
<rect x="211.95" y="99" width="2" height="2" fill="#F59E0B"/>
<rect x="211.95" y="103" width="2" height="2" fill="#F59E0B"/>
<rect x="211.95" y="107" width="2" height="2" fill="#F59E0B"/>
<rect x="211.95" y="111" width="2" height="2" fill="#F59E0B"/>
<rect x="211.95" y="115" width="2" height="2" fill="#F59E0B"/>
<rect x="211.95" y="119" width="2" height="2" fill="#F59E0B"/>
<rect x="211.95" y="123" width="2" height="2" fill="#F59E0B"/>
<rect x="215.95" y="99" width="2" height="2" fill="#F59E0B"/>
<rect x="215.95" y="103" width="2" height="2" fill="#F59E0B"/>
<rect x="215.95" y="107" width="2" height="2" fill="#F59E0B"/>
<rect x="215.95" y="111" width="2" height="2" fill="#F59E0B"/>
<rect x="215.95" y="115" width="2" height="2" fill="#F59E0B"/>
<rect x="215.95" y="119" width="2" height="2" fill="#F59E0B"/>
<rect x="215.95" y="123" width="2" height="2" fill="#F59E0B"/>
<rect x="219.95" y="91" width="2" height="2" fill="black"/>
<rect x="219.95" y="95" width="2" height="2" fill="black"/>
<rect x="219.95" y="99" width="2" height="2" fill="black"/>
<rect x="219.95" y="103" width="2" height="2" fill="black"/>
<rect x="219.95" y="107" width="2" height="2" fill="black"/>
<rect x="219.95" y="111" width="2" height="2" fill="black"/>
<rect x="219.95" y="115" width="2" height="2" fill="black"/>
<rect x="219.95" y="119" width="2" height="2" fill="black"/>
<rect x="219.95" y="123" width="2" height="2" fill="black"/>
<rect x="223.95" y="91" width="2" height="2" fill="black"/>
<rect x="223.95" y="95" width="2" height="2" fill="black"/>
<rect x="223.95" y="99" width="2" height="2" fill="black"/>
<rect x="223.95" y="103" width="2" height="2" fill="black"/>
<rect x="223.95" y="107" width="2" height="2" fill="black"/>
<rect x="223.95" y="111" width="2" height="2" fill="black"/>
<rect x="223.95" y="115" width="2" height="2" fill="black"/>
<rect x="223.95" y="119" width="2" height="2" fill="black"/>
<rect x="223.95" y="123" width="2" height="2" fill="black"/>
<rect x="227.95" y="91" width="2" height="2" fill="black"/>
<rect x="227.95" y="95" width="2" height="2" fill="black"/>
<rect x="227.95" y="99" width="2" height="2" fill="black"/>
<rect x="227.95" y="103" width="2" height="2" fill="black"/>
<rect x="227.95" y="107" width="2" height="2" fill="black"/>
<rect x="227.95" y="111" width="2" height="2" fill="black"/>
<rect x="227.95" y="115" width="2" height="2" fill="black"/>
<rect x="227.95" y="119" width="2" height="2" fill="black"/>
<rect x="227.95" y="123" width="2" height="2" fill="black"/>
<rect x="231.95" y="99" width="2" height="2" fill="#E5E5E5"/>
<rect x="231.95" y="103" width="2" height="2" fill="#E5E5E5"/>
<rect x="231.95" y="107" width="2" height="2" fill="#E5E5E5"/>
<rect x="231.95" y="111" width="2" height="2" fill="#E5E5E5"/>
<rect x="231.95" y="115" width="2" height="2" fill="#E5E5E5"/>
<rect x="231.95" y="119" width="2" height="2" fill="#E5E5E5"/>
<rect x="231.95" y="123" width="2" height="2" fill="#E5E5E5"/>
<rect x="235.95" y="99" width="2" height="2" fill="#E5E5E5"/>
<rect x="235.95" y="103" width="2" height="2" fill="#E5E5E5"/>
<rect x="235.95" y="107" width="2" height="2" fill="#E5E5E5"/>
<rect x="235.95" y="111" width="2" height="2" fill="#E5E5E5"/>
<rect x="235.95" y="115" width="2" height="2" fill="#E5E5E5"/>
<rect x="235.95" y="119" width="2" height="2" fill="#E5E5E5"/>
<rect x="235.95" y="123" width="2" height="2" fill="#E5E5E5"/>
</svg>
