<svg width="255" height="141" viewBox="0 0 255 141" fill="none" xmlns="http://www.w3.org/2000/svg">
<rect width="255" height="141" rx="16" fill="white"/>
<path d="M17.12 41.5V29.98H18.304L24.648 39.42V29.98H25.832V41.5H24.648L18.304 32.052V41.5H17.12ZM31.4091 41.74C30.5665 41.74 29.8358 41.5533 29.2171 41.18C28.6038 40.8067 28.1265 40.2813 27.7851 39.604C27.4438 38.9267 27.2731 38.132 27.2731 37.22C27.2731 36.276 27.4411 35.46 27.7771 34.772C28.1131 34.084 28.5851 33.5533 29.1931 33.18C29.8065 32.8067 30.5291 32.62 31.3611 32.62C32.2145 32.62 32.9425 32.8173 33.5451 33.212C34.1478 33.6013 34.6038 34.1613 34.9131 34.892C35.2225 35.6227 35.3638 36.4947 35.3371 37.508H34.1371V37.092C34.1158 35.972 33.8731 35.1267 33.4091 34.556C32.9505 33.9853 32.2785 33.7 31.3931 33.7C30.4651 33.7 29.7531 34.0013 29.2571 34.604C28.7665 35.2067 28.5211 36.0653 28.5211 37.18C28.5211 38.268 28.7665 39.1133 29.2571 39.716C29.7531 40.3133 30.4545 40.612 31.3611 40.612C31.9798 40.612 32.5185 40.4707 32.9771 40.188C33.4411 39.9 33.8065 39.4867 34.0731 38.948L35.1691 39.372C34.8278 40.124 34.3238 40.708 33.6571 41.124C32.9958 41.5347 32.2465 41.74 31.4091 41.74ZM28.1051 37.508V36.524H34.7051V37.508H28.1051ZM35.52 41.5L38.896 37.132L35.592 32.86H37L39.584 36.228L42.144 32.86H43.552L40.248 37.132L43.632 41.5H42.216L39.584 38.036L36.936 41.5H35.52ZM49.3015 41.5C48.8162 41.6013 48.3362 41.6413 47.8615 41.62C47.3922 41.5987 46.9708 41.4973 46.5975 41.316C46.2295 41.1347 45.9495 40.852 45.7575 40.468C45.6028 40.148 45.5175 39.8253 45.5015 39.5C45.4908 39.1693 45.4855 38.7933 45.4855 38.372V30.46H46.6535V38.324C46.6535 38.6867 46.6562 38.9907 46.6615 39.236C46.6722 39.476 46.7282 39.6893 46.8295 39.876C47.0215 40.2333 47.3255 40.4467 47.7415 40.516C48.1628 40.5853 48.6828 40.5693 49.3015 40.468V41.5ZM43.6375 33.868V32.86H49.3015V33.868H43.6375ZM52.7669 41.5L56.7349 29.98H58.2949L62.2629 41.5H61.0389L57.2709 30.636H57.7349L53.9909 41.5H52.7669ZM54.5349 38.708V37.604H60.4869V38.708H54.5349ZM67.2675 41.74C66.4728 41.74 65.8008 41.54 65.2515 41.14C64.7022 40.7347 64.2862 40.188 64.0035 39.5C63.7208 38.8067 63.5795 38.0307 63.5795 37.172C63.5795 36.2973 63.7208 35.5187 64.0035 34.836C64.2915 34.148 64.7128 33.6067 65.2675 33.212C65.8222 32.8173 66.5048 32.62 67.3155 32.62C68.1048 32.62 68.7822 32.82 69.3475 33.22C69.9128 33.62 70.3448 34.164 70.6435 34.852C70.9475 35.54 71.0995 36.3133 71.0995 37.172C71.0995 38.036 70.9475 38.812 70.6435 39.5C70.3395 40.188 69.9022 40.7347 69.3315 41.14C68.7608 41.54 68.0728 41.74 67.2675 41.74ZM63.3795 45.34V32.86H64.4355V39.364H64.5635V45.34H63.3795ZM67.1475 40.644C67.7502 40.644 68.2515 40.492 68.6515 40.188C69.0515 39.884 69.3502 39.4707 69.5475 38.948C69.7502 38.42 69.8515 37.828 69.8515 37.172C69.8515 36.5213 69.7528 35.9347 69.5555 35.412C69.3582 34.8893 69.0568 34.476 68.6515 34.172C68.2515 33.868 67.7422 33.716 67.1235 33.716C66.5208 33.716 66.0195 33.8627 65.6195 34.156C65.2248 34.4493 64.9288 34.8573 64.7315 35.38C64.5342 35.8973 64.4355 36.4947 64.4355 37.172C64.4355 37.8387 64.5342 38.436 64.7315 38.964C64.9288 39.4867 65.2275 39.8973 65.6275 40.196C66.0275 40.4947 66.5342 40.644 67.1475 40.644ZM76.4162 41.74C75.6216 41.74 74.9496 41.54 74.4002 41.14C73.8509 40.7347 73.4349 40.188 73.1522 39.5C72.8696 38.8067 72.7282 38.0307 72.7282 37.172C72.7282 36.2973 72.8696 35.5187 73.1522 34.836C73.4402 34.148 73.8616 33.6067 74.4162 33.212C74.9709 32.8173 75.6536 32.62 76.4642 32.62C77.2536 32.62 77.9309 32.82 78.4962 33.22C79.0616 33.62 79.4936 34.164 79.7922 34.852C80.0962 35.54 80.2482 36.3133 80.2482 37.172C80.2482 38.036 80.0962 38.812 79.7922 39.5C79.4882 40.188 79.0509 40.7347 78.4802 41.14C77.9096 41.54 77.2216 41.74 76.4162 41.74ZM72.5282 45.34V32.86H73.5842V39.364H73.7122V45.34H72.5282ZM76.2962 40.644C76.8989 40.644 77.4002 40.492 77.8002 40.188C78.2002 39.884 78.4989 39.4707 78.6962 38.948C78.8989 38.42 79.0002 37.828 79.0002 37.172C79.0002 36.5213 78.9016 35.9347 78.7042 35.412C78.5069 34.8893 78.2056 34.476 77.8002 34.172C77.4002 33.868 76.8909 33.716 76.2722 33.716C75.6696 33.716 75.1682 33.8627 74.7682 34.156C74.3736 34.4493 74.0776 34.8573 73.8802 35.38C73.6829 35.8973 73.5842 36.4947 73.5842 37.172C73.5842 37.8387 73.6829 38.436 73.8802 38.964C74.0776 39.4867 74.3762 39.8973 74.7762 40.196C75.1762 40.4947 75.6829 40.644 76.2962 40.644ZM85.293 41.74C84.4343 41.74 83.701 41.5453 83.093 41.156C82.485 40.7667 82.0183 40.228 81.693 39.54C81.3677 38.852 81.205 38.0627 81.205 37.172C81.205 36.2653 81.3703 35.4707 81.701 34.788C82.0317 34.1053 82.501 33.5747 83.109 33.196C83.7223 32.812 84.4503 32.62 85.293 32.62C86.157 32.62 86.893 32.8147 87.501 33.204C88.1143 33.588 88.581 34.124 88.901 34.812C89.2263 35.4947 89.389 36.2813 89.389 37.172C89.389 38.0787 89.2263 38.876 88.901 39.564C88.5757 40.2467 88.1063 40.78 87.493 41.164C86.8797 41.548 86.1463 41.74 85.293 41.74ZM85.293 40.612C86.253 40.612 86.9677 40.2947 87.437 39.66C87.9063 39.02 88.141 38.1907 88.141 37.172C88.141 36.1267 87.9037 35.2947 87.429 34.676C86.9597 34.0573 86.2477 33.748 85.293 33.748C84.6477 33.748 84.1143 33.8947 83.693 34.188C83.277 34.476 82.965 34.8787 82.757 35.396C82.5543 35.908 82.453 36.5 82.453 37.172C82.453 38.212 82.693 39.0467 83.173 39.676C83.653 40.3 84.3597 40.612 85.293 40.612ZM90.9938 31.22V29.9H92.1698V31.22H90.9938ZM90.9938 41.5V32.86H92.1698V41.5H90.9938ZM100.488 41.5V37.092C100.488 36.612 100.443 36.172 100.352 35.772C100.261 35.3667 100.115 35.0147 99.9121 34.716C99.7148 34.412 99.4561 34.1773 99.1361 34.012C98.8215 33.8467 98.4375 33.764 97.9841 33.764C97.5681 33.764 97.2001 33.836 96.8801 33.98C96.5655 34.124 96.2988 34.332 96.0801 34.604C95.8668 34.8707 95.7041 35.196 95.5921 35.58C95.4801 35.964 95.4241 36.4013 95.4241 36.892L94.5921 36.708C94.5921 35.8227 94.7468 35.0787 95.0561 34.476C95.3655 33.8733 95.7921 33.4173 96.3361 33.108C96.8801 32.7987 97.5041 32.644 98.2081 32.644C98.7255 32.644 99.1761 32.724 99.5601 32.884C99.9495 33.044 100.277 33.26 100.544 33.532C100.816 33.804 101.035 34.116 101.2 34.468C101.365 34.8147 101.485 35.1853 101.56 35.58C101.635 35.9693 101.672 36.3587 101.672 36.748V41.5H100.488ZM94.2401 41.5V32.86H95.3041V34.988H95.4241V41.5H94.2401ZM108.132 41.5C107.647 41.6013 107.167 41.6413 106.692 41.62C106.223 41.5987 105.801 41.4973 105.428 41.316C105.06 41.1347 104.78 40.852 104.588 40.468C104.433 40.148 104.348 39.8253 104.332 39.5C104.321 39.1693 104.316 38.7933 104.316 38.372V30.46H105.484V38.324C105.484 38.6867 105.487 38.9907 105.492 39.236C105.503 39.476 105.559 39.6893 105.66 39.876C105.852 40.2333 106.156 40.4467 106.572 40.516C106.993 40.5853 107.513 40.5693 108.132 40.468V41.5ZM102.468 33.868V32.86H108.132V33.868H102.468ZM119.818 41.5L119.826 35.828C119.826 35.1613 119.64 34.6387 119.266 34.26C118.898 33.876 118.429 33.684 117.858 33.684C117.533 33.684 117.216 33.7587 116.906 33.908C116.597 34.0573 116.341 34.2973 116.138 34.628C115.941 34.9587 115.842 35.3907 115.842 35.924L115.146 35.724C115.13 35.1053 115.25 34.564 115.506 34.1C115.768 33.636 116.125 33.276 116.578 33.02C117.037 32.7587 117.554 32.628 118.13 32.628C119 32.628 119.696 32.8973 120.218 33.436C120.741 33.9693 121.002 34.692 121.002 35.604L120.994 41.5H119.818ZM109.506 41.5V32.86H110.562V34.988H110.69V41.5H109.506ZM114.674 41.5L114.682 35.908C114.682 35.22 114.498 34.6787 114.13 34.284C113.768 33.884 113.288 33.684 112.69 33.684C112.093 33.684 111.61 33.8893 111.242 34.3C110.874 34.7053 110.69 35.2467 110.69 35.924L109.986 35.54C109.986 34.9853 110.117 34.4893 110.378 34.052C110.64 33.6093 110.997 33.2627 111.45 33.012C111.904 32.756 112.418 32.628 112.994 32.628C113.544 32.628 114.032 32.7453 114.458 32.98C114.89 33.2147 115.229 33.556 115.474 34.004C115.72 34.452 115.842 34.996 115.842 35.636L115.834 41.5H114.674ZM126.366 41.74C125.523 41.74 124.793 41.5533 124.174 41.18C123.561 40.8067 123.083 40.2813 122.742 39.604C122.401 38.9267 122.23 38.132 122.23 37.22C122.23 36.276 122.398 35.46 122.734 34.772C123.07 34.084 123.542 33.5533 124.15 33.18C124.763 32.8067 125.486 32.62 126.318 32.62C127.171 32.62 127.899 32.8173 128.502 33.212C129.105 33.6013 129.561 34.1613 129.87 34.892C130.179 35.6227 130.321 36.4947 130.294 37.508H129.094V37.092C129.073 35.972 128.83 35.1267 128.366 34.556C127.907 33.9853 127.235 33.7 126.35 33.7C125.422 33.7 124.71 34.0013 124.214 34.604C123.723 35.2067 123.478 36.0653 123.478 37.18C123.478 38.268 123.723 39.1133 124.214 39.716C124.71 40.3133 125.411 40.612 126.318 40.612C126.937 40.612 127.475 40.4707 127.934 40.188C128.398 39.9 128.763 39.4867 129.03 38.948L130.126 39.372C129.785 40.124 129.281 40.708 128.614 41.124C127.953 41.5347 127.203 41.74 126.366 41.74ZM123.062 37.508V36.524H129.662V37.508H123.062ZM137.755 41.5V37.092C137.755 36.612 137.71 36.172 137.619 35.772C137.528 35.3667 137.382 35.0147 137.179 34.716C136.982 34.412 136.723 34.1773 136.403 34.012C136.088 33.8467 135.704 33.764 135.251 33.764C134.835 33.764 134.467 33.836 134.147 33.98C133.832 34.124 133.566 34.332 133.347 34.604C133.134 34.8707 132.971 35.196 132.859 35.58C132.747 35.964 132.691 36.4013 132.691 36.892L131.859 36.708C131.859 35.8227 132.014 35.0787 132.323 34.476C132.632 33.8733 133.059 33.4173 133.603 33.108C134.147 32.7987 134.771 32.644 135.475 32.644C135.992 32.644 136.443 32.724 136.827 32.884C137.216 33.044 137.544 33.26 137.811 33.532C138.083 33.804 138.302 34.116 138.467 34.468C138.632 34.8147 138.752 35.1853 138.827 35.58C138.902 35.9693 138.939 36.3587 138.939 36.748V41.5H137.755ZM131.507 41.5V32.86H132.571V34.988H132.691V41.5H131.507ZM145.399 41.5C144.914 41.6013 144.434 41.6413 143.959 41.62C143.49 41.5987 143.068 41.4973 142.695 41.316C142.327 41.1347 142.047 40.852 141.855 40.468C141.7 40.148 141.615 39.8253 141.599 39.5C141.588 39.1693 141.583 38.7933 141.583 38.372V30.46H142.751V38.324C142.751 38.6867 142.754 38.9907 142.759 39.236C142.77 39.476 142.826 39.6893 142.927 39.876C143.119 40.2333 143.423 40.4467 143.839 40.516C144.26 40.5853 144.78 40.5693 145.399 40.468V41.5ZM139.735 33.868V32.86H145.399V33.868H139.735Z" fill="#525252"/>
<rect x="201" y="16" width="38" height="38" rx="19" fill="#F5F5F5"/>
<path fill-rule="evenodd" clip-rule="evenodd" d="M215 26.0417C215.345 26.0417 215.625 26.3215 215.625 26.6667V26.9716C216.572 26.875 217.737 26.875 219.158 26.875H220.842C222.263 26.875 223.428 26.875 224.375 26.9716V26.6667C224.375 26.3215 224.655 26.0417 225 26.0417C225.345 26.0417 225.625 26.3215 225.625 26.6667V27.1957C226.296 27.3858 226.861 27.6947 227.332 28.2037C227.968 28.8913 228.257 29.7567 228.399 30.8371C228.538 31.9039 228.541 33.2664 228.542 35C228.542 35.3451 228.262 35.625 227.917 35.625C227.572 35.6251 227.292 35.3453 227.292 35.0001C227.292 33.9299 227.289 33.0414 227.259 32.2917H212.741C212.709 33.0891 212.708 34.0424 212.708 35.2027V35.6307C212.708 37.4626 212.709 38.7783 212.834 39.7795C212.957 40.7674 213.19 41.3537 213.586 41.7809C213.974 42.2012 214.498 42.4443 215.389 42.5738C216.304 42.7068 217.51 42.7084 219.208 42.7084C219.554 42.7084 219.833 42.9882 219.833 43.3334C219.833 43.6785 219.554 43.9584 219.208 43.9584H219.158C217.521 43.9584 216.224 43.9584 215.209 43.8109C214.161 43.6584 213.323 43.3375 212.668 42.6297C212.02 41.9289 211.732 41.0434 211.594 39.9338C211.458 38.8464 211.458 37.453 211.458 35.675V35.1584C211.458 33.3804 211.458 31.9869 211.594 30.8996C211.732 29.79 212.02 28.9045 212.668 28.2037C213.139 27.6947 213.704 27.3858 214.375 27.1957V26.6667C214.375 26.3215 214.655 26.0417 215 26.0417ZM214.399 28.5049C214.059 28.6399 213.802 28.8188 213.586 29.0525C213.192 29.4779 212.959 30.0612 212.836 31.0417H227.165C227.163 31.0274 227.161 31.0131 227.159 30.9989C227.034 30.0441 226.802 29.4717 226.414 29.0525C226.198 28.8188 225.941 28.6399 225.601 28.5049C225.527 28.7667 225.286 28.9584 225 28.9584C224.655 28.9584 224.375 28.6785 224.375 28.3334V28.2288C223.491 28.1263 222.348 28.125 220.792 28.125H219.208C217.652 28.125 216.509 28.1263 215.625 28.2288V28.3334C215.625 28.6785 215.345 28.9584 215 28.9584C214.714 28.9584 214.473 28.7667 214.399 28.5049Z" fill="black"/>
<path fill-rule="evenodd" clip-rule="evenodd" d="M223.734 36.5603C223.033 36.0401 221.881 35.7413 220.628 36.5003C219.716 37.0526 219.241 38.1797 219.409 39.4156C219.578 40.6621 220.386 42.0162 222.008 43.2021L222.074 43.2504C222.596 43.6325 223.041 43.9583 223.75 43.9583C224.459 43.9583 224.904 43.6325 225.426 43.2504L225.492 43.2021C227.114 42.0162 227.922 40.6621 228.091 39.4156C228.259 38.1797 227.784 37.0526 226.872 36.5003C225.619 35.7413 224.467 36.0401 223.766 36.5603L223.75 36.5718L223.734 36.5603ZM221.275 37.5694C222.034 37.11 222.637 37.3023 222.99 37.5642L223.004 37.5744C223.1 37.6457 223.195 37.7162 223.274 37.7675C223.317 37.795 223.373 37.8296 223.438 37.8585C223.498 37.8853 223.609 37.9278 223.75 37.9278C223.891 37.9278 224.002 37.8853 224.062 37.8585C224.127 37.8296 224.183 37.795 224.226 37.7675C224.305 37.7162 224.4 37.6457 224.496 37.5744L224.51 37.5642C224.863 37.3023 225.466 37.11 226.225 37.5694C226.633 37.8167 226.967 38.4083 226.853 39.2474C226.74 40.0761 226.176 41.1536 224.754 42.193C224.145 42.6381 224.017 42.7083 223.75 42.7083C223.483 42.7083 223.355 42.6381 222.746 42.193C221.324 41.1536 220.76 40.0761 220.647 39.2474C220.533 38.4083 220.867 37.8167 221.275 37.5694Z" fill="black"/>
<path d="M18.94 116V85.76H28.579C28.831 85.76 29.328 85.767 30.07 85.781C30.826 85.795 31.554 85.844 32.254 85.928C34.648 86.236 36.671 87.09 38.323 88.49C39.989 89.876 41.249 91.647 42.103 93.803C42.957 95.959 43.384 98.318 43.384 100.88C43.384 103.442 42.957 105.801 42.103 107.957C41.249 110.113 39.989 111.891 38.323 113.291C36.671 114.677 34.648 115.524 32.254 115.832C31.568 115.916 30.847 115.965 30.091 115.979C29.335 115.993 28.831 116 28.579 116H18.94ZM24.085 111.233H28.579C28.999 111.233 29.531 111.219 30.175 111.191C30.833 111.163 31.414 111.1 31.918 111.002C33.346 110.736 34.508 110.099 35.404 109.091C36.3 108.083 36.958 106.858 37.378 105.416C37.812 103.974 38.029 102.462 38.029 100.88C38.029 99.242 37.812 97.702 37.378 96.26C36.944 94.818 36.272 93.607 35.362 92.627C34.466 91.647 33.318 91.024 31.918 90.758C31.414 90.646 30.833 90.583 30.175 90.569C29.531 90.541 28.999 90.527 28.579 90.527H24.085V111.233ZM56.1392 116.63C53.8432 116.63 51.8272 116.133 50.0912 115.139C48.3552 114.145 46.9972 112.766 46.0172 111.002C45.0512 109.238 44.5682 107.208 44.5682 104.912C44.5682 102.434 45.0442 100.285 45.9962 98.465C46.9482 96.631 48.2712 95.21 49.9652 94.202C51.6592 93.194 53.6192 92.69 55.8452 92.69C58.1972 92.69 60.1922 93.243 61.8302 94.349C63.4822 95.441 64.7072 96.988 65.5052 98.99C66.3032 100.992 66.6042 103.351 66.4082 106.067H61.3892V104.219C61.3752 101.755 60.9412 99.956 60.0872 98.822C59.2332 97.688 57.8892 97.121 56.0552 97.121C53.9832 97.121 52.4432 97.765 51.4352 99.053C50.4272 100.327 49.9232 102.196 49.9232 104.66C49.9232 106.956 50.4272 108.734 51.4352 109.994C52.4432 111.254 53.9132 111.884 55.8452 111.884C57.0912 111.884 58.1622 111.611 59.0582 111.065C59.9682 110.505 60.6682 109.7 61.1582 108.65L66.1562 110.162C65.2882 112.206 63.9442 113.795 62.1242 114.929C60.3182 116.063 58.3232 116.63 56.1392 116.63ZM48.3272 106.067V102.245H63.9302V106.067H48.3272ZM78.4228 116.63C76.0848 116.63 74.0898 116.112 72.4378 115.076C70.7858 114.026 69.5188 112.598 68.6368 110.792C67.7688 108.986 67.3278 106.942 67.3138 104.66C67.3278 102.336 67.7828 100.278 68.6788 98.486C69.5888 96.68 70.8768 95.266 72.5428 94.244C74.2088 93.208 76.1898 92.69 78.4858 92.69C81.0618 92.69 83.2388 93.341 85.0168 94.643C86.8088 95.931 87.9778 97.695 88.5238 99.935L83.4838 101.3C83.0918 100.082 82.4408 99.137 81.5308 98.465C80.6208 97.779 79.5848 97.436 78.4228 97.436C77.1068 97.436 76.0218 97.751 75.1678 98.381C74.3138 98.997 73.6838 99.851 73.2778 100.943C72.8718 102.035 72.6688 103.274 72.6688 104.66C72.6688 106.816 73.1518 108.559 74.1178 109.889C75.0838 111.219 76.5188 111.884 78.4228 111.884C79.7668 111.884 80.8238 111.576 81.5938 110.96C82.3778 110.344 82.9658 109.455 83.3578 108.293L88.5238 109.448C87.8238 111.758 86.5988 113.536 84.8488 114.782C83.0988 116.014 80.9568 116.63 78.4228 116.63ZM101.35 116V91.283L95.6802 94.748V89.162L101.35 85.76H106.516V116H101.35ZM120.963 116.63C119.423 116.63 117.988 116.315 116.658 115.685C115.328 115.041 114.18 114.159 113.214 113.039C112.262 111.919 111.576 110.617 111.156 109.133L116.028 107.831C116.224 108.643 116.581 109.343 117.099 109.931C117.631 110.519 118.247 110.974 118.947 111.296C119.661 111.618 120.396 111.779 121.152 111.779C122.132 111.779 123.028 111.541 123.84 111.065C124.652 110.589 125.296 109.952 125.772 109.154C126.248 108.342 126.486 107.446 126.486 106.466C126.486 105.486 126.241 104.597 125.751 103.799C125.275 102.987 124.631 102.35 123.819 101.888C123.007 101.412 122.118 101.174 121.152 101.174C119.99 101.174 119.024 101.384 118.254 101.804C117.498 102.224 116.917 102.672 116.511 103.148L112.185 101.762L113.109 85.76H129.531V90.506H115.818L117.708 88.721L117.036 99.851L116.112 98.717C116.896 98.003 117.806 97.471 118.842 97.121C119.878 96.771 120.879 96.596 121.845 96.596C123.735 96.596 125.408 97.03 126.864 97.898C128.334 98.752 129.482 99.921 130.308 101.405C131.148 102.889 131.568 104.576 131.568 106.466C131.568 108.356 131.078 110.071 130.098 111.611C129.118 113.137 127.823 114.355 126.213 115.265C124.617 116.175 122.867 116.63 120.963 116.63Z" fill="black"/>
<rect x="157" y="99" width="2" height="2" fill="#D02F2F"/>
<rect x="157" y="103" width="2" height="2" fill="#D02F2F"/>
<rect x="157" y="107" width="2" height="2" fill="#D02F2F"/>
<rect x="157" y="111" width="2" height="2" fill="#D02F2F"/>
<rect x="157" y="115" width="2" height="2" fill="#D02F2F"/>
<rect x="157" y="119" width="2" height="2" fill="#D02F2F"/>
<rect x="157" y="123" width="2" height="2" fill="#D02F2F"/>
<rect x="161" y="99" width="2" height="2" fill="#D02F2F"/>
<rect x="161" y="103" width="2" height="2" fill="#D02F2F"/>
<rect x="161" y="107" width="2" height="2" fill="#D02F2F"/>
<rect x="161" y="111" width="2" height="2" fill="#D02F2F"/>
<rect x="161" y="115" width="2" height="2" fill="#D02F2F"/>
<rect x="161" y="119" width="2" height="2" fill="#D02F2F"/>
<rect x="161" y="123" width="2" height="2" fill="#D02F2F"/>
<rect x="165" y="99" width="2" height="2" fill="#D02F2F"/>
<rect x="165" y="103" width="2" height="2" fill="#D02F2F"/>
<rect x="165" y="107" width="2" height="2" fill="#D02F2F"/>
<rect x="165" y="111" width="2" height="2" fill="#D02F2F"/>
<rect x="165" y="115" width="2" height="2" fill="#D02F2F"/>
<rect x="165" y="119" width="2" height="2" fill="#D02F2F"/>
<rect x="165" y="123" width="2" height="2" fill="#D02F2F"/>
<path d="M169 91H171V93H169V91Z" fill="black"/>
<path d="M169 95H171V97H169V95Z" fill="black"/>
<path d="M169 99H171V101H169V99Z" fill="black"/>
<path d="M169 103H171V105H169V103Z" fill="black"/>
<path d="M169 107H171V109H169V107Z" fill="black"/>
<path d="M169 111H171V113H169V111Z" fill="black"/>
<path d="M169 115H171V117H169V115Z" fill="black"/>
<path d="M169 119H171V121H169V119Z" fill="black"/>
<path d="M169 123H171V125H169V123Z" fill="black"/>
<path d="M173 91H175V93H173V91Z" fill="black"/>
<path d="M173 95H175V97H173V95Z" fill="black"/>
<path d="M173 99H175V101H173V99Z" fill="black"/>
<path d="M173 103H175V105H173V103Z" fill="black"/>
<path d="M173 107H175V109H173V107Z" fill="black"/>
<path d="M173 111H175V113H173V111Z" fill="black"/>
<path d="M173 115H175V117H173V115Z" fill="black"/>
<path d="M173 119H175V121H173V119Z" fill="black"/>
<path d="M173 123H175V125H173V123Z" fill="black"/>
<path d="M177 91H179V93H177V91Z" fill="black"/>
<path d="M177 95H179V97H177V95Z" fill="black"/>
<path d="M177 99H179V101H177V99Z" fill="black"/>
<path d="M177 103H179V105H177V103Z" fill="black"/>
<path d="M177 107H179V109H177V107Z" fill="black"/>
<path d="M177 111H179V113H177V111Z" fill="black"/>
<path d="M177 115H179V117H177V115Z" fill="black"/>
<path d="M177 119H179V121H177V119Z" fill="black"/>
<path d="M177 123H179V125H177V123Z" fill="black"/>
<rect x="181" y="99" width="2" height="2" fill="#E5E5E5"/>
<rect x="181" y="103" width="2" height="2" fill="#E5E5E5"/>
<rect x="181" y="107" width="2" height="2" fill="#E5E5E5"/>
<rect x="181" y="111" width="2" height="2" fill="#E5E5E5"/>
<rect x="181" y="115" width="2" height="2" fill="#E5E5E5"/>
<rect x="181" y="119" width="2" height="2" fill="#E5E5E5"/>
<rect x="181" y="123" width="2" height="2" fill="#E5E5E5"/>
<rect x="185" y="99" width="2" height="2" fill="#E5E5E5"/>
<rect x="185" y="103" width="2" height="2" fill="#E5E5E5"/>
<rect x="185" y="107" width="2" height="2" fill="#E5E5E5"/>
<rect x="185" y="111" width="2" height="2" fill="#E5E5E5"/>
<rect x="185" y="115" width="2" height="2" fill="#E5E5E5"/>
<rect x="185" y="119" width="2" height="2" fill="#E5E5E5"/>
<rect x="185" y="123" width="2" height="2" fill="#E5E5E5"/>
<rect x="189" y="99" width="2" height="2" fill="#E5E5E5"/>
<rect x="189" y="103" width="2" height="2" fill="#E5E5E5"/>
<rect x="189" y="107" width="2" height="2" fill="#E5E5E5"/>
<rect x="189" y="111" width="2" height="2" fill="#E5E5E5"/>
<rect x="189" y="115" width="2" height="2" fill="#E5E5E5"/>
<rect x="189" y="119" width="2" height="2" fill="#E5E5E5"/>
<rect x="189" y="123" width="2" height="2" fill="#E5E5E5"/>
<rect x="193" y="99" width="2" height="2" fill="#E5E5E5"/>
<rect x="193" y="103" width="2" height="2" fill="#E5E5E5"/>
<rect x="193" y="107" width="2" height="2" fill="#E5E5E5"/>
<rect x="193" y="111" width="2" height="2" fill="#E5E5E5"/>
<rect x="193" y="115" width="2" height="2" fill="#E5E5E5"/>
<rect x="193" y="119" width="2" height="2" fill="#E5E5E5"/>
<rect x="193" y="123" width="2" height="2" fill="#E5E5E5"/>
<rect x="197" y="99" width="2" height="2" fill="#E5E5E5"/>
<rect x="197" y="103" width="2" height="2" fill="#E5E5E5"/>
<rect x="197" y="107" width="2" height="2" fill="#E5E5E5"/>
<rect x="197" y="111" width="2" height="2" fill="#E5E5E5"/>
<rect x="197" y="115" width="2" height="2" fill="#E5E5E5"/>
<rect x="197" y="119" width="2" height="2" fill="#E5E5E5"/>
<rect x="197" y="123" width="2" height="2" fill="#E5E5E5"/>
<rect x="201" y="99" width="2" height="2" fill="#E5E5E5"/>
<rect x="201" y="103" width="2" height="2" fill="#E5E5E5"/>
<rect x="201" y="107" width="2" height="2" fill="#E5E5E5"/>
<rect x="201" y="111" width="2" height="2" fill="#E5E5E5"/>
<rect x="201" y="115" width="2" height="2" fill="#E5E5E5"/>
<rect x="201" y="119" width="2" height="2" fill="#E5E5E5"/>
<rect x="201" y="123" width="2" height="2" fill="#E5E5E5"/>
<rect x="205" y="99" width="2" height="2" fill="#E5E5E5"/>
<rect x="205" y="103" width="2" height="2" fill="#E5E5E5"/>
<rect x="205" y="107" width="2" height="2" fill="#E5E5E5"/>
<rect x="205" y="111" width="2" height="2" fill="#E5E5E5"/>
<rect x="205" y="115" width="2" height="2" fill="#E5E5E5"/>
<rect x="205" y="119" width="2" height="2" fill="#E5E5E5"/>
<rect x="205" y="123" width="2" height="2" fill="#E5E5E5"/>
<rect x="209" y="99" width="2" height="2" fill="#E5E5E5"/>
<rect x="209" y="103" width="2" height="2" fill="#E5E5E5"/>
<rect x="209" y="107" width="2" height="2" fill="#E5E5E5"/>
<rect x="209" y="111" width="2" height="2" fill="#E5E5E5"/>
<rect x="209" y="115" width="2" height="2" fill="#E5E5E5"/>
<rect x="209" y="119" width="2" height="2" fill="#E5E5E5"/>
<rect x="209" y="123" width="2" height="2" fill="#E5E5E5"/>
<rect x="213" y="99" width="2" height="2" fill="#E5E5E5"/>
<rect x="213" y="103" width="2" height="2" fill="#E5E5E5"/>
<rect x="213" y="107" width="2" height="2" fill="#E5E5E5"/>
<rect x="213" y="111" width="2" height="2" fill="#E5E5E5"/>
<rect x="213" y="115" width="2" height="2" fill="#E5E5E5"/>
<rect x="213" y="119" width="2" height="2" fill="#E5E5E5"/>
<rect x="213" y="123" width="2" height="2" fill="#E5E5E5"/>
<rect x="217" y="99" width="2" height="2" fill="#E5E5E5"/>
<rect x="217" y="103" width="2" height="2" fill="#E5E5E5"/>
<rect x="217" y="107" width="2" height="2" fill="#E5E5E5"/>
<rect x="217" y="111" width="2" height="2" fill="#E5E5E5"/>
<rect x="217" y="115" width="2" height="2" fill="#E5E5E5"/>
<rect x="217" y="119" width="2" height="2" fill="#E5E5E5"/>
<rect x="217" y="123" width="2" height="2" fill="#E5E5E5"/>
<rect x="221" y="99" width="2" height="2" fill="#E5E5E5"/>
<rect x="221" y="103" width="2" height="2" fill="#E5E5E5"/>
<rect x="221" y="107" width="2" height="2" fill="#E5E5E5"/>
<rect x="221" y="111" width="2" height="2" fill="#E5E5E5"/>
<rect x="221" y="115" width="2" height="2" fill="#E5E5E5"/>
<rect x="221" y="119" width="2" height="2" fill="#E5E5E5"/>
<rect x="221" y="123" width="2" height="2" fill="#E5E5E5"/>
<rect x="225" y="99" width="2" height="2" fill="#E5E5E5"/>
<rect x="225" y="103" width="2" height="2" fill="#E5E5E5"/>
<rect x="225" y="107" width="2" height="2" fill="#E5E5E5"/>
<rect x="225" y="111" width="2" height="2" fill="#E5E5E5"/>
<rect x="225" y="115" width="2" height="2" fill="#E5E5E5"/>
<rect x="225" y="119" width="2" height="2" fill="#E5E5E5"/>
<rect x="225" y="123" width="2" height="2" fill="#E5E5E5"/>
<rect x="229" y="99" width="2" height="2" fill="#E5E5E5"/>
<rect x="229" y="103" width="2" height="2" fill="#E5E5E5"/>
<rect x="229" y="107" width="2" height="2" fill="#E5E5E5"/>
<rect x="229" y="111" width="2" height="2" fill="#E5E5E5"/>
<rect x="229" y="115" width="2" height="2" fill="#E5E5E5"/>
<rect x="229" y="119" width="2" height="2" fill="#E5E5E5"/>
<rect x="229" y="123" width="2" height="2" fill="#E5E5E5"/>
<rect x="233" y="99" width="2" height="2" fill="#E5E5E5"/>
<rect x="233" y="103" width="2" height="2" fill="#E5E5E5"/>
<rect x="233" y="107" width="2" height="2" fill="#E5E5E5"/>
<rect x="233" y="111" width="2" height="2" fill="#E5E5E5"/>
<rect x="233" y="115" width="2" height="2" fill="#E5E5E5"/>
<rect x="233" y="119" width="2" height="2" fill="#E5E5E5"/>
<rect x="233" y="123" width="2" height="2" fill="#E5E5E5"/>
<rect x="237" y="99" width="2" height="2" fill="#E5E5E5"/>
<rect x="237" y="103" width="2" height="2" fill="#E5E5E5"/>
<rect x="237" y="107" width="2" height="2" fill="#E5E5E5"/>
<rect x="237" y="111" width="2" height="2" fill="#E5E5E5"/>
<rect x="237" y="115" width="2" height="2" fill="#E5E5E5"/>
<rect x="237" y="119" width="2" height="2" fill="#E5E5E5"/>
<rect x="237" y="123" width="2" height="2" fill="#E5E5E5"/>
<rect x="161.125" y="70" width="26" height="14" rx="7" fill="#D02F2F"/>
<path d="M168.689 80V75.028L167.605 75.684V74.888L168.689 74.24H169.413V80H168.689ZM173.183 80V78.94H170.535V78.264L172.435 74.24H173.243L171.343 78.264H173.183V76.644H173.903V78.264H174.503V78.94H173.903V80H173.183Z" fill="white"/>
<path d="M175.965 78L175.665 77.7L179.694 73.68L179.994 73.977L175.965 78ZM179.094 78.09C178.896 78.09 178.715 78.042 178.551 77.946C178.389 77.848 178.259 77.718 178.161 77.556C178.063 77.392 178.014 77.21 178.014 77.01C178.014 76.814 178.064 76.634 178.164 76.47C178.264 76.306 178.396 76.175 178.56 76.077C178.724 75.979 178.902 75.93 179.094 75.93C179.292 75.93 179.473 75.979 179.637 76.077C179.801 76.173 179.931 76.303 180.027 76.467C180.125 76.629 180.174 76.81 180.174 77.01C180.174 77.21 180.125 77.392 180.027 77.556C179.931 77.718 179.801 77.848 179.637 77.946C179.473 78.042 179.292 78.09 179.094 78.09ZM179.094 77.691C179.216 77.691 179.329 77.66 179.433 77.598C179.537 77.536 179.62 77.454 179.682 77.352C179.744 77.248 179.775 77.134 179.775 77.01C179.775 76.886 179.744 76.773 179.682 76.671C179.62 76.567 179.537 76.484 179.433 76.422C179.329 76.36 179.216 76.329 179.094 76.329C178.97 76.329 178.856 76.36 178.752 76.422C178.65 76.484 178.567 76.567 178.503 76.671C178.441 76.773 178.41 76.886 178.41 77.01C178.41 77.134 178.441 77.248 178.503 77.352C178.567 77.454 178.65 77.536 178.752 77.598C178.856 77.66 178.97 77.691 179.094 77.691ZM176.565 75.75C176.367 75.75 176.186 75.702 176.022 75.606C175.858 75.508 175.727 75.378 175.629 75.216C175.533 75.052 175.485 74.87 175.485 74.67C175.485 74.474 175.535 74.294 175.635 74.13C175.735 73.966 175.867 73.835 176.031 73.737C176.195 73.639 176.373 73.59 176.565 73.59C176.763 73.59 176.943 73.639 177.105 73.737C177.269 73.833 177.4 73.963 177.498 74.127C177.596 74.289 177.645 74.47 177.645 74.67C177.645 74.87 177.596 75.052 177.498 75.216C177.4 75.378 177.269 75.508 177.105 75.606C176.943 75.702 176.763 75.75 176.565 75.75ZM176.565 75.351C176.689 75.351 176.802 75.32 176.904 75.258C177.008 75.196 177.091 75.114 177.153 75.012C177.215 74.908 177.246 74.794 177.246 74.67C177.246 74.546 177.215 74.433 177.153 74.331C177.091 74.227 177.008 74.144 176.904 74.082C176.802 74.02 176.689 73.989 176.565 73.989C176.441 73.989 176.327 74.02 176.223 74.082C176.121 74.144 176.039 74.227 175.977 74.331C175.915 74.433 175.884 74.546 175.884 74.67C175.884 74.794 175.915 74.908 175.977 75.012C176.039 75.114 176.121 75.196 176.223 75.258C176.327 75.32 176.441 75.351 176.565 75.351Z" fill="white"/>
<circle cx="174.125" cy="87" r="1.5" fill="white" stroke="#D02F2F"/>
</svg>
