<svg width="24" height="24" viewBox="0 0 24 24" fill="none" xmlns="http://www.w3.org/2000/svg">
<path opacity="0.4" d="M3.5 4.4C3.5 3.07625 4.57625 2 5.9 2H15.5C16.8237 2 17.9 3.07625 17.9 4.4V9.86C17.7837 9.8825 17.6675 9.91625 17.5512 9.95375L14.3 11.0375V11C14.3 10.67 14.03 10.4 13.7 10.4H12.5C12.17 10.4 11.9 10.67 11.9 11V12.2C11.9 12.26 11.9075 12.3163 11.9225 12.3688C11.5287 12.8825 11.3 13.52 11.3 14.1988V15.2H10.1C9.43625 15.2 8.9 15.7363 8.9 16.4V19.4H12.2562C12.5787 20.045 12.98 20.6488 13.4487 21.2H5.9C4.57625 21.2 3.5 20.1238 3.5 18.8V4.4ZM7.1 6.2V7.4C7.1 7.73 7.37 8 7.7 8H8.9C9.23 8 9.5 7.73 9.5 7.4V6.2C9.5 5.87 9.23 5.6 8.9 5.6H7.7C7.37 5.6 7.1 5.87 7.1 6.2ZM7.1 11V12.2C7.1 12.53 7.37 12.8 7.7 12.8H8.9C9.23 12.8 9.5 12.53 9.5 12.2V11C9.5 10.67 9.23 10.4 8.9 10.4H7.7C7.37 10.4 7.1 10.67 7.1 11ZM11.9 6.2V7.4C11.9 7.73 12.17 8 12.5 8H13.7C14.03 8 14.3 7.73 14.3 7.4V6.2C14.3 5.87 14.03 5.6 13.7 5.6H12.5C12.17 5.6 11.9 5.87 11.9 6.2Z" fill="#3AB5FE"/>
<path d="M17.4 20.955L17.8987 20.7188C19.7925 19.83 21 17.925 21 15.8325V15.0975L17.4 13.8975V20.9513V20.955ZM12.8212 13.53L17.0212 12.1313C17.2688 12.0488 17.535 12.0488 17.7788 12.1313L21.9787 13.53C22.47 13.695 22.8 14.1525 22.8 14.67V15.8363C22.8 18.6263 21.1875 21.165 18.6675 22.35L17.9737 22.6763C17.7937 22.7588 17.5988 22.8038 17.4038 22.8038C17.2088 22.8038 17.01 22.7588 16.8337 22.6763L16.1325 22.35C13.6125 21.1613 12 18.6225 12 15.8325V14.6663C12 14.1488 12.33 13.6913 12.8212 13.5263V13.53Z" fill="#3AB5FE"/>
</svg>
