<svg width="24" height="24" viewBox="0 0 24 24" fill="none" xmlns="http://www.w3.org/2000/svg">
<path opacity="0.4" d="M6 11.2425V13.6162L8.38125 13.1062C9.99375 12.7612 11.6775 12.9337 13.185 13.605L13.7888 13.875C15.3488 14.5687 17.1187 14.6287 18.7237 14.0475L20.4 13.44V11.1187L19.1362 11.58C17.2387 12.2625 15.1462 12.1875 13.3012 11.37L12.6975 11.1C11.4225 10.5337 9.9975 10.3837 8.6325 10.6762L6 11.2425ZM6 14.8425V17.4L8.41125 16.7962C9.9525 16.41 11.5837 16.59 13.005 17.2987C14.6625 18.1275 16.5862 18.2287 18.3187 17.5762L19.62 17.0887C20.0887 16.9125 20.4 16.4662 20.4 15.9637V14.7075L19.1362 15.1687C17.2387 15.8625 15.1462 15.7875 13.3012 14.97L12.6975 14.7C11.4225 14.1337 9.9975 13.9837 8.6325 14.2762L6 14.8425ZM10.8 3.41248V5.77123C11.6175 5.85373 12.4237 6.06748 13.185 6.40498L13.7888 6.67498C15.3488 7.36873 17.1187 7.42873 18.7237 6.84748L20.4 6.23998V4.88623C20.4 4.02373 19.4925 3.46123 18.72 3.84748L18.36 4.02748C16.6237 4.89748 14.58 4.89748 12.8437 4.02748C12.1987 3.70498 11.5087 3.50248 10.8038 3.41623L10.8 3.41248ZM10.8 6.97873V9.37122C11.6175 9.45372 12.4237 9.66747 13.185 10.005L13.7888 10.275C15.3488 10.9687 17.1187 11.0287 18.7237 10.4475L20.4 9.83997V7.51498L19.1362 7.97623C17.2387 8.66248 15.1462 8.58748 13.3012 7.76998L12.6975 7.49998C12.09 7.22998 11.4525 7.05373 10.8 6.97873Z" fill="#3AB5FE"/>
<path d="M10.8 6.97878V3.41252C10.065 3.32627 9.31498 3.37127 8.58748 3.55502L5.99998 4.20002V3.60002C5.99998 2.93627 5.46373 2.40002 4.79998 2.40002C4.13623 2.40002 3.59998 2.93627 3.59998 3.60002V20.4C3.59998 21.0638 4.13623 21.6 4.79998 21.6C5.46373 21.6 5.99998 21.0638 5.99998 20.4V10.0163L8.38123 9.50627C9.17998 9.33377 9.99373 9.29252 10.8 9.37127V6.97878ZM6.59998 6.00002C6.59998 5.67002 6.86998 5.40002 7.19998 5.40002C7.52998 5.40002 7.79998 5.67002 7.79998 6.00002C7.79998 6.33002 7.52998 6.60002 7.19998 6.60002C6.86998 6.60002 6.59998 6.33002 6.59998 6.00002ZM8.99998 4.80002C9.32998 4.80002 9.59998 5.07002 9.59998 5.40002C9.59998 5.73002 9.32998 6.00002 8.99998 6.00002C8.66998 6.00002 8.39998 5.73002 8.39998 5.40002C8.39998 5.07002 8.66998 4.80002 8.99998 4.80002ZM6.59998 7.80002C6.59998 7.47002 6.86998 7.20002 7.19998 7.20002C7.52998 7.20002 7.79998 7.47002 7.79998 7.80002C7.79998 8.13002 7.52998 8.40002 7.19998 8.40002C6.86998 8.40002 6.59998 8.13002 6.59998 7.80002ZM8.99998 6.60002C9.32998 6.60002 9.59998 6.87002 9.59998 7.20002C9.59998 7.53002 9.32998 7.80002 8.99998 7.80002C8.66998 7.80002 8.39998 7.53002 8.39998 7.20002C8.39998 6.87002 8.66998 6.60002 8.99998 6.60002Z" fill="#3AB5FE"/>
</svg>
